<svg id="Layer_1" enable-background="new 0 0 511.928 511.928" height="512" viewBox="0 0 511.928 511.928" width="512" xmlns="http://www.w3.org/2000/svg"><g><g id="XMLID_1057_"><path d="m101.064 511.792c-13.189-1.378-22.764-13.186-21.387-26.375l10.744-102.863 3.601-79.821c.598-13.248 11.821-23.501 25.069-22.904 13.247.598 23.502 11.821 22.904 25.069l-3.633 80.528c-.021.472-.056.943-.105 1.412l-10.817 103.567c-1.372 13.133-13.132 22.77-26.376 21.387z" fill="#783c28"/></g><g id="XMLID_1061_"><g><path d="m329.48 137.428-7.607-20.942-67.016 4.451-88.41-4.643c-11.33-.593-20.979 8.1-21.574 19.421-.594 11.32 8.101 20.979 19.421 21.574l89.629 4.707c.359.018.717.028 1.077.028.453 0 .908-.015 1.36-.045l68.427-4.543z" fill="#dcbe82"/></g></g><g id="XMLID_104_"><g><path d="m354.151 134.913c-.751-11.311-10.552-19.874-21.841-19.121l-10.437.693 2.912 40.949 10.244-.68c11.313-.751 19.873-10.529 19.122-21.841z" fill="#ffb69e"/></g></g><g id="XMLID_1060_"><path d="m162.438 510.744c-12.611-4.103-19.507-17.651-15.405-30.261l32.503-99.907-32.319-91.829c-4.403-12.509 2.169-26.218 14.678-30.62 12.509-4.403 26.219 2.169 30.62 14.678l35.018 99.498c1.751 4.974 1.815 10.386.183 15.4l-35.018 107.638c-4.096 12.591-17.637 19.51-30.26 15.403z" fill="#5a2d19"/></g><g><path d="m172.947 115.893h-51.599c-15.562 0-28.178 12.615-28.178 28.178v157.464h107.955v-157.464c0-15.563-12.616-28.178-28.178-28.178z" fill="#dc1428"/></g><ellipse cx="169.866" cy="67.343" fill="#ffb69e" rx="42.495" ry="42.495" transform="matrix(.969 -.249 .249 .969 -11.412 44.37)"/><g><g><path d="m330.092 271.286-132.972-122.882c-1.19-1.1-1.875-2.64-1.895-4.26s.627-3.177 1.789-4.306l132.545-128.726 8.221 8.465-128.077 124.388 128.398 118.655z" fill="#b48255"/></g></g><g><path d="m314.647 272.481c0-3.802 2.169-7.235 5.552-8.97 19.306-9.905 27.99-49.172 21.483-81.866-3.613-17.696-9.426-22.352-9.518-40.329.005-9.305 1.847-16.331 5.009-24.69 13.222-33.469 5.723-86.031-17.15-97.581-3.354-1.694-5.376-5.23-5.376-8.988 0-6.497 6.086-11.315 12.395-9.763 18.135 4.46 32.506 22.622 40.067 41.534 20.659 50.908-3.837 100.874.554 88.793-1.142 3.245-1.854 6.447-1.877 10.695-.024 5.59 1.301 9.162 2.71 13.029 19.755 55.598-5.576 119.27-41.62 128.011-6.246 1.515-12.229-3.37-12.229-9.797z" fill="#783c28"/></g><g><g><path d="m204.833 144.661c.004-4.616 3.75-8.355 8.366-8.351l192.819.174-.016 16.718-192.818-.174c-4.616-.005-8.355-3.751-8.351-8.367z" fill="#6c9baa"/></g></g><g id="XMLID_1052_"><g><path d="m232.314 178.946-16.385-13.741-42.851 22.182-27.5-49.145c-5.535-9.893-18.044-13.424-27.935-7.889-9.893 5.535-13.425 18.043-7.889 27.935l37.203 66.484c5.434 9.711 17.557 13.274 27.348 8.205l59.467-30.783z" fill="#dcbe82"/></g></g><g id="XMLID_102_"><g><path d="m233.771 202.195 11.595-6.002c10.067-5.211 14.004-17.597 8.792-27.664-5.21-10.066-17.595-14.004-27.664-8.792l-10.565 5.469z" fill="#ffb69e"/></g></g><path d="m404.242 123.345-6.608 20.825 7.49 20.839 27.259-20.805z" fill="#a5c8cd"/></g></svg>