<svg id="Layer_1" enable-background="new 0 0 512 512" height="512" viewBox="0 0 512 512" width="512" xmlns="http://www.w3.org/2000/svg"><g><g><path d="m312 104c-2.047 0-4.095-.781-5.657-2.343-3.125-3.124-3.125-8.189 0-11.313l48-48c3.124-3.124 8.189-3.124 11.313 0 3.125 3.124 3.125 8.189 0 11.313l-48 48c-1.561 1.562-3.609 2.343-5.656 2.343z" fill="#d76e8c"/></g><g><g><path d="m272 128v-16c13.255 0 24-10.745 24-24v-8c4.418 0 8-3.582 8-8v-8c0-4.418-3.582-8-8-8v-16c0-13.255-10.745-24-24-24h-32c-13.255 0-24 10.745-24 24v16c-4.418 0-8 3.582-8 8v8c0 4.418 3.582 8 8 8v8c0 13.255 10.745 24 24 24v16h-176v28c0 6.627 5.373 12 12 12h116v328h36c6.627 0 12-5.373 12-12v-164h32v164c0 6.627 5.373 12 12 12h36v-328h116c6.627 0 12-5.373 12-12v-28z" fill="#555a6e"/></g><g><path d="m188 472h52v12c0 6.627-5.373 12-12 12h-40c-6.627 0-12-5.373-12-12 0-6.627 5.373-12 12-12z" fill="#a5c3dc"/></g><g><path d="m324 472h-52v12c0 6.627 5.373 12 12 12h40c6.627 0 12-5.373 12-12 0-6.627-5.373-12-12-12z" fill="#a5c3dc"/></g><g><path d="m32 152c-2.047 0-4.095-.781-5.657-2.343-3.125-3.124-3.125-8.189 0-11.313l8-8c1.5-1.5 3.535-2.343 5.657-2.343h40c4.418 0 8 3.582 8 8s-3.582 8-8 8h-36.687l-5.657 5.657c-1.561 1.561-3.609 2.342-5.656 2.342z" fill="#a5c3dc"/></g><g><path d="m480 152c-2.047 0-4.095-.781-5.657-2.343l-5.656-5.657h-36.687c-4.418 0-8-3.582-8-8s3.582-8 8-8h40c2.122 0 4.157.843 5.657 2.343l8 8c3.125 3.124 3.125 8.189 0 11.313-1.562 1.563-3.61 2.344-5.657 2.344z" fill="#a5c3dc"/></g><path d="m280 71.802h8v-31.802c0-8.836-7.163-16-16-16h-32c-8.837 0-16 7.164-16 16v32h8c4.418 0 8 3.582 8 8h-16v8c0 8.836 7.163 16 16 16h32c8.837 0 16-7.164 16-16v-8.198h-16c0-4.418 3.582-8 8-8z" fill="#d7e6f0"/><g><path d="m240 80h32v8h-32z" fill="#a5c3dc"/></g></g><g><path d="m232 256h16v24h-8c-4.418 0-8 3.582-8 8v16h-24v-24c0-13.255 10.745-24 24-24z" fill="#a5c3dc"/></g><g><path d="m280 256h-16v24h8c4.418 0 8 3.582 8 8v16h24v-24c0-13.255-10.745-24-24-24z" fill="#a5c3dc"/></g><g><circle cx="240" cy="56" fill="#555a6e" r="8"/></g><g><circle cx="272" cy="56" fill="#555a6e" r="8"/></g><g><path d="m208 304h16v192h-16z" fill="#d7e6f0"/></g><g><circle cx="216" cy="384" fill="#d7e6f0" r="16"/></g><g><circle cx="216" cy="304" fill="#d7e6f0" r="16"/></g><g><circle cx="216" cy="480" fill="#a5c3dc" r="16"/></g><g><path d="m288 304h16v192h-16z" fill="#d7e6f0"/></g><g><circle cx="296" cy="384" fill="#d7e6f0" r="16"/></g><g><circle cx="296" cy="304" fill="#d7e6f0" r="16"/></g><g><circle cx="296" cy="480" fill="#a5c3dc" r="16"/></g><g><path d="m242.667 310.667h-22.667v-21.333h40v4c0 9.557-7.776 17.333-17.333 17.333zm-14.667-8h14.667c3.716 0 6.932-2.183 8.432-5.333h-23.099z" fill="#d7e6f0"/></g><g><path d="m292 310.667h-22.667c-9.558 0-17.333-7.775-17.333-17.333v-4h40zm-31.099-13.334c1.5 3.15 4.716 5.333 8.432 5.333h14.667v-5.333z" fill="#d7e6f0"/></g><g><path d="m205.333 186.667c-2.946 0-5.333-2.388-5.333-5.333v-29.334c0-8.837 7.163-16 16-16h18.667c2.946 0 5.333 2.388 5.333 5.333v.889c0 1.154-.374 2.277-1.067 3.2l-29.333 39.111c-1.007 1.343-2.588 2.134-4.267 2.134z" fill="#a5c3dc"/></g><g><path d="m306.667 186.667c2.946 0 5.333-2.388 5.333-5.333v-29.334c0-8.837-7.163-16-16-16h-18.667c-2.945 0-5.333 2.388-5.333 5.333v.889c0 1.154.374 2.277 1.067 3.2l29.333 39.111c1.007 1.343 2.588 2.134 4.267 2.134z" fill="#a5c3dc"/></g><path d="m456 144h-13.333c0-5.891-4.776-10.667-10.667-10.667-2.701 0-5.16 1.012-7.039 2.667h-44.589c-1.879-1.655-4.338-2.667-7.039-2.667s-5.16 1.012-7.039 2.667h-47.255c-1.879-1.655-4.338-2.667-7.039-2.667-5.891 0-10.667 4.776-10.667 10.667s4.776 10.667 10.667 10.667c2.701 0 5.16-1.012 7.039-2.667h47.255c1.879 1.655 4.338 2.667 7.039 2.667s5.16-1.012 7.039-2.667h36.347c-.435 1.182-.693 2.447-.717 3.775-.123 6.73 5.296 12.225 11.998 12.225h8c5.223 0 9.654-3.342 11.302-8h8.698c4.418 0 8-3.582 8-8s-3.582-8-8-8z" fill="#d7e6f0"/><path d="m200 133.333c-2.701 0-5.16 1.012-7.039 2.667h-47.255c-1.879-1.655-4.338-2.667-7.039-2.667s-5.16 1.012-7.039 2.667h-44.589c-1.879-1.655-4.338-2.667-7.039-2.667-5.891 0-10.667 4.776-10.667 10.667h-13.333c-4.418 0-8 3.582-8 8s3.582 8 8 8h8.697c1.649 4.658 6.08 8 11.303 8h8c6.702 0 12.121-5.495 11.998-12.225-.024-1.328-.282-2.594-.717-3.775h36.347c1.879 1.655 4.338 2.667 7.039 2.667s5.16-1.012 7.039-2.667h47.255c1.879 1.655 4.338 2.667 7.039 2.667 5.891 0 10.667-4.775 10.667-10.667s-4.776-10.667-10.667-10.667z" fill="#d7e6f0"/><g><path d="m248 104h16v176h-16z" fill="#a5c3dc"/></g><g><g><path d="m304 180c-2.209 0-4-1.791-4-4 0-6.617-5.383-12-12-12h-32c-2.209 0-4-1.791-4-4s1.791-4 4-4h32c11.028 0 20 8.972 20 20 0 2.209-1.791 4-4 4z" fill="#a5c3dc"/></g><g><path d="m304 196c-2.209 0-4-1.791-4-4 0-6.617-5.383-12-12-12h-32c-2.209 0-4-1.791-4-4s1.791-4 4-4h32c11.028 0 20 8.972 20 20 0 2.209-1.791 4-4 4z" fill="#a5c3dc"/></g><g><path d="m280 180h-24c-2.209 0-4-1.791-4-4s1.791-4 4-4h24c6.617 0 12-5.383 12-12 0-2.209 1.791-4 4-4s4 1.791 4 4c0 11.028-8.972 20-20 20z" fill="#d7e6f0"/></g><g><path d="m288 196h-32c-2.209 0-4-1.791-4-4s1.791-4 4-4h32c6.617 0 12-5.383 12-12 0-2.209 1.791-4 4-4s4 1.791 4 4c0 11.028-8.972 20-20 20z" fill="#d7e6f0"/></g><g><path d="m288 212h-32c-2.209 0-4-1.791-4-4s1.791-4 4-4h32c6.617 0 12-5.383 12-12 0-2.209 1.791-4 4-4s4 1.791 4 4c0 11.028-8.972 20-20 20z" fill="#d7e6f0"/></g><g><path d="m288 228h-16c-11.028 0-20-8.972-20-20 0-2.209 1.791-4 4-4s4 1.791 4 4c0 6.617 5.383 12 12 12h16c6.617 0 12-5.383 12-12 0-2.209 1.791-4 4-4s4 1.791 4 4c0 11.028-8.972 20-20 20z" fill="#d7e6f0"/></g></g><g><g><path d="m208 180c-2.209 0-4-1.791-4-4 0-11.028 8.972-20 20-20h32c2.209 0 4 1.791 4 4s-1.791 4-4 4h-32c-6.617 0-12 5.383-12 12 0 2.209-1.791 4-4 4z" fill="#a5c3dc"/></g><g><path d="m208 196c-2.209 0-4-1.791-4-4 0-11.028 8.972-20 20-20h32c2.209 0 4 1.791 4 4s-1.791 4-4 4h-32c-6.617 0-12 5.383-12 12 0 2.209-1.791 4-4 4z" fill="#a5c3dc"/></g><g><path d="m256 180h-24c-11.028 0-20-8.972-20-20 0-2.209 1.791-4 4-4s4 1.791 4 4c0 6.617 5.383 12 12 12h24c2.209 0 4 1.791 4 4s-1.791 4-4 4z" fill="#d7e6f0"/></g><g><path d="m256 196h-32c-11.028 0-20-8.972-20-20 0-2.209 1.791-4 4-4s4 1.791 4 4c0 6.617 5.383 12 12 12h32c2.209 0 4 1.791 4 4s-1.791 4-4 4z" fill="#d7e6f0"/></g><g><path d="m256 212h-32c-11.028 0-20-8.972-20-20 0-2.209 1.791-4 4-4s4 1.791 4 4c0 6.617 5.383 12 12 12h32c2.209 0 4 1.791 4 4s-1.791 4-4 4z" fill="#d7e6f0"/></g><g><path d="m240 228h-16c-11.028 0-20-8.972-20-20 0-2.209 1.791-4 4-4s4 1.791 4 4c0 6.617 5.383 12 12 12h16c6.617 0 12-5.383 12-12 0-2.209 1.791-4 4-4s4 1.791 4 4c0 11.028-8.972 20-20 20z" fill="#d7e6f0"/></g></g><g><path d="m432 80h-80c-8.837 0-16-7.163-16-16v-32c0-8.837 7.163-16 16-16h80c8.837 0 16 7.163 16 16v32c0 8.837-7.163 16-16 16z" fill="#f58caa"/></g><g><path d="m424 56h-64c-4.418 0-8-3.582-8-8s3.582-8 8-8h64c4.418 0 8 3.582 8 8s-3.582 8-8 8z" fill="#d76e8c"/></g><g><path d="m392 264c-2.047 0-4.095-.781-5.657-2.343l-48-48c-3.125-3.124-3.125-8.189 0-11.313 3.124-3.124 8.189-3.124 11.313 0l48 48c3.125 3.124 3.125 8.189 0 11.313-1.561 1.562-3.609 2.343-5.656 2.343z" fill="#d76e8c"/></g><g><path d="m464 288h-80c-8.837 0-16-7.163-16-16v-32c0-8.837 7.163-16 16-16h80c8.837 0 16 7.163 16 16v32c0 8.837-7.163 16-16 16z" fill="#f58caa"/></g><g><path d="m456 264h-64c-4.418 0-8-3.582-8-8s3.582-8 8-8h64c4.418 0 8 3.582 8 8s-3.582 8-8 8z" fill="#d76e8c"/></g><g><path d="m128 360c-2.047 0-4.095-.781-5.657-2.343-3.125-3.124-3.125-8.189 0-11.313l48-48c3.124-3.124 8.189-3.124 11.313 0 3.125 3.124 3.125 8.189 0 11.313l-48 48c-1.561 1.562-3.609 2.343-5.656 2.343z" fill="#d76e8c"/></g><g><path d="m56 384h80c8.837 0 16-7.163 16-16v-32c0-8.837-7.163-16-16-16h-80c-8.837 0-16 7.163-16 16v32c0 8.837 7.163 16 16 16z" fill="#f58caa"/></g><g><path d="m128 360h-64c-4.418 0-8-3.582-8-8s3.582-8 8-8h64c4.418 0 8 3.582 8 8s-3.582 8-8 8z" fill="#d76e8c"/></g><g><path d="m464 448h-176c-8.837 0-16-7.163-16-16v-64c0-8.837 7.163-16 16-16h176c8.837 0 16 7.163 16 16v64c0 8.837-7.163 16-16 16z" fill="#d76e8c"/></g><g><g><path d="m336 430h-32c-3.313 0-6-2.687-6-6 0-7.222 4.013-13.715 10.472-16.944l16.646-8.323c3.011-1.506 4.882-4.533 4.882-7.9 0-4.871-3.962-8.833-8.833-8.833h-2.334c-4.871 0-8.833 3.962-8.833 8.833v1.167c0 3.313-2.687 6-6 6s-6-2.687-6-6v-1.167c0-11.487 9.346-20.833 20.833-20.833h2.334c11.487 0 20.833 9.346 20.833 20.833 0 7.941-4.413 15.081-11.516 18.633l-16.646 8.323c-.133.066-.264.137-.391.211h22.553c3.313 0 6 2.687 6 6s-2.687 6-6 6z" fill="#fac3c8"/></g><g><path d="m376 430c-12.131 0-22-9.869-22-22v-16c0-12.131 9.869-22 22-22s22 9.869 22 22v16c0 12.131-9.869 22-22 22zm0-48c-5.514 0-10 4.486-10 10v16c0 5.514 4.486 10 10 10s10-4.486 10-10v-16c0-5.514-4.486-10-10-10z" fill="#fac3c8"/></g><g><path d="m436 430h-5.333c-9.925 0-18-8.075-18-18v-24c0-9.925 8.075-18 18-18h14.667c3.313 0 6 2.687 6 6s-2.687 6-6 6h-14.667c-3.309 0-6 2.691-6 6v6h11.333c9.925 0 18 8.075 18 18s-8.075 18-18 18zm-11.333-24v6c0 3.309 2.691 6 6 6h5.333c3.309 0 6-2.691 6-6s-2.691-6-6-6z" fill="#fac3c8"/></g></g></g></svg>