<svg id="Layer_1" enable-background="new 0 0 512.531 512.531" height="512" viewBox="0 0 512.531 512.531" width="512" xmlns="http://www.w3.org/2000/svg"><g><g><g><g><g><path d="m123.26 205.519v90.997c0 11.182 9.065 20.247 20.248 20.247s20.248-9.065 20.248-20.247v-90.997l-17.945-9.822z" fill="#ffb69e"/></g><g><path d="m248.361 100h-43.975l-.183.7c-3.764 14.366 7.073 28.409 21.924 28.409h.506c15.152 0 26.037-14.582 21.728-29.109z" fill="#ffb69e"/></g><g id="XMLID_263_"><g><path d="m196.801 512.531c-13.419 0-24.297-10.878-24.297-24.297v-194.208c0-13.419 10.878-24.297 24.297-24.297s24.297 10.878 24.297 24.297v194.208c0 13.419-10.878 24.297-24.297 24.297z" fill="#5f6e9b"/></g></g><g><ellipse cx="226.351" cy="44.649" fill="#ffb69e" rx="44.649" ry="44.649" transform="matrix(.383 -.924 .924 .383 98.479 236.684)"/></g><g id="XMLID_262_"><g><path d="m255.893 512.531c-13.419 0-24.297-10.878-24.297-24.297v-194.208c0-13.419 10.878-24.297 24.297-24.297s24.297 10.878 24.297 24.297v194.208c0 13.419-10.878 24.297-24.297 24.297z" fill="#414b82"/></g></g><g><path d="m332.892 195.1-3.529-23.465v-23.87c0-.034 0-.067 0-.102-.131-26.288-21.961-47.675-48.662-47.675h-32.34c0 .004.001.007.001.011.532 11.875-10.486 21.988-21.987 21.988-12.327 0-21.454-10.075-21.987-21.988 0-.004 0-.007 0-.011h-32.385c-26.744 0-48.609 21.387-48.741 47.675v.102 57.754h40.495v-57.688c.043-3.851 3.962-7.348 8.246-7.348h.503v102.35l4.144 6.716-4.144 6.716v37.76h107.684l-.046-37.76-3.008-6.716 2.992-6.716-.125-102.35h.698c4.242 0 8.125 3.497 8.167 7.348v47.269z" fill="#87afb9"/></g><g><path d="m386.449 161.401c-5.692-9.626-18.107-12.814-27.734-7.123l-29.352 17.357-25.69 19.05c0-.004-14.805 0-14.805 0v16.445c0 15.742 17.144 25.357 30.554 17.428l59.906-35.424c9.624-5.691 12.813-18.108 7.121-27.733z" fill="#ffb69e"/></g></g></g><g><path d="m301.524 224.441h-16.593c-35.366 0-64.239-28.772-64.361-64.139l-.092-26.528c-.012-3.314 2.666-6.009 5.979-6.021h.021c3.305 0 5.988 2.672 6 5.979l.092 26.527c.1 28.772 23.589 52.181 52.361 52.181h16.593c28.872 0 52.36-23.489 52.36-52.361v-20.934c0-3.314 2.687-6 6-6s6 2.686 6 6v20.934c.001 35.489-28.871 64.362-64.36 64.362z" fill="#46738c"/></g><circle cx="359.885" cy="131.533" fill="#c8e6eb" r="22.837"/><g><path d="m226.479 139.754c-30.188 0-54.748-24.56-54.748-54.748v-37.592c0-3.314 2.687-6 6-6s6 2.686 6 6v37.591c0 23.571 19.177 42.748 42.748 42.748s42.748-19.177 42.748-42.748v-37.591c0-3.314 2.687-6 6-6s6 2.686 6 6v37.591c0 30.189-24.56 54.749-54.748 54.749z" fill="#c8e6eb"/></g></g><g fill="#c8e6eb"><path d="m172.504 242.834h29.095v13.431h-29.095z"/><path d="m251.095 242.834h29.095v13.431h-29.095z"/></g></g></svg>