<?xml version="1.0" encoding="iso-8859-1"?>
<!-- Generator: Adobe Illustrator 19.0.0, SVG Export Plug-In . SVG Version: 6.00 Build 0)  -->
<svg version="1.1" id="Capa_1" xmlns="http://www.w3.org/2000/svg" xmlns:xlink="http://www.w3.org/1999/xlink" x="0px" y="0px"
	 viewBox="0 0 512 512" style="enable-background:new 0 0 512 512;" xml:space="preserve">
<path style="fill:#464D7F;" d="M331.932,103.357c-7.042-6.099-17.696-5.334-23.795,1.708l-37.829,43.676l-47.443-23.247
	l-98.642-5.813l-0.195-0.011L77.134,88.717l4.027-68.224c0.549-9.299-6.546-17.285-15.845-17.834
	c-9.278-0.542-17.284,6.546-17.834,15.846l-4.6,77.936c-0.355,6.011,2.521,11.756,7.546,15.072l69.916,46.15l-8.25,139.769
	c-0.337,46.007,0.344,192.138,0.344,192.138c0.037,12.401,10.098,22.427,22.491,22.427c0.022,0,0.045,0,0.066,0
	c12.422-0.036,22.463-10.136,22.427-22.556l-0.547-189.364l54.81,3.236l8.363-141.656l47.067,23.101
	c6.853,3.364,15.149,1.714,20.185-4.099l46.341-53.506C339.739,120.109,338.974,109.457,331.932,103.357z"/>
<path style="fill:#3A4069;" d="M211.686,303.312l-49.38-2.915l36.381,92.933l-11.107,93.524
	c-1.465,12.335,7.347,23.522,19.682,24.987c0.901,0.107,1.794,0.159,2.68,0.159c11.236-0.001,20.95-8.407,22.307-19.842
	l11.771-99.125c0.438-3.676-0.04-7.404-1.39-10.852L211.686,303.312z"/>
<path style="fill:#A66749;" d="M333.64,127.153c3.287-3.796,4.58-8.64,3.972-13.256c-0.869-6.585-5.52-12.048-11.882-13.954
	c-6.362-1.906-13.246,0.101-17.594,5.121l-37.829,43.676l-47.443-23.247l-98.837-5.825L77.134,88.717l4.027-68.224
	c0.549-9.299-6.546-17.285-15.845-17.834c-9.278-0.542-17.284,6.546-17.834,15.846l-4.6,77.936
	c-0.355,6.011,2.521,11.756,7.546,15.072l69.916,46.15l-8.25,139.769l99.592,5.88l8.363-141.656l47.067,23.101
	c6.853,3.364,15.149,1.714,20.185-4.099L333.64,127.153z"/>
<path style="fill:#7EADFC;" d="M222.864,125.494l-32.702-1.928c-0.175,9.188-8.777,16.839-17.773,16.839
	c-9.971,0-17.355-8.15-17.787-17.786c-0.018-0.386,0.004-0.766,0.017-1.147l-30.593-1.803L94.092,99.91l-14.513,30.846
	l40.764,26.907l-8.25,139.769l99.592,5.88l8.363-141.656l29.701,14.578l12.64-31.373L222.864,125.494z"/>
<path style="fill:#B9CDD2;" d="M391.794,7.87c0-4.346-3.523-7.87-7.87-7.87c-4.346,0-7.87,3.523-7.87,7.87v53.557
	c-1.873-0.386-3.845-0.607-5.902-0.607c-12.136,0-21.642,7.157-21.642,16.294s9.507,16.293,21.642,16.293
	c12.136,0,21.642-7.157,21.642-16.293c0-0.057-0.01-0.111-0.011-0.168c0.002-0.072,0.011-0.144,0.011-0.216V7.87H391.794z"/>
<path style="fill:#0073AA;" d="M370.152,60.821c-12.136,0-21.642,7.157-21.642,16.294s9.507,16.293,21.642,16.293
	c12.136,0,21.642-7.157,21.642-16.293S382.288,60.821,370.152,60.821z"/>
<path style="fill:#B9CDD2;" d="M469.148,152.951c0-2.48-1.194-4.808-3.208-6.257c-2.013-1.448-4.6-1.837-6.952-1.048l-55.457,18.63
	c-3.139,1.055-5.253,3.994-5.253,7.305v52.457c-1.854-0.388-3.811-0.608-5.852-0.608c-11.883,0-21.192,7.008-21.192,15.954
	c0,8.946,9.308,15.954,21.192,15.954c11.392,0,20.394-6.446,21.121-14.861c0.092-0.477,0.144-0.967,0.144-1.47V177.12l40.044-13.452
	v41.724c-1.834-0.378-3.765-0.595-5.779-0.595c-11.883,0-21.191,7.008-21.191,15.954c0,8.946,9.308,15.954,21.191,15.954
	s21.191-7.008,21.191-15.954c0-0.056-0.01-0.109-0.011-0.165c0.002-0.071,0.011-0.14,0.011-0.212v-67.425H469.148z"/>
<g>
	<path style="fill:#DD3E3E;" d="M392.427,223.429c-11.883,0-21.191,7.008-21.191,15.954c0,8.946,9.308,15.954,21.191,15.954
		c11.883,0,21.192-7.008,21.192-15.954C413.619,230.437,404.309,223.429,392.427,223.429z"/>
	<path style="fill:#DD3E3E;" d="M447.957,204.798c-11.883,0-21.191,7.008-21.191,15.954c0,8.946,9.308,15.954,21.191,15.954
		c11.883,0,21.191-7.008,21.191-15.954C469.148,211.806,459.84,204.798,447.957,204.798z"/>
</g>
<circle style="fill:#A66749;" cx="175.565" cy="68.796" r="39.031"/>
<g>
</g>
<g>
</g>
<g>
</g>
<g>
</g>
<g>
</g>
<g>
</g>
<g>
</g>
<g>
</g>
<g>
</g>
<g>
</g>
<g>
</g>
<g>
</g>
<g>
</g>
<g>
</g>
<g>
</g>
</svg>
