<?xml version="1.0" encoding="iso-8859-1"?>
<!-- Generator: Adobe Illustrator 19.0.0, SVG Export Plug-In . SVG Version: 6.00 Build 0)  -->
<svg version="1.1" id="Capa_1" xmlns="http://www.w3.org/2000/svg" xmlns:xlink="http://www.w3.org/1999/xlink" x="0px" y="0px"
	 viewBox="0 0 512 512" style="enable-background:new 0 0 512 512;" xml:space="preserve">
<path style="fill:#EDB59E;" d="M423.113,164.741c-0.131-26.06-21.44-47.263-47.5-47.263c-28.428,0-61.982,0-88.936,0
	c-23.682,0-47.006,6.317-67.45,18.271L98.442,206.365c-9.57,5.595-12.792,17.889-7.198,27.459
	c5.605,9.586,17.909,12.783,27.459,7.197l120.784-70.617c9.072-5.304,18.955-9.015,29.197-11.025v150.457h106.319v-52.192l40-28.246
	c5.373-3.795,8.547-9.98,8.494-16.559L423.113,164.741z M375.005,208.5v-50.877h0.607c4.036,0,7.335,3.284,7.357,7.381l0.302,37.659
	L375.005,208.5z"/>
<path style="fill:#52565A;" d="M350.909,511.998c-13.303,0-24.087-10.784-24.087-24.087V309.836
	c0-13.303,10.784-24.087,24.087-24.087c13.303,0,24.087,10.784,24.087,24.087v178.075
	C374.996,501.213,364.211,511.998,350.909,511.998z"/>
<path style="fill:#45484B;" d="M246.241,511.971c-13.288-0.625-23.553-11.904-22.928-25.191l5.254-111.674
	c0.173-3.67,1.183-7.252,2.953-10.472l40.391-74.976c6.408-11.657,21.055-15.913,32.711-9.505
	c11.658,6.408,15.913,21.053,9.505,32.712l-37.702,70.084l-4.992,106.097C270.807,502.373,259.465,512.613,246.241,511.971z"/>
<circle style="fill:#EDB59E;" cx="323.73" cy="62.616" r="41.601"/>
<path style="fill:#DD3E3E;" d="M423.113,164.741c-0.131-26.06-21.44-47.263-47.5-47.263H343.34
	c0.301,10.315-9.283,19.053-19.299,19.053c-10.734,0-18.695-8.705-19.279-19.053h-18.086c-23.682,0-47.006,6.317-67.45,18.271
	l-23.008,13.452l17.653,36.18l25.615-14.976c9.072-5.304,18.955-9.015,29.197-11.025v150.174h106.319v-151.93h0.607
	c4.036,0,7.335,3.283,7.356,7.381l0.219,27.275h40.146L423.113,164.741z"/>
<path style="fill:#3B3E43;" d="M367.968,11.119C367.968,4.978,362.99,0,356.849,0h-66.231C284.478,0,279.5,4.978,279.5,11.119
	v43.254h88.467V11.119H367.968z"/>
<path style="fill:#783C28;" d="M300.271,287.283c3.879-0.96,7.292-3.63,9.055-7.557c3.044-6.782,0.013-14.749-6.769-17.793
	L112.566,176.65c-6.781-3.044-14.749-0.014-17.793,6.769c-3.045,6.782-0.013,14.749,6.769,17.793l189.992,85.282
	C294.387,287.776,297.452,287.982,300.271,287.283z"/>
<path style="fill:#B48255;" d="M286.853,330.728c-4.284-12.983-16.917-21.36-30.54-20.216c-5.836,0.49-11.639-0.39-17.063-2.825
	c-21.162-9.498-28.51-39.047-16.413-65.996c12.097-26.95,39.059-41.096,60.22-31.598c5.423,2.434,9.938,6.185,13.45,10.872
	c8.214,10.96,22.831,14.822,35.402,9.384c13.538-5.856,28.038-6.56,40.948-0.765c28.676,12.872,38.635,52.911,22.242,89.431
	c-16.393,36.519-52.928,55.69-81.604,42.818C300.586,356.038,291.475,344.736,286.853,330.728z"/>
<g>
	<circle style="fill:#501E0F;" cx="286.653" cy="269.553" r="17.576"/>
	<path style="fill:#501E0F;" d="M349.328,326.799l21.756-48.47c2.435-5.427,0.011-11.799-5.416-14.236
		c-5.427-2.435-11.799-0.011-14.236,5.415l-21.756,48.47c-2.435,5.427-0.011,11.799,5.415,14.234
		C340.532,334.656,346.898,332.214,349.328,326.799z"/>
	<path style="fill:#501E0F;" d="M113.594,222.997c3.103-0.768,5.834-2.904,7.244-6.046l16.312-36.339
		c2.435-5.427,0.011-11.799-5.415-14.236c-5.424-2.435-11.798-0.011-14.236,5.415l-16.311,36.339
		c-2.435,5.427-0.011,11.799,5.415,14.236C108.887,223.39,111.34,223.554,113.594,222.997z"/>
	<path style="fill:#501E0F;" d="M137.175,233.58c3.104-0.768,5.834-2.904,7.244-6.046l16.311-36.338
		c2.435-5.427,0.011-11.799-5.415-14.236c-5.427-2.435-11.799-0.011-14.236,5.415l-16.311,36.338
		c-2.435,5.427-0.011,11.799,5.415,14.236C132.468,233.974,134.92,234.139,137.175,233.58z"/>
</g>
<path style="fill:#52565A;" d="M375.877,57.571h-103.22c-5.889,0-10.661-4.774-10.661-10.661s4.773-10.661,10.661-10.661h103.22
	c5.889,0,10.661,4.774,10.661,10.661S381.765,57.571,375.877,57.571z"/>
<path style="fill:#EDB59E;" d="M318.08,273.269c-6.395-9.055-4.237-21.581,4.818-27.976l68.951-48.688
	c9.055-6.393,21.58-4.236,27.975,4.818c6.395,9.055,4.237,21.581-4.818,27.976l-68.951,48.689
	C336.997,284.482,324.475,282.325,318.08,273.269z"/>
<g>
</g>
<g>
</g>
<g>
</g>
<g>
</g>
<g>
</g>
<g>
</g>
<g>
</g>
<g>
</g>
<g>
</g>
<g>
</g>
<g>
</g>
<g>
</g>
<g>
</g>
<g>
</g>
<g>
</g>
</svg>
