<svg id="Layer_1" enable-background="new 0 0 511.483 511.483" height="512" viewBox="0 0 511.483 511.483" width="512" xmlns="http://www.w3.org/2000/svg"><g><g id="XMLID_1693_"><path d="m314.123 46.87c-8.105-7.855-21.045-7.651-28.9.455l-17.431 17.988c.002.07.01.135.01.206v28.161h29.421l17.355-17.91c7.855-8.106 7.652-21.045-.455-28.9z" fill="#f2a48a"/></g><g id="XMLID_37_"><path d="m271.523 61.463-32.941 33.995-84.84 24.855c-10.832 3.174-17.041 14.528-13.867 25.36 2.611 8.915 10.763 14.697 19.604 14.697 1.902 0 3.837-.268 5.755-.83l90.017-26.372c3.394-.994 6.471-2.852 8.932-5.391l36.547-37.715c-.044-.344-.075-.698-.075-1.073z" fill="#466e28"/></g><g id="XMLID_1681_"><path d="m109.15 289.516v197.516c.041 13.521 11.341 24.451 24.852 24.451h.076c13.545-.041 24.492-11.055 24.451-24.6v-208.243z" fill="#783c28"/></g><g><path d="m334.66 75.034v19.731h-28.546v-19.731h-13.322v79.04c0 3.224 3.317 5.382 6.264 4.074l19.523-8.66c1.151-.511 2.464-.511 3.615 0l19.523 8.66c2.947 1.307 6.264-.85 6.264-4.074 0-17.206 0-62.589 0-79.04z" fill="#dc1428"/></g><g id="XMLID_1692_"><path d="m169.62 278.64.016 208.32c.001 13.545 10.982 24.524 24.527 24.523s24.77-10.982 24.769-24.527v-197.44z" fill="#5a2d19"/></g><path d="m190.278 100.737h-52.471c-15.825 0-28.657 12.829-28.657 28.654v108.039l3.484 6.026-3.484 6.026v40.033h109.783v-40.033l-2.58-6.423 2.58-5.63v-108.038c-.001-15.825-12.83-28.654-28.655-28.654z" fill="#466e28"/><circle cx="167.61" cy="45.583" fill="#ffb69e" r="45.583"/><g><path d="m384.356 31.897-27.186 16.007-127.927 6.713c-2.859.15-5.101 2.512-5.101 5.376v9.784c0 2.863 2.242 5.226 5.101 5.376l127.064 6.671 28.049 18.914c9.929 0 17.978-15.41 17.978-34.42s-8.049-34.421-17.978-34.421z" fill="#ffd23c"/></g><g id="XMLID_1365_"><path d="m268.787 90.011 2.824-8.6c3.521-10.724-2.317-22.273-13.041-25.794-10.718-3.522-22.271 2.316-25.795 13.041l-3.128 9.525 13.454 14.825z" fill="#ffb69e"/></g><g id="XMLID_32_"><path d="m229.647 78.183-14.314 43.588-59.782-5.238c-11.234-.987-21.158 7.332-22.145 18.576-.984 11.245 7.332 21.159 18.576 22.144l75.928 6.653c.603.053 1.2.079 1.796.079 8.755 0 16.633-5.617 19.406-14.062l19.675-59.911z" fill="#64822d"/></g><path d="m109.15 237.43h109.783v12.053h-109.783z" fill="#783c28"/></g></svg>