<svg id="Layer_1" enable-background="new 0 0 506.728 506.728" height="512" viewBox="0 0 506.728 506.728" width="512" xmlns="http://www.w3.org/2000/svg"><g><path d="m191.169 96.708v5.524c0 12.223 9.908 22.131 22.131 22.131 12.549 0 22.588-10.423 22.115-22.964l-.177-4.691z" fill="#ffb69e"/><g id="XMLID_1226_"><path d="m185.047 506.728c-13.337 0-24.148-10.812-24.148-24.148v-193.02c0-13.337 10.812-24.148 24.148-24.148 13.337 0 24.148 10.812 24.148 24.148v193.02c.001 13.336-10.811 24.148-24.148 24.148z" fill="#783c28"/></g><g id="XMLID_1222_"><path d="m243.77 506.728c-13.337 0-24.148-10.812-24.148-24.148v-193.02c0-13.337 10.812-24.148 24.148-24.148 13.337 0 24.148 10.812 24.148 24.148v193.02c.001 13.336-10.811 24.148-24.148 24.148z" fill="#5a2d19"/></g><g><path d="m275.699 144.293.202 40.221 40.254-5.024v-7.56l-.069.067-.14-27.906c-.131-26.128-21.494-47.384-47.622-47.384h-33.085c-.438 11.25-11.041 20.548-22.096 20.548-11.85 0-20.752-9.265-21.974-20.548h-30.879c-26.127 0-47.491 21.256-47.623 47.383l-.292 58.062 28.16 12.302 12.088-12.267.291-57.895c.02-4.03 3.304-7.311 7.328-7.336l-13.071 240.354c-.259 4.758 3.53 8.758 8.294 8.758h118.333c4.765 0 8.553-4 8.294-8.758l-13.067-240.32c3.72.355 6.655 3.493 6.674 7.303z" fill="#dc1428"/></g><path d="m371.567 145.94c-7.766-7.951-20.507-8.101-28.457-.336l-27.023 26.393-40.29 38.755.282 8.896c.04 8.078 4.908 15.348 12.36 18.465 7.427 3.106 16.026 1.494 21.825-4.169l60.969-59.546c7.948-7.766 8.099-20.507.334-28.458z" fill="#ffb69e"/><ellipse cx="214.137" cy="41.707" fill="#ffb69e" rx="41.707" ry="41.707" transform="matrix(.383 -.924 .924 .383 93.659 223.584)"/><g><path d="m299.025 178.51c-10.488-25.21-71.408-23.84-96.618-13.352s-37.145 39.427-26.657 64.637 39.427 37.145 64.637 26.657c25.211-10.488 69.126-52.732 58.638-77.942z" fill="#dcbe82"/><g><path d="m254.665 197.317c-3.705-8.751-13.803-12.841-22.554-9.135-8.751 3.705-12.841 13.803-9.136 22.553 3.705 8.751 13.803 12.841 22.554 9.135 8.751-3.705 12.841-13.803 9.136-22.553z" fill="#5a2d19"/><path d="m394.051 143.684-3.868-9.136c-1.032-2.436-3.843-3.575-6.28-2.543l-102.666 43.472c-2.436 1.031-3.575 3.843-2.544 6.28l3.868 9.136c1.032 2.436 3.843 3.575 6.28 2.543l102.666-43.471c2.437-1.033 3.576-3.845 2.544-6.281z" fill="#5a2d19"/><g><path d="m386.598 160.038c-1.436 0-2.8-.844-3.395-2.249l-10.599-25.032c-.794-1.874.082-4.037 1.956-4.83 1.872-.792 4.036.082 4.83 1.956l10.599 25.032c.794 1.874-.082 4.037-1.956 4.83-.469.198-.956.293-1.435.293z" fill="#783c28"/></g><g><path d="m376.757 164.205c-1.435 0-2.8-.844-3.395-2.249l-10.599-25.032c-.794-1.874.082-4.037 1.956-4.83 1.872-.793 4.036.082 4.83 1.956l10.599 25.032c.794 1.874-.082 4.037-1.956 4.83-.468.198-.955.293-1.435.293z" fill="#783c28"/></g><g><path d="m366.917 168.371c-1.436 0-2.8-.844-3.395-2.249l-10.599-25.031c-.794-1.874.082-4.037 1.956-4.83 1.873-.793 4.036.082 4.83 1.956l10.599 25.031c.794 1.874-.082 4.037-1.956 4.83-.468.199-.955.293-1.435.293z" fill="#783c28"/></g></g></g><path d="m208.3 215.547-53.34-12.798-2.336-.56v-.035h-40.248l-.079 15.782c-.046 9.306 6.406 17.506 15.429 19.669l71.185 17.08c10.819 2.597 21.674-4.08 24.263-14.873 2.592-10.809-4.067-21.672-14.874-24.265z" fill="#ffb69e"/></g></svg>