<svg id="Layer_1" enable-background="new 0 0 510.079 510.079" height="512" viewBox="0 0 510.079 510.079" width="512" xmlns="http://www.w3.org/2000/svg"><g><g><path d="m304.891 125.044-49.34-4.894v279.57h87.446c5.342 0 9.673-4.331 9.673-9.673v-84.686z" fill="#1e2d64"/></g><ellipse cx="255.588" cy="69.136" fill="#ffb69e" rx="39.547" ry="39.547" transform="matrix(.383 -.924 .924 .383 93.905 278.812)"/><g><path d="m260.531 302.778v184.403c0 12.646 10.252 22.898 22.898 22.898s22.898-10.252 22.898-22.898l-.006-184.403-24.973-4.88z" fill="#272a2e"/></g><g><g><path d="m301.914 123.087-6.038-2.936h-24.886l-66.159 182.627h101.491c-.003-.074-.004-.147-.006-.221l-.177-144.243h.669c4.011 0 7.68 3.317 7.698 6.862v140.186c0 10.539 8.543 19.082 19.082 19.082s19.082-8.543 19.082-19.082v-140.282c-.124-24.507-20.257-44.493-45.048-44.922-.271-.005-5.708 2.929-5.708 2.929z" fill="#dc1428"/></g></g><g id="XMLID_1194_"><g><path d="m227.747 510.079c-12.646 0-22.898-10.252-22.898-22.898v-183.026c0-12.646 10.252-22.898 22.898-22.898s22.898 10.252 22.898 22.898v183.026c0 12.646-10.252 22.898-22.898 22.898z" fill="#373c41"/></g></g><g><path d="m271.412 25.856-14.409-24.535c-1.049-1.786-3.642-1.754-4.647.056l-13.587 24.478-10.748-19.363c-1.366-2.461-5.113-1.491-5.113 1.324v38.911c0 1.731 1.403 3.134 3.134 3.134h59.018c1.731 0 3.134-1.403 3.134-3.134v-39.416c0-2.78-3.672-3.779-5.08-1.381z" fill="#ffd23c"/></g><path d="m205.181 120.151c-26.383 0-47.772 21.388-47.772 47.771v220.704c0 5.515 4.471 11.095 9.987 11.095h93.607c5.515 0 9.987-5.579 9.987-11.095v-268.475z" fill="#00558c"/><g><path d="m295.877 120.151c0 19.259-15.669 34.928-34.929 34.928-3.243 0-5.872 2.629-5.872 5.872s2.629 5.872 5.872 5.872c25.736 0 46.674-20.937 46.674-46.673h-11.745z" fill="#ffd23c"/></g></g></svg>