<svg height="512pt" viewBox="-24 0 512 512" width="512pt" xmlns="http://www.w3.org/2000/svg"><path d="m266.480469 341.289062h79.636719v-184.679687c0-6.488281-5.644532-11.472656-12.097657-10.796875-57.398437 6.042969-102.132812 54.59375-102.132812 113.59375 0 32.117188 13.261719 61.128906 34.59375 81.882812zm0 0" fill="#a5c8cd"/><path d="m405.621094 476.742188c-3.015625 0-6.039063-1.074219-8.453125-3.257813l-133.570313-120.804687c-5.164062-4.671876-5.5625-12.644532-.890625-17.808594 4.671875-5.160156 12.640625-5.5625 17.804688-.890625l133.570312 120.804687c5.164063 4.671875 5.5625 12.644532.894531 17.808594-2.488281 2.75-5.917968 4.148438-9.355468 4.148438zm0 0" fill="#46738c"/><path d="m293.402344 476.742188c-3.355469 0-6.699219-1.328126-9.179688-3.960938-4.773437-5.066406-4.535156-13.046875.53125-17.820312l133.570313-125.851563c5.066406-4.773437 13.046875-4.535156 17.820312.53125 4.773438 5.066406 4.535157 13.046875-.53125 17.820313l-133.570312 125.847656c-2.433594 2.296875-5.542969 3.433594-8.640625 3.433594zm0 0" fill="#55879b"/><path d="m415.507812 362.722656h-134.550781c-27.101562 0-49.066406-21.96875-49.066406-49.066406v-54.246094h219.292969c7.394531 0 13.390625 5.992188 13.390625 13.386719v40.859375c0 27.097656-21.96875 49.066406-49.066407 49.066406zm0 0" fill="#6c9baa"/><path d="m283.246094 512c-20.90625 0-37.917969-17.007812-37.917969-37.914062s17.011719-37.914063 37.917969-37.914063 37.914062 17.007813 37.914062 37.914063-17.007812 37.914062-37.914062 37.914062zm0-50.617188c-7.003906 0-12.703125 5.699219-12.703125 12.703126 0 7.003906 5.699219 12.699218 12.703125 12.699218 7 0 12.699218-5.695312 12.699218-12.699218 0-7.003907-5.695312-12.703126-12.699218-12.703126zm0 0" fill="#3c5064"/><path d="m415.78125 512c-20.90625 0-37.917969-17.007812-37.917969-37.914062s17.011719-37.914063 37.917969-37.914063c20.902344 0 37.914062 17.007813 37.914062 37.914063s-17.011718 37.914062-37.914062 37.914062zm0-50.617188c-7.003906 0-12.703125 5.699219-12.703125 12.703126 0 7.003906 5.699219 12.699218 12.703125 12.699218s12.699219-5.695312 12.699219-12.699218c0-7.003907-5.695313-12.703126-12.699219-12.703126zm0 0" fill="#3c5064"/><path d="m308.554688 310.402344c-3.210938 0-6.421876-1.21875-8.882813-3.660156l-123.582031-122.632813c-4.941406-4.90625-4.972656-12.886719-.070313-17.828125 4.90625-4.941406 12.886719-4.972656 17.828125-.070312l123.585938 122.636718c4.941406 4.902344 4.972656 12.886719.070312 17.828125-2.464844 2.484375-5.707031 3.726563-8.949218 3.726563zm0 0" fill="#c8e6eb"/><path d="m26.929688 511.335938c-13.167969-3.117188-21.316407-16.320313-18.199219-29.488282l22.074219-93.25v-96.960937c0-13.535157 10.96875-24.503907 24.5-24.503907 13.535156 0 24.503906 10.96875 24.503906 24.503907v99.820312c0 1.902344-.21875 3.796875-.65625 5.644531l-22.734375 96.035157c-3.105469 13.125-16.277344 21.324219-29.488281 18.199219zm0 0" fill="#ba6746"/><path d="m105.679688 488.535156-4.292969-100.699218-23.820313-89.925782c-3.464844-13.082031 4.328125-26.496094 17.410156-29.960937 13.082032-3.464844 26.496094 4.332031 29.960938 17.410156l24.503906 92.496094c.453125 1.710937.71875 3.464843.796875 5.234375l4.402344 103.359375c.574219 13.519531-9.917969 24.945312-23.4375 25.523437-13.667969.566406-24.953125-10.050781-25.523437-23.4375zm0 0" fill="#ba6746"/><path d="m128.960938 121.890625c-2.285157-12.496094-12.417969-21.53125-24.191407-21.53125-15.167969 0-25.832031 0-42.664062 0-11.800781 0-21.902344 9.007813-24.195313 21.53125l-37.710937 206.101563c-.609375 3.328124.191406 6.777343 2.183593 9.402343 1.992188 2.625 4.964844 4.15625 8.105469 4.15625h145.898438c3.140625 0 6.113281-1.523437 8.105469-4.148437 1.992187-2.625 2.792968-6.078125 2.179687-9.410156zm0 0" fill="#ffda52"/><path d="m143.570312 42.320312c0 23.371094-18.945312 42.316407-42.316406 42.316407-23.375 0-42.320312-18.945313-42.320312-42.316407 0-23.375 18.945312-42.320312 42.320312-42.320312 23.371094 0 42.316406 18.945312 42.316406 42.320312zm0 0" fill="#ba6746"/><path d="m212.484375 204.175781h-80.371094c-4.941406 0-9.695312-1.910156-13.265625-5.328125l-17.613281-16.875.019531-29.859375 27.96875 3.558594 10.59375 10.148437h72.667969c10.589844 0 19.175781 8.585938 19.175781 19.179688.003906 10.589844-8.582031 19.175781-19.175781 19.175781zm0 0" fill="#ba6746"/><path d="m129.222656 155.671875-41.9375-40.179687c-7.648437-7.324219-19.785156-7.066407-27.113281.582031-7.328125 7.648437-7.070313 19.789062.578125 27.117187l40.484375 38.785156zm0 0" fill="#f2c41b"/></svg>