<?xml version="1.0" encoding="iso-8859-1"?>
<!-- Generator: Adobe Illustrator 19.0.0, SVG Export Plug-In . SVG Version: 6.00 Build 0)  -->
<svg version="1.1" id="Capa_1" xmlns="http://www.w3.org/2000/svg" xmlns:xlink="http://www.w3.org/1999/xlink" x="0px" y="0px"
	 viewBox="0 0 511.984 511.984" style="enable-background:new 0 0 511.984 511.984;" xml:space="preserve">
<path style="fill:#23274A;" d="M315.13,511.984H162.825c-9.736,0-18.893-4.625-24.675-12.459c-5.78-7.835-7.496-17.949-4.621-27.252
	l41.464-134.37l3.756-11.298c4.999-16.18,22.034-25.51,38.209-20.514c16.179,4.999,25.245,22.165,20.245,38.345l-32.816,106.225
	h110.742c16.934,0,30.661,13.727,30.661,30.661C345.792,498.257,332.065,511.984,315.13,511.984z"/>
<path style="fill:#283162;" d="M392.767,511.984H240.462c-9.736,0-18.893-4.625-24.675-12.459
	c-5.78-7.835-7.496-17.949-4.621-27.252l38.282-124.614c4.999-16.18,22.171-25.242,38.346-20.245
	c16.179,4.999,25.243,22.165,20.245,38.345l-26.014,84.902h110.742c16.934,0,30.661,13.727,30.661,30.661
	C423.429,498.257,409.702,511.984,392.767,511.984z"/>
<path style="fill:#EDB59E;" d="M464.194,242.311l-61.495-74.205c-9.391-11.332-21.736-19.775-35.702-24.416
	c-12.492-4.153-102.127-33.949-110.251-36.65c-18.992-6.313-39.484-5.227-57.705,3.062l-76.224,34.681l-55.105-0.545
	c-14.175-0.11-25.664,11.187-25.803,25.297c-0.14,14.111,11.186,25.664,25.297,25.803l60.776,0.602
	c0.085,0.001,0.169,0.001,0.253,0.001c3.649,0,7.258-0.782,10.582-2.294l81.387-37.031c4.984-2.267,10.447-2.993,15.777-2.181
	l-60.989,183.468l128.431,42.693l18.44-55.472l130.517-42.196C469.541,277.379,475.715,256.214,464.194,242.311z M341.867,264.95
	l21.389-64.343c0.03,0.037,0.065,0.071,0.095,0.107l37.444,45.184L341.867,264.95z"/>
<path style="fill:#DD3E3E;" d="M341.867,264.95l21.389-64.343c0.03,0.037,0.065,0.071,0.095,0.107l32.647,39.396l44.622-26.243
	l-37.922-45.76c-9.391-11.332-21.736-19.775-35.702-24.416c-3.471-1.154-12.905-4.29-24.887-8.274
	c-3.444,9.589-13.332,16.709-23.586,16.709c-13.943,0-24.268-11.396-24.872-24.872c-0.118-2.631,0.28-5.182,1.072-7.59
	c-18.854-6.267-34.769-11.558-37.976-12.624c-18.992-6.313-39.484-5.227-57.705,3.062l-46.1,20.974l22.627,45.848l44.636-20.309
	c4.984-2.267,10.447-2.993,15.777-2.181l-60.989,183.468l128.431,42.693l18.44-55.472L341.867,264.95z"/>
<circle style="fill:#EDB59E;" cx="339.184" cy="56.8" r="56.8"/>
<path style="fill:#783C28;" d="M265.707,295.337c4.814,0,9.581-2.134,12.78-6.218c5.525-7.052,4.286-17.246-2.766-22.771
	L78.189,111.592c-7.05-5.524-17.246-4.286-22.772,2.766c-5.525,7.052-4.286,17.247,2.766,22.772l197.531,154.756
	C258.682,294.209,262.207,295.337,265.707,295.337z"/>
<path style="fill:#B48255;" d="M237.434,342.266c-1.252-16.425-13.603-29.881-29.868-32.487c-6.968-1.116-13.501-3.826-19.14-8.244
	c-22.002-17.237-22.042-53.924-0.091-81.944s57.583-36.76,79.584-19.523c5.638,4.417,9.832,10.111,12.585,16.61
	c6.434,15.197,22.414,23.946,38.69,21.225c17.531-2.93,34.694,0.445,48.116,10.96c29.814,23.358,29.869,73.072,0.123,111.041
	c-29.746,37.968-78.029,49.813-107.843,26.455C246.169,375.845,238.785,359.989,237.434,342.266z"/>
<g>
	<circle style="fill:#501E0F;" cx="254.912" cy="270.648" r="21.178"/>
	<path style="fill:#501E0F;" d="M311.645,355.759l39.48-50.393c4.42-5.641,3.43-13.797-2.213-18.218
		c-5.641-4.42-13.797-3.43-18.218,2.213l-39.48,50.393c-4.42,5.641-3.43,13.797,2.213,18.218
		C299.083,362.402,307.236,361.388,311.645,355.759z"/>
	<path style="fill:#501E0F;" d="M65.975,166.098c3.852,0,7.665-1.708,10.224-4.975l29.599-37.781
		c4.42-5.641,3.43-13.797-2.213-18.218c-5.64-4.42-13.796-3.43-18.218,2.213l-29.599,37.781c-4.42,5.641-3.43,13.797,2.213,18.218
		C60.355,165.195,63.176,166.098,65.975,166.098z"/>
	<path style="fill:#501E0F;" d="M90.491,185.305c3.852,0,7.663-1.706,10.224-4.974l29.599-37.78
		c4.42-5.641,3.43-13.797-2.213-18.218c-5.642-4.42-13.797-3.43-18.218,2.213l-29.599,37.78c-4.42,5.641-3.43,13.797,2.213,18.218
		C84.872,184.402,87.691,185.305,90.491,185.305z"/>
</g>
<path style="fill:#EDB59E;" d="M400.795,245.898l-99.625,32.208c-13.427,4.341-20.792,18.746-16.452,32.173
	c3.497,10.816,13.522,17.697,24.307,17.697c2.605,0,5.254-0.402,7.866-1.245l135.489-43.804c8.062-2.607,14.307-9.041,16.674-17.176
	c1.949-6.704,1.051-13.841-2.348-19.797c0,0-0.895-1.684-2.513-3.644c-5.872-7.111-23.573-28.445-23.573-28.445l-44.622,26.243
	L400.795,245.898z"/>
<g>
</g>
<g>
</g>
<g>
</g>
<g>
</g>
<g>
</g>
<g>
</g>
<g>
</g>
<g>
</g>
<g>
</g>
<g>
</g>
<g>
</g>
<g>
</g>
<g>
</g>
<g>
</g>
<g>
</g>
</svg>
