<?xml version="1.0" encoding="iso-8859-1"?>
<!-- Generator: Adobe Illustrator 19.0.0, SVG Export Plug-In . SVG Version: 6.00 Build 0)  -->
<svg version="1.1" id="Capa_1" xmlns="http://www.w3.org/2000/svg" xmlns:xlink="http://www.w3.org/1999/xlink" x="0px" y="0px"
	 viewBox="0 0 512 512" style="enable-background:new 0 0 512 512;" xml:space="preserve">
<path style="fill:#3A4069;" d="M354.334,431.78c-4.605,0-9.178-1.272-13.185-3.76c-6.498-4.034-10.79-10.82-11.652-18.421
	l-10.841-95.618c-1.555-13.716,8.304-26.097,22.021-27.652c13.727-1.551,26.098,8.305,27.652,22.021l7.276,64.173l86.609-31.286
	c12.983-4.69,27.311,2.034,32.002,15.017c4.689,12.983-2.034,27.311-15.017,32.002l-116.373,42.037
	C360.069,431.288,357.196,431.78,354.334,431.78z"/>
<path style="fill:#464D7F;" d="M249.865,512c-11.485,0-21.827-7.964-24.391-19.643l-25.254-115.061
	c-1.9-8.653,0.924-17.666,7.421-23.69l78.067-72.375c10.122-9.384,25.938-8.786,35.324,1.337
	c9.385,10.123,8.787,25.939-1.337,35.324l-67.58,62.653l22.189,101.093c2.96,13.484-5.571,26.814-19.055,29.774
	C253.442,511.81,251.638,512,249.865,512z"/>
<g>
	<circle style="fill:#EDB59E;" cx="241.783" cy="72.256" r="43.17"/>
	<path style="fill:#EDB59E;" d="M484.602,75.875c-8.31-7.954-21.497-7.667-29.451,0.644l-54.308,56.735l-63.226-18.566
		c-11.512-3.379-23.704-3.461-35.259-0.235l-58.072,16.212c-0.002,0.001-0.004,0.001-0.007,0.002l-33.149,9.254
		c-15.715,4.386-29.072,14.462-37.609,28.367l-35.733,58.199l-72.3,47.959c-9.586,6.359-12.203,19.286-5.844,28.872
		c4.01,6.045,10.63,9.317,17.377,9.317c3.954,0,7.953-1.125,11.495-3.474l76.134-50.5c2.524-1.675,4.653-3.879,6.237-6.46
		l38.139-62.118c2.336-3.805,5.697-6.785,9.67-8.665l42.382,151.809l106.268-29.667l-41.578-148.929
		c0.038,0.011,0.076,0.019,0.114,0.029l75.382,22.136c1.935,0.569,3.909,0.845,5.867,0.845c5.599-0.001,11.061-2.261,15.048-6.428
		l63.068-65.887C493.202,97.015,492.913,83.83,484.602,75.875z"/>
</g>
<path style="fill:#313438;" d="M372.012,168.207l10.895-40.219l-45.289-13.299c-11.512-3.379-23.704-3.461-35.259-0.235
	l-21.438,5.985c0.633,2.065,1.022,4.234,1.122,6.468c0.569,12.696-11.212,23.509-23.509,23.509
	c-11.019,0-19.643-7.531-22.509-17.444l-24.893,6.949c-15.715,4.386-29.072,14.462-37.609,28.367l-23.615,38.463l34.105,24.072
	l25.012-40.738c2.336-3.805,5.697-6.785,9.67-8.665l42.382,151.809l106.268-29.667l-41.578-148.929
	c0.038,0.011,0.076,0.019,0.114,0.029L372.012,168.207z"/>
<g>
	<path style="fill:#8C1E16;" d="M271.628,8.438c-1.714-6.138-8.078-9.723-14.215-8.011L191.214,18.91
		c-6.138,1.714-9.723,8.078-8.011,14.215l12.07,43.233l88.424-24.685L271.628,8.438z"/>
	<path style="fill:#8C1E16;" d="M385.75,233.597l-164.916,41.474l-129.549-21.05c0.697-4.747-2.538-9.191-7.29-9.964l-62.091-10.089
		c-2.158-0.351-4.285,0.792-5.182,2.786c-0.899,1.993-0.346,4.343,1.347,5.727l61.045,49.931c1.081,0.884,2.552,1.124,3.858,0.63
		c1.306-0.495,2.249-1.649,2.473-3.027l1.55-9.542l124.115,20.167l164.633,105.183c4.061,2.594,9.297,2.425,13.182-0.426
		c3.884-2.851,5.617-7.796,4.362-12.447l-19.318-71.535c-5.279-19.547,0.294-40.425,14.611-54.74l10.165-10.165
		c4.346-4.345,5.256-11.057,2.224-16.403C397.936,234.763,391.709,232.098,385.75,233.597z"/>
</g>
<path style="fill:#DD3E3E;" d="M385.75,233.597l-164.916,41.474l-129.549-21.05c0.697-4.747-2.538-9.191-7.29-9.964l-62.091-10.089
	c-2.158-0.351-4.285,0.792-5.182,2.786c-0.899,1.993-0.346,4.343,1.347,5.727l61.045,49.931c1.081,0.884,2.552,1.124,3.858,0.63
	c1.306-0.495,2.249-1.649,2.473-3.027l1.55-9.542l124.115,20.167l164.633,105.183c4.061,2.594,9.297,2.425,13.182-0.426
	c3.884-2.851,5.617-7.796,4.362-12.447l-19.318-71.535c-5.279-19.547,0.294-40.425,14.611-54.74l10.165-10.165
	c4.346-4.345,5.256-11.057,2.224-16.403C397.936,234.763,391.709,232.098,385.75,233.597z M332.034,283.483l-7.491,46.107
	c-0.523,3.218-2.496,5.84-5.142,7.305c-1.935,1.073-4.231,1.526-6.585,1.144c-5.571-0.905-9.354-6.155-8.449-11.728l7.491-46.106
	c0.905-5.571,6.155-9.354,11.728-8.449C329.157,272.66,332.94,277.911,332.034,283.483z M357.461,280.439
	c-5.348,2.962-12.085,1.027-15.046-4.32c-2.962-5.348-1.028-12.085,4.32-15.046c5.348-2.961,12.085-1.027,15.046,4.321
	C364.743,270.74,362.808,277.478,357.461,280.439z"/>
<path style="fill:#8C1E16;" d="M16.719,236.754c-0.899,1.993-0.346,4.343,1.347,5.727l61.046,49.931
	c1.081,0.884,2.552,1.124,3.858,0.63c1.306-0.495,2.249-1.649,2.473-3.027l1.55-9.54l4.291-26.453
	c0.698-4.747-2.538-9.191-7.29-9.964l-62.091-10.089C19.743,233.618,17.617,234.76,16.719,236.754z"/>
<path style="fill:#DD3E3E;" d="M186.345,81.876c-4.841,0-9.285-3.201-10.651-8.092c-1.642-5.885,1.796-11.988,7.682-13.631
	l103.17-28.803c5.887-1.645,11.988,1.796,13.631,7.681c1.643,5.886-1.796,11.989-7.681,13.632L189.325,81.465
	C188.331,81.742,187.329,81.876,186.345,81.876z"/>
<g>
</g>
<g>
</g>
<g>
</g>
<g>
</g>
<g>
</g>
<g>
</g>
<g>
</g>
<g>
</g>
<g>
</g>
<g>
</g>
<g>
</g>
<g>
</g>
<g>
</g>
<g>
</g>
<g>
</g>
</svg>
