<svg id="Layer_1" enable-background="new 0 0 512.108 512.108" height="512" viewBox="0 0 512.108 512.108" width="512" xmlns="http://www.w3.org/2000/svg"><g><g><g><path d="m471.19 133.342 40.918-75.71v-54.831c-32.002 0-32.002 21.933-64.004 21.933s-32.002-21.933-64.004-21.933c-32.001 0-32.001 21.933-64.001 21.933s-32-21.933-63.999-21.933c-31.998 0-31.998 21.933-63.996 21.933-31.999 0-31.999-21.933-63.999-21.933s-32 21.933-64 21.933c-31.998 0-31.998-21.933-63.997-21.933v54.831l80.316 75.71z" fill="#afe6ff"/><path d="m512.108 438.053v-380.421c-32.002 0-32.002 21.933-64.004 21.933s-32.002-21.933-64.004-21.933c-32.001 0-32.001 21.933-64.001 21.933s-32-21.933-63.999-21.933c-31.998 0-31.998 21.933-63.996 21.933-31.999 0-31.999-21.933-63.999-21.933s-32 21.933-64 21.933c-31.998 0-31.998-21.933-63.997-21.933v380.42h512z" fill="#73c8f0"/></g><g><path d="m483.132 502.307 28.868-46.414v-54.831c-32.002 0-32.002 21.933-64.004 21.933s-32.002-21.933-64.004-21.933c-32 0-32 21.933-64.001 21.933-32 0-32-21.933-63.999-21.933-31.998 0-31.998 21.933-63.996 21.933-31.999 0-31.999-21.933-63.999-21.933s-32 21.933-64 21.933c-31.998 0-31.998-21.933-63.997-21.933v54.831l56.664 46.415h426.468z" fill="#41b4e6"/><path d="m512 509.307v-53.415c-32.002 0-32.002 21.933-64.004 21.933s-32.002-21.933-64.004-21.933c-32 0-32 21.933-64.001 21.933-32 0-32-21.933-63.999-21.933-31.998 0-31.998 21.933-63.996 21.933-31.999 0-31.999-21.933-63.999-21.933s-32 21.933-64 21.933c-31.998 0-31.998-21.933-63.997-21.933v53.415z" fill="#0091c8"/></g></g><g><path d="m462.094 374.396-68.617-45.939-24.264-57.718 9.547-22.268c5.484-12.79-.439-27.604-13.229-33.088l-129.414-55.485-20.768 46.449-67.054-10.786-46.581-53.078c-7.821-8.914-21.388-9.797-30.3-1.976-8.913 7.821-9.797 21.387-1.976 30.3l51.468 58.647c3.167 3.608 7.451 6.051 12.168 6.939l65.002 12.227-.001.002 129.414 55.485c5.4 2.315 11.159 2.59 16.425 1.181l17.854 42.47c1.392 3.311 3.725 6.141 6.709 8.139l73.192 49.002c8.395 5.62 19.805 3.411 25.463-5.041 5.642-8.422 3.385-19.823-5.038-25.462z" fill="#373c41"/><g id="XMLID_5451_"><path d="m149.226 228.082c-.412 0-.824-.012-1.236-.036l-105.121-6.06c-11.838-.683-20.882-10.833-20.2-22.671.683-11.838 10.824-20.872 22.671-20.2l100.862 5.815 74.109-25.774c11.2-3.896 23.437 2.026 27.332 13.227 3.896 11.2-2.026 23.437-13.227 27.333l-78.138 27.175c-2.27.789-4.654 1.191-7.052 1.191z" fill="#50555a"/></g><ellipse cx="429.265" cy="256.281" fill="#ffb69e" rx="38" ry="38" transform="matrix(.773 -.634 .634 .773 -65.14 330.526)"/><g id="XMLID_1891_"><path d="m380.112 375.096-67.072-39.501c-5.99-3.528-9.473-10.137-8.997-17.073l6.261-91.182c.694-10.113 9.451-17.75 19.569-17.054 10.113.694 17.749 9.456 17.054 19.569l-5.484 79.865 57.298 33.745c8.735 5.144 11.646 16.395 6.501 25.13-5.158 8.759-16.42 11.632-25.13 6.501z" fill="#50555a"/></g><g><path d="m471.924 254.42-10.43-5.881c-10.529-5.937-23.876-2.214-29.813 8.314-5.937 10.529-2.214 23.876 8.315 29.813l10.43 5.881c2.051 1.156 4.652.431 5.808-1.62l17.31-30.699c1.157-2.051.432-4.651-1.62-5.808z" fill="#fff"/></g><g><path d="m447.479 297.774-10.43-5.881c-13.425-7.569-18.164-24.56-10.594-37.987 7.569-13.423 24.559-18.165 37.986-10.594l10.43 5.881c2.887 1.628 3.907 5.287 2.28 8.173-1.628 2.887-5.289 3.905-8.173 2.28l-10.43-5.881c-7.647-4.313-17.326-1.614-21.639 6.035-4.312 7.646-1.615 17.327 6.035 21.64l10.43 5.881c2.887 1.628 3.907 5.287 2.28 8.173-1.629 2.887-5.288 3.907-8.175 2.28z" fill="#0073aa"/></g><path d="m385.993 168.038-91.564-40.088c-13.264-5.807-28.725.238-34.533 13.502-5.807 13.264.238 28.725 13.502 34.532l91.564 40.088c13.264 5.807 28.725-.238 34.532-13.502 5.808-13.263-.237-28.724-13.501-34.532z" fill="#0073aa"/></g><g><path d="m428.8 262.116-40.417-22.139c-2.906-1.592-3.972-5.238-2.38-8.145 1.592-2.906 5.239-3.971 8.145-2.38l40.417 22.139c2.906 1.592 3.972 5.238 2.38 8.145-1.59 2.903-5.236 3.974-8.145 2.38z" fill="#0073aa"/></g></g></svg>