<svg id="Layer_1" enable-background="new 0 0 512 512" height="512" viewBox="0 0 512 512" width="512" xmlns="http://www.w3.org/2000/svg"><g><path d="m512 497.324v-47.391c-32.002 0-32.002 21.933-64.004 21.933s-32.002-21.933-64.004-21.933c-32.001 0-32.001 21.933-64.001 21.933s-32-21.933-63.999-21.933c-31.998 0-31.998 21.933-63.996 21.933-31.999 0-31.999-21.933-63.999-21.933s-32 21.933-64 21.933c-31.998 0-31.998-21.933-63.997-21.933v47.391z" fill="#73c8f0"/><ellipse cx="206.713" cy="383.504" fill="#ffda52" rx="217.384" ry="67.242" transform="matrix(.946 -.326 .326 .946 -113.629 88.23)"/><g id="XMLID_5424_"><g><path d="m239.093 279.777-34.661.974c-7.25 5.973-10.261 15.681-7.662 24.708l23.171 80.498c3.6 12.508 16.656 19.729 29.165 16.128 12.508-3.601 19.729-16.658 16.128-29.166l-18.891-65.628 17.077-14.067z" fill="#ffb69e"/></g></g><g id="XMLID_5423_"><g><path d="m138.659 258.138-20.734 10.75c-4.662 2.417-8.384 6.322-10.573 11.096l-54.413 118.615c-5.427 11.83-.236 25.819 11.594 31.246 11.864 5.443 25.837.198 31.246-11.594l51.034-111.25 26.789-13.889s-3.565-18.333-9.152-23.909c-6.08-6.066-25.791-11.065-25.791-11.065z" fill="#ffb69e"/></g></g><ellipse cx="181.692" cy="53.643" fill="#ffb69e" rx="38.957" ry="38.957" transform="matrix(.474 -.881 .881 .474 48.342 188.207)"/><g fill="#ffb69e"><path d="m234.652 74.244c-.23.018-.236.062-.089.125.268-.165.323-.219.089-.125z"/><path d="m393.991 163.082c4.979-9.514 1.301-21.262-8.214-26.24l-71.572-37.447c-2.35-1.229-4.927-1.965-7.572-2.162l-71.503-4.67c-6.783-.443-13.589.344-20.092 2.323l-21.999 6.695c-10.245 3.118-19.287 9.306-25.902 17.727l-44.852 57.094-60.872 25.189c-9.921 4.106-14.636 15.477-10.53 25.399 4.097 9.902 15.456 14.644 25.399 10.531l65.646-27.166c3.129-1.295 5.865-3.384 7.937-6.061l29.382-37.949 16.603 55.312 61.134 24.697 39.274-35.472-22.874-77.129 26.358 1.958 68.01 35.583c9.546 4.995 21.279 1.268 26.239-8.212z"/></g><g><path d="m195.849 221.659 1.774 5.909-58.964 30.57 34.657 34.657c.102.102.188.213.286.317l42.692-22.134-11.862 9.772 58.988 12.473 23.778-19.558c13.487-11.093 19.024-29.181 14.059-45.923l-5-16.858z" fill="#64afff"/></g><g fill="#73c8f0"><path d="m434.577 274.096c-.601.947-1.801 1.317-2.831.872s-1.584-1.572-1.306-2.659c5.896-23.11 19.158-65.638 38.366-72.987 13.337-5.103 21.007 26.137 4.762 37.724-13.846 9.875-24.957 14.928-38.991 37.05z"/><path d="m447.487 305.704c-1.097.127-2.128-.55-2.447-1.607s.165-2.192 1.149-2.693c13.344-6.792 33.639-15.329 43.542-10.421 7.758 3.844-3.008 20.108-14.851 17.634-8.911-1.862-15.271-4.319-27.393-2.913z"/></g></g></svg>