<svg height="512" viewBox="0 0 64 64" width="512" xmlns="http://www.w3.org/2000/svg"><g id="flat"><path d="m3 43a8 8 0 0 0 8 8h42a8 8 0 0 0 8-8z" fill="#3e8051"/><path d="m56 37h-48l2-4h44z" fill="#98b398"/><path d="m27 23h20v10h-20z" fill="#3e8051"/><path d="m23 25h4v8h-4z" fill="#296038"/><path d="m3 25h20v4h-20z" fill="#98b398"/><path d="m51 28-4 1v-6l4 1z" fill="#296038"/><path d="m35 19h10v4h-10z" fill="#296038"/><path d="m37 14h2v5h-2z" fill="#7d8d9c"/><path d="m31 23h4v6h-4z" fill="#b4ccb4"/><path d="m35 23h4v6h-4z" fill="#98b398"/><path d="m42 26h2v2h-2z" fill="#b4ccb4"/><path d="m42 30h2v3h-2z" fill="#b4ccb4"/><path d="m41 12h2v7h-2z" fill="#7d8d9c"/><path d="m8 37h48a5 5 0 0 1 5 5v1a0 0 0 0 1 0 0h-58a0 0 0 0 1 0 0v-1a5 5 0 0 1 5-5z" fill="#296038"/><path d="m25 49a6 6 0 0 0 6-6h-12a6 6 0 0 0 6 6z" fill="#394d5c"/><path d="m13 49a6 6 0 0 0 6-6h-12a6 6 0 0 0 6 6z" fill="#143441"/><path d="m51 49a6 6 0 0 0 6-6h-12a6 6 0 0 0 6 6z" fill="#394d5c"/><path d="m39 49a6 6 0 0 0 6-6h-12a6 6 0 0 0 6 6z" fill="#143441"/><g fill="#98b398"><path d="m12 43h2v3h-2z"/><path d="m24 43h2v3h-2z"/><path d="m38 43h2v3h-2z"/><path d="m50 43h2v3h-2z"/></g></g></svg>