<svg height="512" viewBox="0 0 64 64" width="512" xmlns="http://www.w3.org/2000/svg"><g id="flat"><path d="m3 47a8 8 0 0 0 8 8h42a8 8 0 0 0 8-8z" fill="#394d5c"/><path d="m3 43h58v4h-58z" fill="#cdeef6"/><path d="m57 43h-51l5-6h42z" fill="#92cdde"/><path d="m25 53a6 6 0 0 0 6-6h-12a6 6 0 0 0 6 6z" fill="#7bb8c6"/><path d="m13 53a6 6 0 0 0 6-6h-12a6 6 0 0 0 6 6z" fill="#7bb8c6"/><path d="m51 53a6 6 0 0 0 6-6h-12a6 6 0 0 0 6 6z" fill="#7bb8c6"/><path d="m39 53a6 6 0 0 0 6-6h-12a6 6 0 0 0 6 6z" fill="#7bb8c6"/><g fill="#92cdde"><path d="m12 47h2v3h-2z"/><path d="m24 47h2v3h-2z"/><path d="m38 47h2v3h-2z"/><path d="m50 47h2v3h-2z"/><path d="m25 33v-6l6-6h10a4 4 0 0 1 4 4v4a4 4 0 0 1 -4 4z"/></g><path d="m43 37h-18l4-4h10z" fill="#cdeef6"/><path d="m33 24h9v2h-9z" fill="#cdeef6"/><path d="m33 28h9v2h-9z" fill="#cdeef6"/><path d="m22.257 20.379h8.485v4.243h-8.485z" fill="#cdeef6" transform="matrix(.707 -.707 .707 .707 -8.148 25.328)"/><path d="m17.672 10.136h5.657v12.728h-5.657z" fill="#7bb8c6" transform="matrix(.707 -.707 .707 .707 -5.663 19.328)"/><path d="m21 37h-8v-4h3l5 2z" fill="#7bb8c6"/><path d="m38 37h4v6h-4z" fill="#5a6470"/><path d="m42 37h4v6h-4z" fill="#394d5c"/></g></svg>