<?xml version="1.0"?>
<svg xmlns="http://www.w3.org/2000/svg" viewBox="0 0 512 512" width="512" height="512"><g id="Filled_outline" data-name="Filled outline"><path d="M488,120l-15.01,12A66.634,66.634,0,0,0,448,184.01V200l-7.67,4.6A66.6,66.6,0,0,0,408,261.71V272l-2.46.82A66.593,66.593,0,0,0,360,336a120.019,120.019,0,0,0-72,24H224a120.019,120.019,0,0,0-72-24c0-.55-.01-1.09-.02-1.63s-.03-1.07-.06-1.6v-.09c-.03-.52-.06-1.03-.1-1.55-.07-.97-.16-1.94-.28-2.9-.03-.27-.06-.54-.1-.81-.04-.36-.09-.72-.15-1.09-.07-.53-.15-1.05-.25-1.58-.08-.53-.18-1.05-.29-1.57a66.576,66.576,0,0,0-44.29-50.36L104,272V261.71A66.6,66.6,0,0,0,71.67,204.6L64,200V184.01A66.634,66.634,0,0,0,39.01,132L24,120h96l72,72v64a16,16,0,0,0,16,16h96a16,16,0,0,0,16-16V192l72-72Z" style="fill:#404f66"/><path d="M488,120l-15.01,12A66.634,66.634,0,0,0,448,184.01V200l-7.67,4.6A66.6,66.6,0,0,0,408,261.71V272l-2.46.82A66.593,66.593,0,0,0,360,336a120.019,120.019,0,0,0-72,24H224a120.019,120.019,0,0,0-72-24c0-.54-.01-1.09-.02-1.63s-.03-1.07-.06-1.6v-.09c-.03-.52-.06-1.04-.1-1.55-.07-.97-.16-1.94-.28-2.9-.03-.27-.06-.54-.1-.81-.05-.37-.1-.73-.15-1.09-.08-.53-.16-1.06-.25-1.58s-.19-1.05-.29-1.57c31.72,1.28,83.96-1.99,137.25-28.44q7.98-3.96,16-8.65c49.36-28.95,97.97-79.38,130.34-166.09Z" style="fill:#3b495e"/><rect x="288" y="272" width="16" height="40" style="fill:#3b495e"/><polygon points="256 392 224 360 224 224 248 248 264 248 288 224 288 360 256 392" style="fill:#4d5e78"/><rect x="248" y="280" width="16" height="16"/><path d="M19,126.247l15.006,12.005A58.31,58.31,0,0,1,56,184.008V200a8,8,0,0,0,3.884,6.86l7.667,4.6A58.892,58.892,0,0,1,96,261.706V272a8,8,0,0,0,5.47,7.589l2.464.822A58.522,58.522,0,0,1,144,336a8,8,0,0,0,8,8,112.7,112.7,0,0,1,66.8,22.11l31.547,31.547a8,8,0,0,0,11.314,0L293.2,366.11A112.7,112.7,0,0,1,360,344a8,8,0,0,0,8-8,58.522,58.522,0,0,1,40.067-55.589l2.463-.822A8,8,0,0,0,416,272V261.706a58.892,58.892,0,0,1,28.449-50.246l7.667-4.6A8,8,0,0,0,456,200V184.008a58.31,58.31,0,0,1,21.992-45.756L493,126.247A8,8,0,0,0,488,112H392a8,8,0,0,0-5.657,2.343l-72,72A8,8,0,0,0,312,192v64a8.009,8.009,0,0,1-8,8h-8V224a8,8,0,0,0-13.657-5.657L260.686,240h-9.372l-21.657-21.657A8,8,0,0,0,216,224v40h-8a8.009,8.009,0,0,1-8-8V192a8,8,0,0,0-2.343-5.657l-72-72A8,8,0,0,0,120,112H24a8,8,0,0,0-5,14.247ZM296,280h8a24.027,24.027,0,0,0,24-24V195.313L395.313,128h70.009A74.195,74.195,0,0,0,440,184.008V192H352v16h70.861a75.066,75.066,0,0,0-22.831,51.881l-44.879-19.234-6.3,14.706,39.173,16.789A74.49,74.49,0,0,0,355.586,313.1L342.86,291.884l-13.72,8.232,17.185,28.642A129.259,129.259,0,0,0,296,345.167Zm-64-8V243.314l10.343,10.343A8,8,0,0,0,248,256h16a8,8,0,0,0,5.657-2.343L280,243.314V356.686l-24,24-24-24ZM116.687,128,184,195.313V256a24.027,24.027,0,0,0,24,24h8v65.167a129.259,129.259,0,0,0-50.325-16.409l17.185-28.642-13.72-8.232L156.414,313.1a74.49,74.49,0,0,0-32.436-40.953l39.173-16.789-6.3-14.706L111.97,259.881A75.066,75.066,0,0,0,89.139,208H160V192H72v-7.992A74.195,74.195,0,0,0,46.678,128Z"/></g></svg>
