<svg height="512" viewBox="0 0 512 512" width="512" xmlns="http://www.w3.org/2000/svg"><g id="Filled_outline" data-name="Filled outline"><path d="m432 144v-48l56 24z" fill="#ffb531"/><path d="m432 91.27v124.73a184 184 0 0 1 -184 184h-166l67.07-101.76 106.93-162.24 52.14-81.11a67.274 67.274 0 0 1 123.86 36.38z" fill="#4db7e5"/><path d="m432 173.36v42.64a184 184 0 0 1 -184 184h-166l67.07-101.76h30.32a316.854 316.854 0 0 0 224.78-93.11 319.582 319.582 0 0 0 27.83-31.77z" fill="#48add9"/><circle cx="368" cy="88" fill="#313b4c" r="16"/><path d="m113.636 352-31.636 48-58 88h56l58.667-88 32-48z" fill="#2d7dbf"/><path d="m376 136a215.02 215.02 0 0 1 -22.46 96q-4.08 8.2-8.81 16-5.025 8.25-10.74 16-6.12 8.31-13.01 16a212.14 212.14 0 0 1 -15.88 16 217.077 217.077 0 0 1 -19.86 16 215.012 215.012 0 0 1 -125.24 40h-46.36l26.36-40 10.55-16 10.54-16 10.55-16 10.54-16 10.55-16 63.27-96z" fill="#348fd9"/><path d="m491.151 112.647-51.165-21.928a75.265 75.265 0 0 0 -138.576-40.151l-284.09 433.032a8 8 0 0 0 6.68 12.4h56a8 8 0 0 0 6.656-3.562l56.292-84.438h58.375l3.707 20.385a15.968 15.968 0 0 0 4.795 26.373l4.589 25.242h-22.414v16h128v-16h-41.323l-4.966-27.313a15.973 15.973 0 0 0 -5.091-28l-3.18-17.487c97.726-8.842 174.56-91.21 174.56-191.2v-66.725l51.151-21.922a8 8 0 0 0 0-14.706zm-331.151 231.353h-31.51l21.091-32h121.146a206.752 206.752 0 0 1 -110.727 32zm132.749-48h-132.622l10.545-16h139.265a210.04 210.04 0 0 1 -17.188 16zm31.091-32h-142.622l10.545-16h143.437q-5.308 8.274-11.36 16zm20.637-32h-142.168l58-88h107.539a206.552 206.552 0 0 1 -23.371 88zm-268.758 248h-36.865l79.091-120h37.773zm177.311-51.615a15.968 15.968 0 0 0 4.795 26.373l4.589 25.242h-31.737l-4.966-27.313a15.973 15.973 0 0 0 -5.091-28l-3.034-16.687h30.414c.441 0 .88-.014 1.32-.017zm170.97-212.385c0 97.047-78.953 176-176 176h-94.386l21.686-32.524a224 224 0 0 0 208.7-223.476 8 8 0 0 0 -8-8h-105.347l44.216-68.779a59.272 59.272 0 0 1 109.131 32.051zm16-84.132v-23.736l27.691 11.868z"/><path d="m368 64a24 24 0 1 0 24 24 24.027 24.027 0 0 0 -24-24zm0 32a8 8 0 1 1 8-8 8.009 8.009 0 0 1 -8 8z"/></g></svg>