<?xml version="1.0"?>
<svg xmlns="http://www.w3.org/2000/svg" viewBox="0 0 512 512" width="512" height="512"><g id="Filled_outline" data-name="Filled outline"><path d="M272,320H216v24l32,32v48l-8,24h64V358.63a16.008,16.008,0,0,0-4.69-11.32Z" style="fill:#b0b0ae"/><path d="M360,320H312l41.95,41.95a15.993,15.993,0,0,1,4.37,14.45L348.8,424,336,448h64l14.86-79.24Z" style="fill:#b0b0ae"/><path d="M488,350.63V448H424l8-16V384l-17.14-15.24L360,320H216V448H152l8-24V240H80L64,264v56a16,16,0,0,0,32,0v-8l32-8v20a52,52,0,0,1-104,0V196.5a64,64,0,0,1,21.19-47.57l40.56-36.5A63.973,63.973,0,0,1,128.56,96H234.47c1.88,0,3.75.06,5.63.18,1.8.11,3.6.28,5.39.51l47.49,5.93a88.345,88.345,0,0,0,22.04,0l41.99-5.25c28.46-3.55,56.89,6.66,75.98,27.36a83.465,83.465,0,0,1,7.98,10.07A87.553,87.553,0,0,1,456,184V312l27.31,27.31A16.008,16.008,0,0,1,488,350.63Z" style="fill:#c7c7c5"/><path d="M488,350.63V448H424l8-16V384l-17.14-15.24L360,320H216V448H152l8-24V273.71c98.84-26.92,200.61-72.39,272.99-148.98a83.465,83.465,0,0,1,7.98,10.07A87.553,87.553,0,0,1,456,184V312l27.31,27.31A16.008,16.008,0,0,1,488,350.63Z" style="fill:#bfbfbd"/><polygon points="80 240 64 264 24 304 64 304 96 280 128 240 80 240" style="fill:#e0e0de"/><path d="M76.71,384a59.608,59.608,0,0,0,42.146-18A61.169,61.169,0,0,0,136,323.1V304.216a8.287,8.287,0,0,0-1.4-4.742,8.011,8.011,0,0,0-8.542-3.235l-32,8A8,8,0,0,0,88,312v7.677A8.214,8.214,0,0,1,80.2,328a7.981,7.981,0,0,1-8.2-8V308l28.8-21.6a8,8,0,0,0,1.447-1.4l29.6-37H152V422.7l-7.59,22.768a8.017,8.017,0,0,0,2.857,8.987A8.283,8.283,0,0,0,152.22,456H216a8,8,0,0,0,8-8V363.314l16,16V422.7l-7.59,22.768a8.016,8.016,0,0,0,2.852,8.983,8.26,8.26,0,0,0,4.95,1.547H304a8,8,0,0,0,8-8V358.633a24.015,24.015,0,0,0-7.033-16.98L291.313,328h17.373l39.608,39.607a7.98,7.98,0,0,1,2.182,7.224l-9.289,46.444-12.14,22.763a8.25,8.25,0,0,0-.67,6.4A8.009,8.009,0,0,0,336,456h64a8,8,0,0,0,7.863-6.525l12.253-65.336L424,387.592v42.519l-7.053,14.107a8.262,8.262,0,0,0-.537,6.32A8.006,8.006,0,0,0,424,456h64a8,8,0,0,0,8-8V350.63a23.856,23.856,0,0,0-7.033-16.977L464,308.687V184a96.736,96.736,0,0,0-1.177-15.006A24.039,24.039,0,0,1,480,192v96a8,8,0,0,0,8,8h0a8,8,0,0,0,8-8V192a40.046,40.046,0,0,0-37.437-39.909A95.47,95.47,0,0,0,447.6,130.322c-20.108-29.765-55.2-45.435-91.581-40.89l-42,5.251a80.4,80.4,0,0,1-20.049,0s-50.318-6.246-51.747-6.36c-.714-.207-7.755-.322-7.755-.322H128.56A71.867,71.867,0,0,0,80.4,106.483l-40.559,36.5A72.008,72.008,0,0,0,16,196.507V323.063C16,356.628,43.147,384.382,76.71,384ZM90.388,274.209,61.333,296H43.313l26.344-26.343a8.052,8.052,0,0,0,1-1.219L84.281,248h27.073Zm203.264,78.758A7.956,7.956,0,0,1,296,358.63V440H251.1l4.49-13.47A8.027,8.027,0,0,0,256,424V376a8,8,0,0,0-2.343-5.657L224,340.686V328h44.687ZM393.36,440H349.333l6.525-12.235a8,8,0,0,0,.787-2.2l9.52-47.6a23.951,23.951,0,0,0-6.558-21.676L331.313,328h25.646l49.2,43.736ZM50.542,154.877l40.562-36.5A55.881,55.881,0,0,1,128.56,104H234.47c.275,0,.554.01.83.013L270.849,168l-35.556,64H184v16h56a8,8,0,0,0,6.993-4.115l40-72a8,8,0,0,0,0-7.77L254.649,105.9l37.333,4.662a96.328,96.328,0,0,0,24.03,0L358,105.309c30.382-3.794,59.624,9.225,76.341,33.971A79.55,79.55,0,0,1,448,184V312a8,8,0,0,0,2.343,5.657l27.309,27.31A7.956,7.956,0,0,1,480,350.63V440H436.944l2.211-4.422A7.994,7.994,0,0,0,440,432V384a8,8,0,0,0-2.685-5.979L368,316.408V272H352v40H224V272H208V440H163.1l4.49-13.47A8.027,8.027,0,0,0,168,424V240a8,8,0,0,0-8-8H140.944l10.211-20.422-14.31-7.156L123.056,232H91.1l4.49-13.47-15.18-5.06-7.662,22.986L57.783,258.9,32,284.686V196.5A56.077,56.077,0,0,1,50.542,154.877ZM32,312H56v8a24,24,0,0,0,48,0v-1.754l16-4V324a44,44,0,0,1-88,0Z"/><rect x="80" y="160" width="16" height="16"/><path d="M225.344,156.438l13.312-8.876-16-24A8,8,0,0,0,216,120H160v16h51.719Z"/></g></svg>
