<svg height="512" viewBox="0 0 512 512" width="512" xmlns="http://www.w3.org/2000/svg"><g id="Filled_outline" data-name="Filled outline"><path d="m248 392v96h32v-33.333-62.667z" fill="#f98500"/><path d="m216 392v64l-40-16v48h72v-96z" fill="#ffb531"/><path d="m128 40-24 16v16h56v-48h-6.111a28.944 28.944 0 0 0 -25.889 16z" fill="#f98500"/><path d="m408 304h-54.667l-139.133-75.889a32 32 0 0 1 -15.545-36.511l13.962-51.2a96 96 0 0 0 3.383-25.256v-59.144a32 32 0 0 0 -32-32h-24v48h16v38.4a48.011 48.011 0 0 1 -3.692 18.462l-24.484 58.761a153.714 153.714 0 0 0 -11.824 59.119 153.707 153.707 0 0 0 28.631 89.341l32.226 45.117a64 64 0 0 0 52.079 26.8h31.064a93.27 93.27 0 0 0 75.9-39.059l12.1-16.941a40 40 0 0 0 40-40z" fill="#dbdbd9"/><path d="m220.335 142.508a104.011 104.011 0 0 0 3.665-27.364v-59.144a40.045 40.045 0 0 0 -40-40h-30.111a36.725 36.725 0 0 0 -31.983 18.448l-22.344 14.9a8 8 0 0 0 -3.562 6.652v16a8 8 0 0 0 8 8h64v30.4a39.8 39.8 0 0 1 -3.077 15.385l-24.484 58.761a161.709 161.709 0 0 0 17.682 156.187l32.226 45.116a71.84 71.84 0 0 0 17.653 17.351v40.98l-29.029-11.612a8 8 0 0 0 -10.971 7.432v48a8 8 0 0 0 8 8h104a8 8 0 0 0 8-8v-72.329a101.493 101.493 0 0 0 74.409-42.08l9.841-13.778a48.063 48.063 0 0 0 43.75-47.813v-8a8 8 0 0 0 -8-8h-52.627l-137.338-74.912a23.916 23.916 0 0 1 -11.662-27.388zm-108.335-82.227 20.438-13.625a8 8 0 0 0 2.717-3.078 20.816 20.816 0 0 1 16.845-11.495v31.917h-40zm72 419.719v-28.184l29.029 11.612a8 8 0 0 0 10.971-7.428v-44.475a72.014 72.014 0 0 0 16 3.912v64.563zm72 0v-64h16v64zm-45.627-244.866 126.253 68.866-14.583 7.954-54.074-30.9-7.938 13.892 45.514 26.008-14.131 7.707-46.976-31.317-8.876 13.312 36.944 24.629a54.986 54.986 0 0 1 -45.171-13l-15.964-13.965a80.149 80.149 0 0 1 -27.371-60.32h-16a96.143 96.143 0 0 0 32.836 72.361l15.964 13.968a71.416 71.416 0 0 0 81.228 8.95l57.345-31.279h44.627a32.036 32.036 0 0 1 -32 32 8 8 0 0 0 -6.51 3.35l-12.1 16.941a85.443 85.443 0 0 1 -69.39 35.709h-31.064a56.113 56.113 0 0 1 -45.57-23.451l-32.225-45.116a145.7 145.7 0 0 1 -15.932-140.733l24.483-58.762a55.7 55.7 0 0 0 4.308-21.538v-38.4a8 8 0 0 0 -8-8h-8v-32h16a24.027 24.027 0 0 1 24 24v59.144a88.007 88.007 0 0 1 -3.1 23.154l-13.961 51.2a39.857 39.857 0 0 0 19.434 45.636z"/></g></svg>