<?xml version="1.0"?>
<svg xmlns="http://www.w3.org/2000/svg" viewBox="0 0 512 512" width="512" height="512"><g id="Filled_outline" data-name="Filled outline"><path d="M488,208.15A15.842,15.842,0,0,1,472.15,224H431.32A84.35,84.35,0,0,0,388,236a84.227,84.227,0,0,1-43.32,12h-2.97l22.1,30.93a32.013,32.013,0,0,1,1.4,35.06L352,336l-24-8,16-24-39.98-46.65a33.18,33.18,0,0,1-5.65-9.35H256a72.855,72.855,0,0,1-33.75,61.47L168,344v49.37A54.641,54.641,0,0,1,152,432H120l16-24V320l64-64V213.36A21.36,21.36,0,0,0,178.78,192c-10.84-.07-19.91,8.27-21.37,19l-.8,5.85-6.56,48.1A119.127,119.127,0,0,1,32,368H24c57.44,0,96-46.56,96-104V212a132.042,132.042,0,0,1,253.49-51.71,25.873,25.873,0,0,0,42.09,8.13L424,160a38.814,38.814,0,0,1,21.47-34.73L456,120l5.4,10.79a38.832,38.832,0,0,1-3.42,40.33L454.4,176l26.96,19.26A15.848,15.848,0,0,1,488,208.15Z" style="fill:#ffb531"/><path d="M150.05,264.95A119.127,119.127,0,0,1,32,368H24c57.44,0,96-46.56,96-104V227.94q18.24-5.07,36.61-11.09Z" style="fill:#ffa912"/><path d="M488,208.15A15.842,15.842,0,0,1,472.15,224H431.32A84.35,84.35,0,0,0,388,236a84.227,84.227,0,0,1-43.32,12h-2.97l22.1,30.93a32.013,32.013,0,0,1,1.4,35.06L352,336l-24-8,16-24-39.98-46.65a33.18,33.18,0,0,1-5.65-9.35H256a72.855,72.855,0,0,1-33.75,61.47L168,344v49.37A54.641,54.641,0,0,1,152,432H120l16-24V320l64-64V213.36a21.169,21.169,0,0,0-3.08-11.05c52.16-20.59,103.14-47.95,147.74-84.31a131.94,131.94,0,0,1,28.83,42.29,25.873,25.873,0,0,0,42.09,8.13L424,160a38.814,38.814,0,0,1,21.47-34.73L456,120l5.4,10.79a38.832,38.832,0,0,1-3.42,40.33L454.4,176l26.96,19.26A15.848,15.848,0,0,1,488,208.15Z" style="fill:#ffa912"/><path d="M486.01,188.75l-20.4-14.576a46.626,46.626,0,0,0,2.948-46.964l-5.4-10.79a8,8,0,0,0-10.734-3.574L441.9,118.112a46.524,46.524,0,0,0-25.774,38.451l-6.2,6.2A18.006,18.006,0,0,1,397.28,168a17.845,17.845,0,0,1-16.43-10.847A140.02,140.02,0,0,0,112,212v52c0,26.362-8.674,50.586-24.425,68.209C71.326,350.39,49.342,360,24,360a8,8,0,0,0,0,16h8a127.093,127.093,0,0,0,96-43.777v73.355l-14.656,21.984A8,8,0,0,0,120,440h32a8,8,0,0,0,5.657-2.343A63.068,63.068,0,0,0,176,393.37V348.391l50.543-32.171A80.414,80.414,0,0,0,263.61,256h29.746a41.3,41.3,0,0,0,4.587,6.56L333.982,304.6l-12.638,18.958a8,8,0,0,0,4.126,12.028l24,8a8,8,0,0,0,9.39-3.474l13.2-22.009a39.983,39.983,0,0,0-1.75-43.829l-13.622-19.071a92.276,92.276,0,0,0,35.42-12.345A76.353,76.353,0,0,1,431.32,232h40.83a23.844,23.844,0,0,0,13.86-43.25ZM472.15,216H431.32a92.356,92.356,0,0,0-47.434,13.139,76.265,76.265,0,0,1-36.523,10.812l10.294-10.294-11.314-11.314-16,16a8,8,0,0,0-.853,10.306L357.3,283.578a23.989,23.989,0,0,1,1.051,26.3l-9.9,16.506-7.976-2.658,10.19-15.285a8,8,0,0,0-.582-9.644l-39.983-46.647a25.3,25.3,0,0,1-.547-32.271L334.247,189,321.753,179l-24.7,30.878A41.077,41.077,0,0,0,288.236,240H264V192H248v56a64.545,64.545,0,0,1-30.046,54.721l-54.25,34.53A8,8,0,0,0,160,344v49.37A47,47,0,0,1,148.527,424H134.948l7.708-11.562A8.005,8.005,0,0,0,144,408V323.313l61.657-61.656A8,8,0,0,0,208,256V213.36A29.424,29.424,0,0,0,178.832,184h-.187a29.737,29.737,0,0,0-29.162,25.919l-7.359,53.949a111.193,111.193,0,0,1-30.689,62.73C122.21,308.531,128,286.922,128,264V212a124.024,124.024,0,0,1,238.129-48.577A33.845,33.845,0,0,0,397.28,184a34.119,34.119,0,0,0,23.957-9.923l8.42-8.42A8,8,0,0,0,432,160a30.647,30.647,0,0,1,17.05-27.576l3.376-1.69,1.819,3.634a30.71,30.71,0,0,1-2.715,32.02l-3.58,4.88a8,8,0,0,0,1.8,11.242l26.971,19.267A7.844,7.844,0,0,1,472.15,216ZM150.96,293.727a127.273,127.273,0,0,0,7.017-27.7l7.36-53.953A13.7,13.7,0,0,1,178.648,200h.084A13.386,13.386,0,0,1,192,213.36v39.327Z"/></g></svg>
