<?xml version="1.0"?>
<svg xmlns="http://www.w3.org/2000/svg" viewBox="0 0 512 512" width="512" height="512"><g id="Filled_outline" data-name="Filled outline"><path d="M477.06,332.35,464,328l-32-88H408l-9.6,19.2L432,360h56V347.53A16.014,16.014,0,0,0,477.06,332.35Z" style="fill:#e67007"/><path d="M240,288l-13.33,33.33L200,328l-4.97,19.88A16,16,0,0,1,179.51,360H160l8-56,40-8V224Z" style="fill:#e67007"/><path d="M198.46,168a79.99,79.99,0,0,0-77.61,60.6l-15.76,63.04A48,48,0,0,1,58.52,328H40a16,16,0,1,0,0,32H57.54a79.99,79.99,0,0,0,77.61-60.6l15.76-63.04A48,48,0,0,1,197.48,200H256V168Z" style="fill:#e67007"/><path d="M469.85,200.89a28.285,28.285,0,0,0-6.13-9.17L456,184l-.39-1.57a40.161,40.161,0,0,0-54.34-27.37,39.345,39.345,0,0,0-6.21,3.23l0,0-2.575-1.932a17.192,17.192,0,0,0-25.693,6.065h0a17.148,17.148,0,0,0-1.672,5.57l-.015,0H256a47.948,47.948,0,0,0-48,48v40l32,32-13.33,33.33L224,328v32h64V347.53a16.014,16.014,0,0,0-10.94-15.18L264,328l24-56-8-32h72l-32,96v24h56v-8a16,16,0,0,0-16-16l38.4-76.8L408,240h35.72a28.292,28.292,0,0,0,26.13-39.11Z" style="fill:#f98500"/><path d="M479.588,324.76l-9.391-3.128L443.422,248h.3a36.281,36.281,0,0,0,25.657-61.938l-6.155-6.154a48.163,48.163,0,0,0-65-32.245c-.876.361-1.736.758-2.589,1.171a25.178,25.178,0,0,0-36,10.013c-.189.379-.342.768-.511,1.153H198.46a87.865,87.865,0,0,0-85.371,66.659L97.329,289.7A39.942,39.942,0,0,1,58.52,320H40a24,24,0,1,0,0,48H57.54a87.865,87.865,0,0,0,85.371-66.659l15.76-63.041A39.942,39.942,0,0,1,197.48,208h3.1a56.464,56.464,0,0,0-.578,8v73.441l-33.569,6.714a8,8,0,0,0-6.35,6.713l-8,56A8,8,0,0,0,160,368h19.51a23.964,23.964,0,0,0,23.281-18.18L206.6,334.6l9.4-2.352V360a8,8,0,0,0,8,8h64a8,8,0,0,0,8-8V347.53a23.979,23.979,0,0,0-16.412-22.77l-4.809-1.6,20.574-48.007a8,8,0,0,0,.408-5.091L290.246,248H340.9l-28.489,85.47A8,8,0,0,0,312,336v24a8,8,0,0,0,8,8h56a8,8,0,0,0,8-8v-8a24.02,24.02,0,0,0-12.52-21.072l25.438-50.876,27.493,82.478A8,8,0,0,0,432,368h56a8,8,0,0,0,8-8V347.53A23.979,23.979,0,0,0,479.588,324.76ZM143.149,234.42l-15.76,63.041A71.889,71.889,0,0,1,57.54,352H40a8,8,0,0,1,0-16H58.52a55.917,55.917,0,0,0,54.331-42.42l15.76-63.041A71.889,71.889,0,0,1,198.46,176h18.367A55.85,55.85,0,0,0,205.4,192H197.48A55.917,55.917,0,0,0,143.149,234.42Zm77.61,80.142-22.7,5.677a8,8,0,0,0-5.82,5.821l-4.97,19.879A7.988,7.988,0,0,1,179.51,352H169.224l5.9-41.266,34.45-6.889A8,8,0,0,0,216,296V275.314l14.613,14.613ZM353.2,340.206A8,8,0,0,0,360,344a8.009,8.009,0,0,1,8,8H328V337.3l31.589-94.768A8,8,0,0,0,352,232H285.766l-6.177-18.53-15.178,5.06,15.174,52.8-22.938,53.523a8,8,0,0,0,4.825,10.741l13.054,4.348A8,8,0,0,1,280,347.53V352H232V329.542l15.428-38.571a8,8,0,0,0-1.771-8.628L216,252.687V216a39.947,39.947,0,0,1,40-40H357.7a25.124,25.124,0,0,0,10.487,15.075l11.372,7.581,8.876-13.312-11.373-7.581a9.192,9.192,0,1,1,10.615-15L403.2,174.4l9.6-12.8-1.524-1.143a32.123,32.123,0,0,1,36.57,23.9l.39,1.571a8,8,0,0,0,2.107,3.728l7.72,7.719A20.285,20.285,0,0,1,443.72,232H408a8,8,0,0,0-7.155,4.422l-48,96A8,8,0,0,0,353.2,340.206ZM480,352H437.766l-30.729-92.186L412.944,248H426.4l30.085,82.734a8,8,0,0,0,4.991,4.856l13.054,4.348A8,8,0,0,1,480,347.53Z"/></g></svg>
