<?xml version="1.0"?>
<svg xmlns="http://www.w3.org/2000/svg" viewBox="0 0 512 512" width="512" height="512"><g id="Filled_outline" data-name="Filled outline"><path d="M105.229,120.035C89.355,119.147,75.55,135.161,74.4,155.8c-.8,14.357,4.724,27.171,13.505,33.943l31.656-2.233c6.907-6.487,11.666-16.74,12.323-28.494C133.034,138.377,121.1,120.923,105.229,120.035Z" style="fill:#bfbfbd"/><path d="M488,332.64a81.744,81.744,0,0,1-.87,11.36,82.953,82.953,0,0,1-18.74,41.57A85.425,85.425,0,0,1,408,415.85c-1.67.1-3.36.15-5.05.15H311.76a95.759,95.759,0,0,1-42.09-9.73,93.9,93.9,0,0,1-13.76-8.2,95.242,95.242,0,0,1-12.03-10.19l-14.5-14.5a53.333,53.333,0,0,0-4.65-4.14A63.912,63.912,0,0,0,211.01,361c-10.73-4.81-22.88-7.26-35.01-8.63-5.38-.62-10.76-1.02-16-1.32-5.17-.3-10.21-.5-15-.72-5.5-.25-11.2-.55-17-.91-5.29-.34-10.65-.72-16-1.15-11.15-.9-22.28-2.02-32.62-3.36a8.406,8.406,0,0,1-5.27-2.81A8.5,8.5,0,0,1,80.49,328H192.24a95.723,95.723,0,0,1,35.68,6.89,93.353,93.353,0,0,1,14.38,7.21,95.04,95.04,0,0,1,17.82,14.02L271.6,367.6c.86.86,1.75,1.69,2.66,2.49A56.03,56.03,0,0,0,311.2,384H404c1.35,0,2.68-.05,4-.15A52.055,52.055,0,0,0,454.61,344a52.69,52.69,0,0,0,1.38-12.89c-.02-1.05-.07-2.08-.15-3.11a50.929,50.929,0,0,0-9.83-26.38A53.233,53.233,0,0,0,403.14,280H376V248h28a83.645,83.645,0,0,1,53.32,19.09,84.6,84.6,0,0,1,11.34,11.29A83.606,83.606,0,0,1,487.9,328C487.98,329.54,488.01,331.08,488,332.64Z" style="fill:#feb784"/><path d="M287.473,96h0a112.529,112.529,0,0,0-70.295,24.658L168,160h-1.454c4.113-15.722-.681-31.179-12.575-37.094-14.235-7.081-33.239,2.186-42.446,20.7a45.892,45.892,0,0,0-4.917,19.526,79.988,79.988,0,0,0-42.569,29.816l-35.42,48.7A24.149,24.149,0,0,0,24,255.852h0A24.147,24.147,0,0,0,48.147,280H400V208.527A112.527,112.527,0,0,0,287.473,96Z" style="fill:#cfcfcd"/><path d="M400,208.53V280H48.15a24.146,24.146,0,0,1-19.53-38.35l35.42-48.7a79.938,79.938,0,0,1,42.57-29.82,45.858,45.858,0,0,1,4.92-19.53c9.2-18.51,28.21-27.77,42.44-20.69,11.9,5.91,16.69,21.37,12.58,37.09H168l49.18-39.34A112.526,112.526,0,0,1,400,208.53Z" style="fill:#c7c7c5"/><path d="M400,208.53V280H48.15a24.117,24.117,0,0,1-5.86-.72c106.23-19.29,233.96-61.36,322.69-152.33A112.213,112.213,0,0,1,400,208.53Z" style="fill:#bfbfbd"/><path d="M469.057,266.942A91.342,91.342,0,0,0,408,240.1V208.53A120.532,120.532,0,0,0,287.47,88a120.96,120.96,0,0,0-75.287,26.413l-36.5,29.2c-.133-1.132-.3-2.256-.517-3.366-2.21-11.245-8.471-19.947-17.631-24.5s-19.875-4.3-30.177.725a44.585,44.585,0,0,0-4.1,2.291,31.583,31.583,0,0,0-17.574-6.7c-10.207-.58-19.963,3.891-27.447,12.57-6.967,8.083-11.165,19-11.818,30.722a54.467,54.467,0,0,0,2.554,20.072,87.363,87.363,0,0,0-11.4,12.828l-35.427,48.71A32.145,32.145,0,0,0,48.15,288H403.14a45.065,45.065,0,0,1,31.851,13.064,43.641,43.641,0,0,1,.122,62.048c-.075.076-.149.152-.22.23A43.736,43.736,0,0,1,404,376H311.2a47.681,47.681,0,0,1-33.943-14.058l-11.48-11.479A103.314,103.314,0,0,0,192.24,320H80.49a16.492,16.492,0,0,0-2.141,32.844c18.957,2.464,82.46,6.194,89.007,6.719,14.313,1.156,32.558,3.566,46.721,12.025a49.567,49.567,0,0,1,9.646,7.449l14.5,14.5A103.314,103.314,0,0,0,311.76,424h91.19a92.987,92.987,0,0,0,65.881-27.117A91.224,91.224,0,0,0,495.194,344H496V328h-.083A91.343,91.343,0,0,0,469.057,266.942ZM463.864,328a58.972,58.972,0,0,0-12.285-32.265L463.1,284.213A75.3,75.3,0,0,1,479.885,328Zm-12.077-55.1-11.575,11.574A60.784,60.784,0,0,0,408,272.206v-16.1A75.328,75.328,0,0,1,451.787,272.9ZM82.388,156.245c.459-8.23,3.286-15.751,7.963-21.175,4.163-4.83,9.289-7.35,14.441-7.042a14.766,14.766,0,0,1,6.155,1.742,56.142,56.142,0,0,0-6.585,10.271,55.049,55.049,0,0,0-5.3,17.139,87.045,87.045,0,0,0-16.223,7.762A39.884,39.884,0,0,1,82.388,156.245ZM376,272H217.371A24.042,24.042,0,0,1,240,256h32a8,8,0,0,0,8-8,64.072,64.072,0,0,1,64-64V168a80.117,80.117,0,0,0-79.6,72H240a40.068,40.068,0,0,0-39.195,32H129.371A24.042,24.042,0,0,1,152,256h32a8,8,0,0,0,8-8V224H176v16H152a40.068,40.068,0,0,0-39.195,32H48.15a16.139,16.139,0,0,1-13.06-25.645l35.427-48.709A71.743,71.743,0,0,1,99.767,174.1a38.184,38.184,0,0,0,3.783,9.91l13.978-7.785c-4.266-7.661-3.811-19.069,1.16-29.063,3.672-7.382,9.241-13.178,15.681-16.318,5.733-2.8,11.43-3.073,16.039-.78s7.826,7,9.056,13.262c1.382,7.03.12,14.968-3.552,22.351-4.157,8.357-10.766,14.685-18.136,17.361l5.463,15.039c11.191-4.064,21.032-13.276,27-25.275a57,57,0,0,0,2.76-6.559l49.179-39.34A104.907,104.907,0,0,1,287.47,104,104.533,104.533,0,0,1,392,208.53V272Zm16,136H344V392h48Zm16-16.147a59.458,59.458,0,0,0,32.391-12.148l11.176,11.176A76.884,76.884,0,0,1,408,407.819ZM223.824,341.842l-8.291,12.437c-12.879-6.044-27.079-8.623-39.533-9.97V336h16.24A87.923,87.923,0,0,1,223.824,341.842ZM80.133,336.833A.51.51,0,0,1,80,336.49a.491.491,0,0,1,.49-.49H112v4.241c-11.345-.924-22.074-2.028-31.6-3.266A.408.408,0,0,1,80.133,336.833Zm65.226,5.5c-5.826-.262-11.634-.577-17.359-.939V336h32v7.039c-3.79-.214-7.511-.384-11.152-.545Zm89.678,25.385a62.953,62.953,0,0,0-5.821-5.126l9.069-13.6a88.688,88.688,0,0,1,16.178,12.783l11.479,11.48c1.253,1.253,2.559,2.432,3.894,3.567L260.185,391.3a89.207,89.207,0,0,1-10.648-9.078ZM273.945,399.5l9.279-13.918A63.754,63.754,0,0,0,311.2,392H328v16H311.76A87.666,87.666,0,0,1,273.945,399.5ZM462.924,379.61,451.7,368.386A59.168,59.168,0,0,0,462.8,344h16.221A75.057,75.057,0,0,1,462.924,379.61Z"/><circle cx="96" cy="224" r="16"/></g></svg>
