<?xml version="1.0"?>
<svg xmlns="http://www.w3.org/2000/svg" viewBox="0 0 512 512" width="512" height="512"><g id="Filled_outline" data-name="Filled outline"><path d="M479.59,267.21a43.981,43.981,0,0,0-3.45,45.08L488,336l-24,64H408v-8a24.006,24.006,0,0,1,24-24l5.49-25.31-4.22.19c-.5.02-.99.03-1.49.03A33.511,33.511,0,0,1,400,320a163.369,163.369,0,0,1-60.83,11.55A181.329,181.329,0,0,1,272,318.4V336l-24,64H184v-8a24.006,24.006,0,0,1,24-24l8-32-23.72-55.35L192,280H160l-56,56-16.47-3.29A29.278,29.278,0,0,1,64,304a38.814,38.814,0,0,1-34.73-21.47L24,272H64l32-32V216H80a24.006,24.006,0,0,1-24-24V176l40,8h40l27.55-27.55a97.157,97.157,0,0,1,99.4-23.47L272,136H400a87.946,87.946,0,0,1,88,88v16.8a45.75,45.75,0,0,1-8.4,26.41Z" style="fill:#cfcfcd"/><path d="M479.59,267.21a43.981,43.981,0,0,0-3.45,45.08L488,336l-24,64H408v-8a24.006,24.006,0,0,1,24-24l5.49-25.31-4.22.19c-.5.02-.99.03-1.49.03A33.511,33.511,0,0,1,400,320a163.369,163.369,0,0,1-60.83,11.55A181.329,181.329,0,0,1,272,318.4V336l-24,64H184v-8a24.006,24.006,0,0,1,24-24l8-32-23.72-55.35c113.87-7.16,212.15-32.84,288.85-90.78A87.542,87.542,0,0,1,488,224v16.8a45.75,45.75,0,0,1-8.4,26.41Z" style="fill:#c7c7c5"/><polygon points="96 240 72 240 56 240 72 264 96 240" style="fill:#c7c7c5"/><path d="M400,128H273.3l-7.815-2.605a105.141,105.141,0,0,0-107.592,25.4L132.687,176h-35.9l-39.223-7.845A8,8,0,0,0,48,176v16a32.036,32.036,0,0,0,32,32h8v8H56a8,8,0,0,0-6.656,12.438l12.362,18.543L60.687,264H24a8,8,0,0,0-7.155,11.578l5.266,10.533a46.541,46.541,0,0,0,34.644,25.336,37.4,37.4,0,0,0,29.21,29.105l16.467,3.293a8,8,0,0,0,7.225-2.188L163.313,288h23.412l20.86,48.674-5.992,23.971A32.054,32.054,0,0,0,176,392v8a8,8,0,0,0,8,8h64a8,8,0,0,0,7.49-5.191l24-64A8,8,0,0,0,280,336v-6.152c38.712,12.9,79.185,13.01,115.818.254a41.8,41.8,0,0,0,31.751,20.589l-2.168,9.994A32.053,32.053,0,0,0,400,392v8a8,8,0,0,0,8,8h56a8,8,0,0,0,7.49-5.191l24-64a8,8,0,0,0-.335-6.387L483.3,308.711a35.911,35.911,0,0,1,2.773-36.809c.018-.023.034-.048.052-.072A53.4,53.4,0,0,0,496,240.8V224A96.108,96.108,0,0,0,400,128ZM70.948,248h5.739l-3.444,3.443ZM472,232a8.009,8.009,0,0,1-8-8v-8a24.028,24.028,0,0,0-24-24H424v16h16a8.009,8.009,0,0,1,8,8v8a23.988,23.988,0,0,0,31.52,22.787,37.44,37.44,0,0,1-6.4,15.728l-.053.073a51.881,51.881,0,0,0-4.074,53.278l10.3,20.592L458.456,392H416a16.019,16.019,0,0,1,16-16,8,8,0,0,0,7.818-6.3l5.492-25.31a8,8,0,0,0-8.174-9.689l-4.218.188A25.613,25.613,0,0,1,407.59,317.47l0-.011-.4-1.221A139.586,139.586,0,0,1,400,272H384a155.562,155.562,0,0,0,6.091,43.149c-34.753,11.972-73.379,11.19-110.091-2.26V272H264v62.55L242.456,392H192a16.019,16.019,0,0,1,16-16,8,8,0,0,0,7.761-6.06l8-32a8,8,0,0,0-.407-5.091L200,278.357V208H184v64H168V240H152v36.686l-50.63,50.629L89.1,324.862A21.333,21.333,0,0,1,72,304a8,8,0,0,0-8-8,30.657,30.657,0,0,1-27.031-16H64a8,8,0,0,0,5.657-2.343l8-8,24-24a7.978,7.978,0,0,0,.692-.8c.056-.072.109-.145.162-.218a8.208,8.208,0,0,0,.55-.874c.011-.021.019-.043.03-.064a7.907,7.907,0,0,0,.391-.889c.031-.084.062-.168.09-.253a8.042,8.042,0,0,0,.274-.992l0-.015a8.077,8.077,0,0,0,.125-1.01c.006-.089.011-.178.014-.267s.013-.18.013-.271V216a8,8,0,0,0-8-8H80a16.019,16.019,0,0,1-16-16v-6.241l30.431,6.086A8.026,8.026,0,0,0,96,192h40a8,8,0,0,0,5.657-2.343l27.549-27.549a89.146,89.146,0,0,1,91.219-21.535l9.045,3.016c.815.272,130.53.411,130.53.411a80.091,80.091,0,0,1,80,80A8.009,8.009,0,0,1,472,232Z"/></g></svg>
