<svg height="512" viewBox="0 0 512 512" width="512" xmlns="http://www.w3.org/2000/svg"><g id="Filled_outline" data-name="Filled outline"><path d="m448 264 24 64a59.785 59.785 0 0 1 -49.75-26.63l-9.55-14.32a12.653 12.653 0 0 0 -13.06-5.35c-27.15 5.52-55.78 38.3-175.64 38.3-56.72 0-94.81-2.47-120.15-5.48-39.1-4.63-47.85-10.52-47.85-10.52l-32-40s32-40 168-64l8.24-19.23a60.653 60.653 0 0 1 55.76-36.77l-6.32 50.58a16 16 0 0 0 11.28 17.31l44.61 13.38 91.14 27.34a12.741 12.741 0 0 0 3.64.54 12.609 12.609 0 0 0 11.79-8.18 95.416 95.416 0 0 1 75.86-60.97z" fill="#4d5e78"/><path d="m448 264 24 64a59.785 59.785 0 0 1 -49.75-26.63l-9.55-14.32a12.653 12.653 0 0 0 -13.06-5.35c-27.15 5.52-55.78 38.3-175.64 38.3-56.72 0-94.81-2.47-120.15-5.48 72.4-14.14 142.68-41.94 201.72-89.25l91.14 27.34a12.741 12.741 0 0 0 3.64.54 12.609 12.609 0 0 0 11.79-8.18 95.416 95.416 0 0 1 75.86-60.97z" fill="#485870"/><path d="m472 328a59.785 59.785 0 0 1 -49.75-26.63l-9.55-14.32a12.653 12.653 0 0 0 -13.06-5.35c-27.15 5.52-55.78 38.3-175.64 38.3-56.72 0-94.81-2.47-120.15-5.48-39.1-4.63-47.85-10.52-47.85-10.52l-32-40h424z" fill="#dbdbd9"/><path d="m266.473 320.7a50.514 50.514 0 0 0 26.287 24.517 31.519 31.519 0 0 0 11.24 2.534v-33.936c-11.317 2-24.085 3.635-38.607 4.723z" fill="#c7c7c5"/><path d="m200 296h-56l36.354 46.741a65.429 65.429 0 0 0 51.646 25.259z" fill="#dbdbd9"/><path d="m376 214.4a38.624 38.624 0 0 0 -27.314 11.314l-9.609 9.609 36.923 11.077z" fill="#3b495e"/><path d="m348.686 309.492a38.624 38.624 0 0 0 27.314 11.314v-30.06a301.73 301.73 0 0 1 -32.756 13.305z" fill="#c7c7c5"/><path d="m472 328a59.785 59.785 0 0 1 -49.75-26.63l-9.55-14.32a12.653 12.653 0 0 0 -13.06-5.35c-27.15 5.52-55.78 38.3-175.64 38.3-56.72 0-94.81-2.47-120.15-5.48 49.83-9.73 98.66-25.94 143.5-50.52h200.65z" fill="#cfcfcd"/><path d="m494.49 179.322a8 8 0 0 0 -7.622-3.242 103.4 103.4 0 0 0 -82.221 66.077 4.625 4.625 0 0 1 -5.634 2.795l-15.013-4.504v-26.048a8 8 0 0 0 -8-8 46.322 46.322 0 0 0 -32.971 13.657l-6.23 6.23-73.543-22.063a7.978 7.978 0 0 1 -5.64-8.655l6.322-50.577a8 8 0 0 0 -7.938-8.992 68.585 68.585 0 0 0 -63.11 41.614l-6.544 15.272c-133.832 24.33-167.224 64.405-168.593 66.114a8 8 0 0 0 0 9.994l32 40a7.984 7.984 0 0 0 1.781 1.641c8.348 5.617 41.156 13.1 106.174 16.017l16.331 21a72.958 72.958 0 0 0 57.961 28.348 8 8 0 0 0 7.311-11.249l-16.335-36.751h1.024c13.3 0 25.5-.4 36.71-1.109a58.171 58.171 0 0 0 29.09 25.755 39 39 0 0 0 14.2 3.1 8 8 0 0 0 8-8v-27.246a278.878 278.878 0 0 0 29.072-7.31l1.957 1.957a46.326 46.326 0 0 0 32.971 13.66 8 8 0 0 0 8-8v-24.924c6.581-2.987 12.1-5.3 17.232-6.342a4.636 4.636 0 0 1 4.811 1.945l9.551 14.326a67.651 67.651 0 0 0 56.406 30.188 8 8 0 0 0 7.49-10.809l-22.774-60.734 38.439-76.879a8 8 0 0 0 -.665-8.256zm-140.146 52.049a30.436 30.436 0 0 1 13.656-7.921v12.2l-13.8-4.138zm-58.344 106.52-.283-.112a41.415 41.415 0 0 1 -16.761-12.4q8.993-.93 17.044-2.131zm62.275-30.746c3.451-1.353 6.681-2.7 9.725-4.023v8.635a30.266 30.266 0 0 1 -9.725-4.612zm82.57-46.723a8 8 0 0 0 -.335 6.387l19.414 51.772a51.682 51.682 0 0 1 -31.018-21.644l-9.551-14.326a20.569 20.569 0 0 0 -21.308-8.75c-8.032 1.632-15.918 5.259-25.049 9.46-24.824 11.42-62.34 28.679-148.998 28.679q-4.138 0-8.142-.018l-8.547-19.231-14.622 6.5 26.354 59.295a57.039 57.039 0 0 1 -32.375-20.714l-36.354-46.741-12.628 9.822 7.048 9.063c-60.018-3.489-79.281-10.4-83.549-12.3l-1.34-1.676h20.155v-16h-32.955l-12.23-15.287c4.7-3.944 13.338-10.239 27.579-17.491 40.3-20.523 93.478-32.723 131-39.344a8 8 0 0 0 5.963-4.727l8.243-19.234a52.594 52.594 0 0 1 39.238-31.117l-5.1 40.787a23.933 23.933 0 0 0 16.919 25.964l135.758 40.728a20.663 20.663 0 0 0 25.212-12.5 87.408 87.408 0 0 1 53.554-52.026z"/><path d="m200 256h152v16h-152z"/><path d="m72 256h16v16h-16z"/><path d="m104 240h16v32h-16z"/><path d="m136 240h16v32h-16z"/><path d="m168 240h16v32h-16z"/></g></svg>