<?xml version="1.0"?>
<svg xmlns="http://www.w3.org/2000/svg" viewBox="0 0 512 512" width="512" height="512"><g id="Filled_outline" data-name="Filled outline"><path d="M200,396a44,44,0,0,1-44,44H96V400.42a23.948,23.948,0,0,1,5.26-14.99l13.53-16.92A44.018,44.018,0,0,1,149.15,352H156A44,44,0,0,1,200,396Z" style="fill:#b0b0ae"/><path d="M312,396a44,44,0,0,0,44,44h60V400.42a23.948,23.948,0,0,0-5.26-14.99l-13.53-16.92A44.018,44.018,0,0,0,362.85,352H356A44,44,0,0,0,312,396Z" style="fill:#b0b0ae"/><path d="M256,256l158.71-91.631c27.553-15.908,32.772-53.657,10.354-76.234q-.6-.6-1.2-1.2c-22.577-22.418-60.326-17.2-76.234,10.354L256,256Z" style="fill:#4d5e78"/><path d="M194.974,25.638q-.84.222-1.679.45c-30.621,8.335-44.83,43.657-28.962,71.14L256,256V72.677A48.633,48.633,0,0,0,194.974,25.638Z" style="fill:#4d5e78"/><path d="M318.705,26.088q-.838-.228-1.679-.45A48.633,48.633,0,0,0,256,72.677V256L347.667,97.228C363.535,69.745,349.326,34.423,318.705,26.088Z" style="fill:#404f66"/><path d="M256,256H439.323a48.633,48.633,0,0,0,47.039-61.026q-.222-.84-.45-1.679c-8.335-30.621-43.657-44.83-71.14-28.962L256,256Z" style="fill:#404f66"/><path d="M256,256,164.369,97.29c-15.908-27.553-53.657-32.772-76.234-10.354q-.6.6-1.2,1.2c-22.418,22.577-17.2,60.326,10.354,76.234L256,256Z" style="fill:#404f66"/><path d="M26.088,193.3q-.228.839-.45,1.679A48.633,48.633,0,0,0,72.677,256H256L97.228,164.333C69.745,148.465,34.423,162.674,26.088,193.3Z" style="fill:#4d5e78"/><path d="M256,112a143.336,143.336,0,0,1,72.01,19.275l16-27.716A175.175,175.175,0,0,0,256,80Z" style="fill:#4d5e78"/><path d="M380.725,183.99A143.336,143.336,0,0,1,400,256h32a175.175,175.175,0,0,0-23.559-88.012Z" style="fill:#4d5e78"/><path d="M183.99,131.275l-16-27.716a176.849,176.849,0,0,0-64.429,64.429l27.716,16A144.691,144.691,0,0,1,183.99,131.275Z" style="fill:#4d5e78"/><path d="M380.725,183.99l27.716-16a176.849,176.849,0,0,0-64.429-64.429l-16,27.716A144.691,144.691,0,0,1,380.725,183.99Z" style="fill:#556a8a"/><path d="M256,112V80a175.175,175.175,0,0,0-88.012,23.559l16,27.716A143.336,143.336,0,0,1,256,112Z" style="fill:#556a8a"/><path d="M131.275,183.99l-27.716-16A175.175,175.175,0,0,0,80,256h32A143.336,143.336,0,0,1,131.275,183.99Z" style="fill:#556a8a"/><path d="M400,256v32a144,144,0,0,1-288,0V256Z" style="fill:#b8b8b6"/><path d="M400,256v32A143.992,143.992,0,0,1,163.39,398.26C248,383.54,329.44,342.57,377.45,256Z" style="fill:#b0b0ae"/><path d="M200,309.15V316a44,44,0,0,1-88,0V256h48l23.49,18.79A44.018,44.018,0,0,1,200,309.15Z" style="fill:#cfcfcd"/><path d="M312,286.15V296a56,56,0,1,1-112,0v-9.85A56.392,56.392,0,0,1,201.33,274L216,208V184a40,40,0,0,1,32.83-39.35A39.428,39.428,0,0,1,256,144a40.015,40.015,0,0,1,40,40v24l14.67,66A56.392,56.392,0,0,1,312,286.15Z" style="fill:#348fd9"/><path d="M225.942,157.623l-43.659,17.464A35.448,35.448,0,0,0,160,208h56V184A39.839,39.839,0,0,1,225.942,157.623Z" style="fill:#ffb531"/><path d="M312,286.15V296a56.01,56.01,0,0,1-84.99,47.92C272,344,280,317.92,280,288v-9.85A56.392,56.392,0,0,0,278.67,266L264,200V176a39.914,39.914,0,0,0-15.17-31.35A39.428,39.428,0,0,1,256,144a40.015,40.015,0,0,1,40,40v24l14.67,66A56.392,56.392,0,0,1,312,286.15Z" style="fill:#3086cd"/><circle cx="256" cy="184" r="16" style="fill:#313b4c"/><path d="M176,264h0a16,16,0,0,1-16-16V208h32v40A16,16,0,0,1,176,264Z" style="fill:#f35244"/><path d="M216,208a54.626,54.626,0,0,0,38.627,16H256v52a28,28,0,0,1-28,28h0a28,28,0,0,1-28-28v-.553a28.014,28.014,0,0,1,.836-6.791Z" style="fill:#f35244"/><path d="M312,309.15V316a44,44,0,0,0,88,0V256H352l-23.49,18.79A44.018,44.018,0,0,0,312,309.15Z" style="fill:#cfcfcd"/><path d="M493.63,191.19a55.706,55.706,0,0,0-32.736-37.077,56.94,56.94,0,0,0-20.976-4.331,56.855,56.855,0,0,0,6.67-20.223,55.927,55.927,0,0,0-15.8-47.016c-.435-.446-.883-.894-1.279-1.279a55.972,55.972,0,0,0-47.066-15.852,56.86,56.86,0,0,0-20.224,6.67,56.949,56.949,0,0,0-4.33-20.975c-14.063-34.019-58.676-45.75-87.8-23.321A56.763,56.763,0,0,0,256,43.613a56.733,56.733,0,0,0-14.092-15.827c-29.167-22.458-73.746-10.666-87.795,23.32a56.958,56.958,0,0,0-4.329,20.977,56.853,56.853,0,0,0-20.225-6.671,55.9,55.9,0,0,0-47.016,15.8c-.446.435-.894.883-1.279,1.279a55.961,55.961,0,0,0-15.852,47.066,56.86,56.86,0,0,0,6.67,20.224,56.938,56.938,0,0,0-20.976,4.33A55.725,55.725,0,0,0,18.36,191.227l-.455,1.7A56.633,56.633,0,0,0,72.68,264H104v52a51.8,51.8,0,0,0,13.715,35.145q.594,1.3,1.2,2.567a52.264,52.264,0,0,0-10.373,9.8L95.021,380.423a32.053,32.053,0,0,0-7.021,20V440a8,8,0,0,0,8,8h60a52.192,52.192,0,0,0,40.92-19.936c2.021.854,4.056,1.677,6.108,2.441l11,49.5H184v16h64V480H230.417l-3.555-16H248V448H223.306l-2.7-12.153a152.908,152.908,0,0,0,70.79,0L288.694,448H264v16h21.138l-3.555,16H264v16h64V480H297.973l11-49.5c2.053-.763,4.087-1.587,6.107-2.44A52.193,52.193,0,0,0,356,448h60a8,8,0,0,0,8-8V400.42a32.044,32.044,0,0,0-7.012-19.986l-13.532-16.923a52.254,52.254,0,0,0-10.373-9.8q.606-1.264,1.2-2.562A51.8,51.8,0,0,0,408,316V264h31.32a56.632,56.632,0,0,0,54.766-71.106Zm-101.63,86L361.753,315,374.247,325,392,302.806V316a36,36,0,0,1-72,0v-6.853a35.824,35.824,0,0,1,13.512-28.111L354.807,264H366.92l-29.066,34.879,12.292,10.242L387.746,264H392ZM156,352a36.04,36.04,0,0,1-36-36V302.806L137.753,325,150.247,315,120,277.194V264h4.254l37.6,45.121,12.292-10.242L145.08,264h12.113l21.295,17.036A35.824,35.824,0,0,1,192,309.147V316A36.04,36.04,0,0,1,156,352Zm25.19-209.576,11.485,19.89-13.363,5.345a43.276,43.276,0,0,0-23.063,21.513l-13.824-7.983A136.77,136.77,0,0,1,181.19,142.424Zm28.068,30.628-.026.108c-.1.454-.2.9-.289,1.355-1.157,5.312-.943,10.7-.943,16.1V200H169.175a27.3,27.3,0,0,1,16.079-17.485L209.3,172.9C209.285,172.95,209.271,173,209.258,173.052ZM168,216h16v32a8,8,0,0,1-16,0Zm40,60v-.553a20.035,20.035,0,0,1,.6-4.85l12.134-48.537a61.989,61.989,0,0,0,27.269,9.6V276a20,20,0,0,1-40,0Zm13.3-125.136-13.617,5.446-12.642-21.9A135.985,135.985,0,0,1,248,120.247V136.68A48.071,48.071,0,0,0,221.3,150.864ZM264,120.247a135.99,135.99,0,0,1,52.962,14.168l-17.213,29.814A48.084,48.084,0,0,0,264,136.674Zm40,86.874V188.863l26.812-46.437a136.762,136.762,0,0,1,38.762,38.762l-63.224,36.5Zm79.462-33.953a152.848,152.848,0,0,0-44.63-44.63l8.012-13.877a168.986,168.986,0,0,1,50.5,50.5Zm-58.484-52.643A152.03,152.03,0,0,0,264,104.21V88.19a167.991,167.991,0,0,1,68.99,18.457ZM248,104.21a152.038,152.038,0,0,0-60.978,16.315l-8.012-13.878A167.984,167.984,0,0,1,248,88.19Zm-82.842,10.45,6.922,11.986,1.091,1.89a152.839,152.839,0,0,0-44.634,44.634l-13.876-8.013A168.976,168.976,0,0,1,165.158,114.66Zm-30.744,80.38,17.678,10.208c-.056.912-.092,1.828-.092,2.752v40H120.247A136,136,0,0,1,134.414,195.04Zm54.07,73.5-.036-.029a24.218,24.218,0,0,0,5.261-4.333l-.635,2.538a36.031,36.031,0,0,0-.876,5.116C191.015,270.689,189.786,269.583,188.484,268.542ZM228,312a36.04,36.04,0,0,0,36-36V224a8,8,0,0,0-8-8h-1.373A46.269,46.269,0,0,1,224,204.516V184c0-.449.133-2.908.136-2.936a31.962,31.962,0,0,1,7.817-18.162c.007-.007.011-.016.018-.024A32,32,0,0,1,288,184v24a8.052,8.052,0,0,0,.19,1.737l14.667,65.986A48.509,48.509,0,0,1,304,286.15V296a48.229,48.229,0,0,1-27.523,43.425,48.114,48.114,0,0,1-40.952,0,48.265,48.265,0,0,1-26.3-32.721A35.777,35.777,0,0,0,228,312Zm90.479-39.735L316.643,264h12.55l-5.677,4.542a52.543,52.543,0,0,0-4.893,4.466C318.571,272.761,318.534,272.511,318.479,272.265ZM352,248H313.086l-3.1-13.934,67.6-39.028A135.99,135.99,0,0,1,391.753,248ZM384.53,81.275a40.114,40.114,0,0,1,33.754,11.392c.352.344.7.7,1.1,1.1a40.576,40.576,0,0,1-8.2,63.383,184.963,184.963,0,0,0-56.339-56.338A40.459,40.459,0,0,1,384.53,81.275ZM279.854,40.463a40.282,40.282,0,0,1,35.1-7.1l1.656.445A39.813,39.813,0,0,1,343.1,57.218a40.548,40.548,0,0,1-2.122,35.573A184,184,0,0,0,264.014,72.2,40.361,40.361,0,0,1,279.854,40.463ZM168.9,57.218c9.968-24.113,42.694-32.583,63.247-16.755A40.363,40.363,0,0,1,247.986,72.2a184,184,0,0,0-76.965,20.6A40.554,40.554,0,0,1,168.9,57.218Zm-76.232,36.5c.344-.352.7-.7,1.1-1.1a40.575,40.575,0,0,1,63.382,8.2,184.979,184.979,0,0,0-56.337,56.338,40.58,40.58,0,0,1-8.145-63.436Zm-52.2,138.43a40.291,40.291,0,0,1-7.1-35.1l.445-1.656A39.813,39.813,0,0,1,57.218,168.9a40.548,40.548,0,0,1,35.573,2.122A184,184,0,0,0,72.2,247.986,40.361,40.361,0,0,1,40.463,232.146Zm66.184-53.136,13.878,8.012A152.03,152.03,0,0,0,104.21,248H88.19A167.991,167.991,0,0,1,106.647,179.01Zm.861,211.416,13.528-16.917a36.005,36.005,0,0,1,5.639-5.617,151.841,151.841,0,0,0,8.824,12.779L104,406.92v-6.5A16.012,16.012,0,0,1,107.508,390.426ZM104,427.747l41.916-34.93q4.036,4.231,8.413,8.162L117.1,432H104ZM156,432H142.1l24.931-20.776a152.443,152.443,0,0,0,15.018,9.584A36.112,36.112,0,0,1,156,432Zm56.439-15.13a134.713,134.713,0,0,1-14.9-6.049c-.077-.037-.155-.073-.233-.107a136.774,136.774,0,0,1-52.122-43.854,51.938,51.938,0,0,0,23.468-.423A32.057,32.057,0,0,0,200,392V376a16.019,16.019,0,0,1-16-16h-.338a52.28,52.28,0,0,0,21.046-25.806,63.833,63.833,0,0,0,102.584,0,51.981,51.981,0,0,0,59.527,32.666A136.759,136.759,0,0,1,314.7,410.714c-.078.034-.156.07-.234.107a136.419,136.419,0,0,1-102.024,6.049Zm117.516,3.938a152.51,152.51,0,0,0,15.018-9.584L369.9,432H356A36.112,36.112,0,0,1,329.955,420.808ZM394.9,432l-37.225-31.021q4.376-3.928,8.414-8.162L408,427.747V432Zm9.6-41.563a16,16,0,0,1,3.5,9.983v6.5l-31.5-26.248a151.7,151.7,0,0,0,8.824-12.779,36,36,0,0,1,5.636,5.613ZM407.79,248a152.03,152.03,0,0,0-16.315-60.978l13.878-8.012A167.991,167.991,0,0,1,423.81,248Zm63.747-15.854a40.361,40.361,0,0,1-31.733,15.84,184,184,0,0,0-20.595-76.965,40.549,40.549,0,0,1,35.572-2.122,39.8,39.8,0,0,1,23.4,26.455l.445,1.66A40.3,40.3,0,0,1,471.537,232.146Z"/><path d="M232,376H216a32.036,32.036,0,0,0,32,32V392A16.019,16.019,0,0,1,232,376Z"/><path d="M264,376v16a32.036,32.036,0,0,0,32-32H280A16.019,16.019,0,0,1,264,376Z"/><path d="M336,368H320a16.019,16.019,0,0,1-16,16v16A32.036,32.036,0,0,0,336,368Z"/><circle cx="256" cy="184" r="16"/></g></svg>
