<?xml version="1.0" encoding="iso-8859-1"?>
<!-- Generator: Adobe Illustrator 19.0.0, SVG Export Plug-In . SVG Version: 6.00 Build 0)  -->
<svg version="1.1" id="Capa_1" xmlns="http://www.w3.org/2000/svg" xmlns:xlink="http://www.w3.org/1999/xlink" x="0px" y="0px"
	 viewBox="0 0 512.002 512.002" style="enable-background:new 0 0 512.002 512.002;" xml:space="preserve">
<path style="fill:#FC462A;" d="M436.963,119.242c-10.417-31.457-40.088-54.224-74.994-54.224v29.997
	c27.017,0,48.996,21.979,48.996,48.996h51.996c0-27.017,21.979-48.996,48.996-48.996V65.018
	C477.051,65.017,447.38,87.784,436.963,119.242z"/>
<path style="fill:#FF2616;" d="M462.961,144.01c0-27.017,21.979-48.996,48.996-48.996V65.017c-34.906,0-64.577,22.767-74.994,54.224
	v24.769H462.961z"/>
<path style="fill:#FEDB41;" d="M466.961,274.622h-59.995c-24.811,0-44.996-20.185-44.996-44.996v-30.997
	c0-41.352,33.642-74.994,74.994-74.994s74.994,33.642,74.994,74.994v30.997C511.957,254.437,491.772,274.622,466.961,274.622z"/>
<path style="fill:#FCBF27;" d="M436.963,123.635v150.987h29.997c24.811,0,44.996-20.185,44.996-44.996v-30.997
	C511.957,157.277,478.315,123.635,436.963,123.635z"/>
<path style="fill:#FEDB41;" d="M119.99,446.985c-24.811,0-44.996-20.185-44.996-44.996c0-24.811,20.185-44.996,44.996-44.996
	s44.996,20.185,44.996,44.996C164.986,426.799,144.801,446.985,119.99,446.985z"/>
<path style="fill:#FCBF27;" d="M220.981,446.985c-24.811,0-44.996-20.185-44.996-44.996c0-24.811,20.185-44.996,44.996-44.996
	s44.996,20.185,44.996,44.996C265.978,426.799,245.792,446.985,220.981,446.985z"/>
<path style="fill:#FEDB41;" d="M321.973,446.985c-24.811,0-44.996-20.185-44.996-44.996c0-24.811,20.185-44.996,44.996-44.996
	c24.811,0,44.996,20.185,44.996,44.996C366.969,426.799,346.784,446.985,321.973,446.985z"/>
<path style="fill:#FCBF27;" d="M431.964,436.986c-24.811,0-44.996-20.185-44.996-44.996s20.185-44.996,44.996-44.996
	c24.811,0,44.996,20.185,44.996,44.996S456.775,436.986,431.964,436.986z"/>
<path style="fill:#10BB66;" d="M438.58,380.879c-1.242,0-2.487-0.051-3.736-0.155c-13.208-1.093-25.2-7.905-32.902-18.689
	l-6.027-8.438c-4.837-6.771-10.723-12.658-17.496-17.496l-8.438-6.027c-10.784-7.703-17.596-19.695-18.688-32.903
	c-1.093-13.208,3.655-26.158,13.026-35.529l28.404-28.404c15.616-15.618,39.996-17.637,57.971-4.798l16.575,11.839
	c9.472,6.766,17.704,14.999,24.47,24.469l11.839,16.577c12.838,17.972,10.82,42.352-4.798,57.97l-28.404,28.404
	C461.888,376.185,450.468,380.879,438.58,380.879z"/>
<path style="fill:#0CA655;" d="M387.891,344.124c2.923,2.923,5.604,6.087,8.022,9.472l6.027,8.438
	c7.703,10.784,19.695,17.597,32.904,18.689c13.207,1.093,26.158-3.655,35.528-13.026l28.404-28.404
	c15.619-15.619,17.637-39.999,4.799-57.97l-11.84-16.577c-3.383-4.736-7.131-9.161-11.219-13.248L387.891,344.124z"/>
<path style="fill:#6DCD24;" d="M392.553,403.988h-40.169c-13.253,0-25.768-5.799-34.333-15.912
	c-8.566-10.112-12.229-23.41-10.051-36.482l1.705-10.229c1.367-8.207,1.367-16.534,0-24.743L308,306.395
	c-2.179-13.073,1.484-26.37,10.051-36.482c8.565-10.112,21.08-15.912,34.333-15.912h40.169c22.088,0,40.755,15.813,44.384,37.6
	l3.35,20.091c1.913,11.482,1.913,23.123,0,34.604l-3.35,20.094C433.308,388.176,414.641,403.988,392.553,403.988z"/>
<path style="fill:#66BD21;" d="M310.731,328.995c0,4.134-0.342,8.266-1.025,12.371l-1.705,10.229
	c-2.179,13.073,1.484,26.37,10.051,36.482c8.565,10.112,21.08,15.912,34.333,15.912h40.169c22.088,0,40.755-15.813,44.384-37.599
	l3.35-20.094c0.957-5.741,1.435-11.521,1.435-17.302L310.731,328.995L310.731,328.995z"/>
<path style="fill:#10BB66;" d="M291.561,403.988h-40.169c-13.253,0-25.768-5.799-34.333-15.912
	c-8.566-10.112-12.229-23.41-10.051-36.482l1.705-10.229c1.367-8.207,1.367-16.534,0-24.743l-1.705-10.228
	c-2.179-13.073,1.484-26.37,10.051-36.482c8.565-10.112,21.08-15.912,34.333-15.912h40.169c22.088,0,40.755,15.813,44.384,37.6
	l3.35,20.091c1.913,11.482,1.913,23.123,0,34.604l-3.35,20.094C332.316,388.176,313.65,403.988,291.561,403.988z"/>
<path style="fill:#0CA655;" d="M209.739,328.995c0,4.134-0.342,8.266-1.025,12.371l-1.705,10.229
	c-2.179,13.073,1.484,26.37,10.051,36.482c8.565,10.112,21.08,15.912,34.333,15.912h40.169c22.088,0,40.755-15.813,44.384-37.599
	l3.35-20.094c0.957-5.741,1.435-11.521,1.435-17.302L209.739,328.995L209.739,328.995z"/>
<path style="fill:#6DCD24;" d="M190.57,403.988h-40.169c-13.253,0-25.768-5.799-34.333-15.912
	c-8.566-10.112-12.229-23.41-10.051-36.482l1.705-10.229c1.367-8.207,1.367-16.534,0-24.743l-1.705-10.228
	c-2.179-13.073,1.484-26.37,10.051-36.482c8.565-10.112,21.08-15.912,34.333-15.912h40.169c22.088,0,40.755,15.813,44.384,37.6
	l3.35,20.091c1.913,11.482,1.913,23.123,0,34.604l-3.35,20.094C231.325,388.176,212.658,403.988,190.57,403.988z"/>
<path style="fill:#66BD21;" d="M108.748,328.995c0,4.134-0.342,8.266-1.025,12.371l-1.705,10.229
	c-2.179,13.073,1.484,26.37,10.051,36.482c8.565,10.112,21.08,15.912,34.333,15.912h40.169c22.088,0,40.755-15.813,44.384-37.599
	l3.35-20.094c0.957-5.741,1.435-11.521,1.435-17.302L108.748,328.995L108.748,328.995z"/>
<path style="fill:#10BB66;" d="M89.578,403.988H74.994C33.642,403.988,0,370.346,0,328.995s33.642-74.994,74.994-74.994h14.585
	c22.088,0,40.755,15.813,44.384,37.6l3.35,20.091c1.913,11.482,1.913,23.123,0,34.604l-3.35,20.094
	C130.333,388.176,111.667,403.988,89.578,403.988z"/>
<path style="fill:#0CA655;" d="M0,328.995c0,41.352,33.642,74.994,74.994,74.994h14.585c22.088,0,40.755-15.813,44.384-37.599
	l3.35-20.094c0.957-5.741,1.435-11.521,1.435-17.302H0V328.995z"/>
<g>
</g>
<g>
</g>
<g>
</g>
<g>
</g>
<g>
</g>
<g>
</g>
<g>
</g>
<g>
</g>
<g>
</g>
<g>
</g>
<g>
</g>
<g>
</g>
<g>
</g>
<g>
</g>
<g>
</g>
</svg>
