<svg height="512" viewBox="0 0 512 512" width="512" xmlns="http://www.w3.org/2000/svg"><g id="Filled_outline" data-name="Filled outline"><path d="m112 200a80 80 0 0 0 -80 80v120l-8 16a80 80 0 0 0 80-80v-72a24 24 0 0 1 24-24h72v-40z" fill="#e67007"/><path d="m488 208-8 24h-48l-56 72h-32v48l24 64h-32l-24-64-8-48h-88a44.825 44.825 0 0 1 -19.97 37.31l-28.03 18.69v56h-32v-80l24-32-6.13-12.27-2.71-5.42a67.6 67.6 0 0 1 -7.16-30.31 56 56 0 0 1 56-56h152l32-32 5.27-10.53a38.806 38.806 0 0 1 34.73-21.47v32a29.921 29.921 0 0 1 24.88 13.31l7.12 10.69z" fill="#f98500"/><path d="m488 208-8 24h-48l-56 72h-32v48l24 64h-32l-24-64-8-48h-88a44.825 44.825 0 0 1 -19.97 37.31l-28.03 18.69v56h-32v-80l24-32-6.13-12.27c90.03-19.28 192.04-56.3 270.13-126.97v3.24a29.921 29.921 0 0 1 24.88 13.31l7.12 10.69z" fill="#f77c00"/><path d="m216 360 24 56h-32l-24-64v-2.67l32-45.33h32a64 64 0 0 1 -25.6 51.2z" fill="#e67007"/><path d="m400 416h-32s-24-56-24-64v-48h32v48z" fill="#e67007"/><path d="m72 352-20-16-20 16v48l-8 16a80 80 0 0 0 79.461-70.831l-11.461-9.169z" fill="#d6d6d4"/><path d="m312 352 24 64h32l-24-64z" fill="#92563a"/><path d="m136 360h32v56h-32z" fill="#92563a"/><path d="m240 416h-32l-21-56h29z" fill="#6e3d26"/><path d="m400 416h-32s-24-56-24-64h32z" fill="#6e3d26"/><path d="m491.578 200.845-30.1-15.051-5.946-8.919a37.808 37.808 0 0 0 -23.532-16.026v-24.849a8 8 0 0 0 -8-8 46.575 46.575 0 0 0 -41.888 25.889l-4.687 9.372-28.739 28.739h-236.686a88.1 88.1 0 0 0 -88 88v118.111l-7.155 14.311a8 8 0 0 0 7.155 11.578 87.463 87.463 0 0 0 62.229-25.775 87.46 87.46 0 0 0 25.771-62.225v-72a16.019 16.019 0 0 1 16-16h8.518a64.2 64.2 0 0 0 -.518 8 76.154 76.154 0 0 0 8 33.888l6.633 13.267-21.033 28.045a8 8 0 0 0 -1.6 4.8v80a8 8 0 0 0 8 8h32a8 8 0 0 0 8-8v-51.718l3.249-2.167 21.26 56.694a8 8 0 0 0 7.491 5.191h32a8 8 0 0 0 7.353-11.151l-21.523-50.222 1.37-1.027a72.4 72.4 0 0 0 28.343-49.6h41.68l6.886 41.315a8.036 8.036 0 0 0 .4 1.494l24 64a8 8 0 0 0 7.491 5.191h64a8 8 0 0 0 7.491-10.809l-23.491-62.642v-43.8l51.913-66.749h44.087a8 8 0 0 0 7.589-5.47l8-24a8 8 0 0 0 -4.011-9.685zm-416.663 186.066a71.55 71.55 0 0 1 -37.335 19.818l1.575-3.151a7.994 7.994 0 0 0 .845-3.578v-44.155l12-9.6 15 12a8 8 0 0 0 10 0l15-12 2.893 2.314a71.518 71.518 0 0 1 -19.978 38.352zm65.772-154.911h-12.687a32.036 32.036 0 0 0 -32 32v65.087a7.993 7.993 0 0 0 -9 .666l-15 12-15-12a8 8 0 0 0 -10 0l-7 5.6v-55.353a72.081 72.081 0 0 1 72-72h45.736a64.248 64.248 0 0 0 -17.049 24zm76.913 116.8-6.4 4.8a8 8 0 0 0 -2.553 9.551l19.221 44.849h-14.324l-20.624-55 7.548-5.033a52.722 52.722 0 0 0 22.932-35.967h16.021a56.307 56.307 0 0 1 -21.821 36.8zm170.856 59.2h-14.912l-21.544-57.451v-38.549h16v40a8 8 0 0 0 .509 2.809zm85.778-184h-42.234a8 8 0 0 0 -6.315 3.088l-53.598 68.912h-28.087a8 8 0 0 0 -8 8v48c0 .258.015.515.039.771.684 8.112 11.216 34.576 19.879 55.229h-14.374l-21.781-58.082-7.872-47.233c-.014-.086-.037-.168-.054-.252h.008l-8-40-15.69 3.138 6.087 30.429h-70.242v-32h-16v40a36.771 36.771 0 0 1 -16.407 30.657l-28.031 18.687a8 8 0 0 0 -3.562 6.656v48h-16v-69.333l22.4-29.867a8 8 0 0 0 .755-8.378l-8.844-17.689a60.074 60.074 0 0 1 -6.311-26.733 48.055 48.055 0 0 1 48-48h152a8 8 0 0 0 5.657-2.343l32-32a7.986 7.986 0 0 0 1.5-2.079l5.267-10.534a30.652 30.652 0 0 1 19.576-16.005v22.961a8 8 0 0 0 8 8 21.852 21.852 0 0 1 18.219 9.751l7.125 10.687a7.994 7.994 0 0 0 3.078 2.717l25.794 12.9z"/><path d="m424 184h16v16h-16z"/></g></svg>