<svg baseProfile="full" height="100" version="1.1" width="100" xmlns="http://www.w3.org/2000/svg">


    <defs>
        <style type="text/css"><![CDATA[

        rect#dropIcon {
            fill: rgba(72, 214, 31, 0);
            width: 100px;
            height: 100px;
            rx: 20px;
            ry: 20px;
        }

        rect.backLine {
            fill: rgb(113, 5, 255);
            width: 70px;
            height: 20px;
            rx: 5px;
            ry: 5px;
        }

        rect.innerLine {
            fill: #8200b4;
            width: 68px;
            height: 18px;
            rx: 5px;
            ry: 5px;
        }

       rect.frontLine {
            fill: #8cd667;
            width: 66px;
            height: 16px;
            rx: 5px;
            ry: 5px;
        }

        .soundLine {

            }


<!--		]]></style>-->
    </defs>


<!--    <rect id="dropIcon" x="0" y="0"/>-->

<!--    <rect class="backLine" id="underTopLine" x="15" y="15"/>-->

<!--    <rect class="backLine" id="underMiddleLine" x="15" y="40"/>-->

<!--    <rect class="backLine" id="underBottomLine" x="15" y="65"/>-->

<!--    <rect class="innerLine" id="topLine" x="15" y="15"/>-->

<!--    <rect class="innerLine" id="middleLine" x="15" y="40"/>-->

<!--    <rect class="innerLine" id="bottomLine" x="15" y="65"/>-->

<!--    <rect class="frontLine" id="overTopLine" x="15" y="15"/>-->

<!--    <rect class="frontLine" id="overMiddleLine" x="15" y="40"/>-->

<!--    <rect class="frontLine" id="overBottomLine" x="15" y="65"/>-->




    <svg id="soundOnImg" height="100" width="100">
<!--        <polygon points="5,35 25,35 50,20 50,80 25,65 5,65" style="fill:rgb(110, 0, 255);stroke:rgb(110, 0, 255);stroke-width:4" />-->
        <path d="M 11 35 L 29 35 49 20 A 4 4 0 0 1 55 24 L 55 80 A 7 7 0 0 1 43 84 L 23 69 13 69 A 5 5 0 0 1 9 64 L 9 40 A 5 5 0 0 1 14 35" style="fill:rgb(113, 5, 255);stroke:rgb(113, 5, 255);stroke-width:4" />
        <path d="M 10 35 L 26 35 47 20 A 4 4 0 0 1 53 24 L 53 78 A 6 6 0 0 1 44 82 L 24 67 11 67 A 5 5 0 0 1 7 62 L 7 41 A 5 5 0 0 1 12 36" style="fill:#8200b4;stroke:#8200b4;stroke-width:4" />
        <path d="M 9 35 L 25 35 45 20 A 4 4 0 0 1 51 24 L 51 76 A 4 4 0 0 1 45 80 L 25 65 9 65 A 5 5 0 0 1 5 60 L 5 40 A 5 5 0 0 1 10 35" style="fill:#8cd667;stroke:#8cd667;stroke-width:4" />

        <path class="backSoundLine" d="M 65 35 q 10 15 0 30" stroke="rgb(113, 5, 255)" stroke-width="8" fill="none" stroke-linecap="round"/>
        <path class="backSoundLine" d="M 75 30 q 13 20 0 40" stroke="rgb(113, 5, 255)" stroke-width="8" fill="none" stroke-linecap="round"/>
        <path class="backSoundLine" d="M 85 25 q 16 25 0 50" stroke="rgb(113, 5, 255)" stroke-width="8" fill="none" stroke-linecap="round"/>
        <path class="middleSoundLine" d="M 64 35 q 10 15 0 30" stroke="#8200b4" stroke-width="6.5" fill="none" stroke-linecap="round"/>
        <path class="middleSoundLine" d="M 74 30 q 13 20 0 40" stroke="#8200b4" stroke-width="6.5" fill="none" stroke-linecap="round"/>
        <path class="middleSoundLine" d="M 84 25 q 16 25 0 50" stroke="#8200b4" stroke-width="6.5" fill="none" stroke-linecap="round"/>
        <path class="frontSoundLine" d="M 63 35 q 10 15 0 30" stroke="#8cd667" stroke-width="5" fill="none" stroke-linecap="round"/>
        <path class="frontSoundLine" d="M 73 30 q 13 20 0 40" stroke="#8cd667" stroke-width="5" fill="none" stroke-linecap="round"/>
        <path class="frontSoundLine" d="M 83 25 q 16 25 0 50" stroke="#8cd667" stroke-width="5" fill="none" stroke-linecap="round"/>

    </svg>


</svg>

