<svg baseProfile="full" height="100" version="1.1" width="100" xmlns="http://www.w3.org/2000/svg">


    <defs>
        <style type="text/css"><![CDATA[


<!--		]]></style>-->
    </defs>


    <svg id="soundOnImg" height="100" width="100">

        <path d="M 11 35 L 29 35 49 20 A 4 4 0 0 1 55 24 L 55 80 A 7 7 0 0 1 43 84 L 23 69 13 69 A 5 5 0 0 1 9 64 L 9 40 A 5 5 0 0 1 14 35" style="fill:rgb(113, 5, 255);stroke:rgb(113, 5, 255);stroke-width:4" />
        <path d="M 10 35 L 26 35 47 20 A 4 4 0 0 1 53 24 L 53 78 A 6 6 0 0 1 44 82 L 24 67 11 67 A 5 5 0 0 1 7 62 L 7 41 A 5 5 0 0 1 12 36" style="fill:#8200b4;stroke:#8200b4;stroke-width:4" />
        <path d="M 9 35 L 25 35 45 20 A 4 4 0 0 1 51 24 L 51 76 A 4 4 0 0 1 45 80 L 25 65 9 65 A 5 5 0 0 1 5 60 L 5 40 A 5 5 0 0 1 10 35" style="fill:#8cd667;stroke:#8cd667;stroke-width:4" />

    </svg>


</svg>

