<?xml version="1.0"?>
<svg xmlns="http://www.w3.org/2000/svg" viewBox="0 0 512 512" width="512" height="512"><g id="Filled_outline" data-name="Filled outline"><polygon points="389.916 313.985 368 440 336 440 352 336 326.4 272 392 272 389.916 313.985" style="fill:#e66000"/><polygon points="285.333 272 304 328 304 440 272 440 272 336 240 296 240 272 285.333 272" style="fill:#e66000"/><path d="M451.44,263.6,432,296l24,48-24,96H400l16-88-26.05-36.47A74.811,74.811,0,0,1,376,272H240V440H208V328l-32-72H152a79.937,79.937,0,0,1-80-80V128H24V104A16,16,0,0,1,40,88h8L72,72H96a24.006,24.006,0,0,1,24,24v67.3a36.7,36.7,0,0,0,71.85,10.55l.28-.94A74.241,74.241,0,0,1,263.24,120H264l27.2-32.64a42.7,42.7,0,0,1,65.6,0l24.37,29.25L384,120a74.222,74.222,0,0,1,71.38,53.85L456,176v71.14A32.015,32.015,0,0,1,451.44,263.6Z" style="fill:#f98500"/><path d="M451.44,263.6,432,296l24,48-24,96H400l16-88-26.05-36.47A74.811,74.811,0,0,1,376,272H240V440H208V328l-32-72H152a79.772,79.772,0,0,1-24.07-3.69c87.08-25.48,178.74-67.29,253.24-135.7L384,120a74.222,74.222,0,0,1,71.38,53.85L456,176v71.14A32.015,32.015,0,0,1,451.44,263.6Z" style="fill:#f77c00"/><path d="M472,176h-8a7.993,7.993,0,0,0-.308-2.2l-.615-2.157a82.619,82.619,0,0,0-75.256-59.557L362.949,82.243a50.7,50.7,0,0,0-77.9,0l-24.843,29.811a82.083,82.083,0,0,0-75.847,58.9h0C180.628,183.4,169.2,192.21,156.217,192A28.73,28.73,0,0,1,128,163.3V96A32,32,0,0,0,96,64H72a8.006,8.006,0,0,0-4.439,1.344L45.578,80H40a24,24,0,0,0-24,24v24a8,8,0,0,0,8,8H64v40a88,88,0,0,0,88,88h18.8L200,329.7V440a8,8,0,0,0,8,8h32a8,8,0,0,0,8-8V318.806l16,20V440a8,8,0,0,0,8,8h32a8,8,0,0,0,8-8V328a8.027,8.027,0,0,0-.41-2.53L296.433,280h24.551l22.777,56.943L328.093,438.784a8.013,8.013,0,0,0,3.994,8.2A8.333,8.333,0,0,0,336.219,448H368a8,8,0,0,0,7.882-6.629l18.43-105.97,13.211,18.5-15.394,84.672a8.009,8.009,0,0,0,3.537,8.159A8.349,8.349,0,0,0,400.232,448H432a8,8,0,0,0,7.761-6.06l24-96a7.99,7.99,0,0,0-.606-5.518L441.119,296.35l17.18-28.633a40.014,40.014,0,0,0,5.7-20.58V192h8a8,8,0,0,1,8,8V336a8,8,0,0,0,8,8h0a8,8,0,0,0,8-8V200A24,24,0,0,0,472,176ZM296,329.3V432H280V336a8,8,0,0,0-1.753-5L248,293.194V280h31.567ZM361.271,432H345.325l14.582-94.784a8.005,8.005,0,0,0-.479-4.187L338.217,280h30.164a82.231,82.231,0,0,0,12.894,36.979ZM448,247.137a24.006,24.006,0,0,1-3.421,12.348l-19.439,32.4a8,8,0,0,0-.295,7.694l22.676,45.353L425.754,432H409.586l14.285-78.569a8,8,0,0,0-1.361-6.081l-26.051-36.47A66.527,66.527,0,0,1,384,272V224H368v40H248V224H232V432H216V328a8.011,8.011,0,0,0-.689-3.249l-32-72A8,8,0,0,0,176,248H152a72.081,72.081,0,0,1-72-72V128a8,8,0,0,0-8-8H32V104a8.009,8.009,0,0,1,8-8h8a8,8,0,0,0,4.438-1.344L74.422,80H96a16.019,16.019,0,0,1,16,16v67.3a44.7,44.7,0,0,0,87.508,12.844l.282-.94A66.24,66.24,0,0,1,263.237,128H264a8,8,0,0,0,6.146-2.878l27.2-32.636a34.7,34.7,0,0,1,53.316,0l27.2,32.636A8,8,0,0,0,384,128a66.522,66.522,0,0,1,63.692,48.042L448,177.12Z"/></g></svg>
