<?xml version="1.0"?>
<svg xmlns="http://www.w3.org/2000/svg" viewBox="0 0 512 512" width="512" height="512"><g id="Filled_outline" data-name="Filled outline"><path d="M432,320l-56-24-22.83,30.44L400,344l17.47,39.31A34.16,34.16,0,0,0,464,400Z" style="fill:#f98500"/><path d="M219.38,366.31A51.778,51.778,0,0,0,248,320H200l-23.24,49.36L216,440l41-1-32-56Z" style="fill:#f98500"/><path d="M118.42,235.17,80,280H24a31.991,31.991,0,0,0,32,32H81.28a32.016,32.016,0,0,0,24.3-11.17L128,274.67l12.14-50.56A32,32,0,0,0,118.42,235.17Z" style="fill:#f79d16"/><path d="M488,184v24a24.006,24.006,0,0,1-24,24H424l-72,96v40l40,72H352l-40-64V320H200a64,64,0,0,1-64,64H104v24a31.991,31.991,0,0,1-32,32V352h56V256a48,48,0,0,1,48-48H320l46.63-46.63A32,32,0,0,1,389.25,152H424a31.976,31.976,0,0,1,32,32Z" style="fill:#ffb531"/><path d="M488,184v24a24.006,24.006,0,0,1-24,24H424l-72,96v40l40,72H352l-40-64V320H200a64,64,0,0,1-64,64H104v24a31.991,31.991,0,0,1-32,32V352h56V305.52c110.32-21.54,232.88-62.17,323.19-138.41A31.86,31.86,0,0,1,456,184Z" style="fill:#ffa912"/><path d="M488,176H463.2A40.071,40.071,0,0,0,424,144H389.255a39.742,39.742,0,0,0-28.285,11.716L316.687,200H176a55.825,55.825,0,0,0-39.682,16.528,39.719,39.719,0,0,0-23.972,13.436L76.32,272H24a8,8,0,0,0-8,8,39.991,39.991,0,0,0,40,40H81.28a39.964,39.964,0,0,0,30.374-13.964L120,296.3V344H72a8,8,0,0,0-8,8v88a8,8,0,0,0,8,8,40.045,40.045,0,0,0,40-40V392h24a71.554,71.554,0,0,0,38.107-10.941l34.9,62.826A8,8,0,0,0,216,448l.2,0,41-1a8,8,0,0,0,6.751-11.967l-31.613-55.323-3.28-9.742A59.312,59.312,0,0,0,255.468,328H304v48a7.994,7.994,0,0,0,1.216,4.24l40,64A8,8,0,0,0,352,448h40a8,8,0,0,0,6.993-11.885L360,365.927V337.545l34.051,12.768,16.109,36.249a42.264,42.264,0,0,0,38.58,25.058,41.766,41.766,0,0,0,18.838-4.465,8,8,0,0,0,3.85-10.126l-32-80a8,8,0,0,0-4.277-4.382l-46.644-19.99L428,240h36a32.036,32.036,0,0,0,32-32V184A8,8,0,0,0,488,176ZM99.507,295.622A23.984,23.984,0,0,1,81.28,304H56a24.037,24.037,0,0,1-22.643-16H80a8,8,0,0,0,6.074-2.794l35.205-41.078A55.972,55.972,0,0,0,120,256v15.711ZM215.8,359.155a8,8,0,0,0-4,9.708l5.62,16.69a8.066,8.066,0,0,0,.636,1.416l25.348,44.36-22.758.555L186.8,370.962A71.829,71.829,0,0,0,207.559,328h31.717A43.494,43.494,0,0,1,215.8,359.155Zm210-33.107L453.46,395.19a25.939,25.939,0,0,1-4.72.43,26.248,26.248,0,0,1-23.96-15.559l-17.469-39.31a8.009,8.009,0,0,0-4.5-4.242L365.976,322.7l12.652-16.868ZM480,208a16.019,16.019,0,0,1-16,16H424a8,8,0,0,0-6.4,3.2l-72,96A8,8,0,0,0,344,328v40a8,8,0,0,0,1.007,3.885L378.4,432h-21.97L320,373.706V288H304v24H208V288H192v32a56.063,56.063,0,0,1-56,56H104a8,8,0,0,0-8,8v24a24.042,24.042,0,0,1-16,22.629V360h48a8,8,0,0,0,8-8V256a40.045,40.045,0,0,1,40-40H320a8,8,0,0,0,5.657-2.343l46.626-46.627A23.85,23.85,0,0,1,389.255,160H424a24.027,24.027,0,0,1,24,24,8,8,0,0,0,8,8h24Z"/><path d="M400,200a8,8,0,0,1-16,0V176H368v24a24,24,0,0,0,48,0V176H400Z"/></g></svg>
