<?xml version="1.0"?>
<svg xmlns="http://www.w3.org/2000/svg" viewBox="0 0 512 512" width="512" height="512"><g id="Filled_outline" data-name="Filled outline"><path d="M264,328v55.5a32,32,0,0,0,4.216,15.876L296,448l-24,16v24H376V440l-32-56V328Z" style="fill:#353f52"/><path d="M488,408v80H376V456l32-16-20.62-41.24A32.066,32.066,0,0,1,384,384.45V344H289.22a80.021,80.021,0,0,1-45.88-14.46l-7.03-4.92L144,440v8h32v8a31.991,31.991,0,0,1-32,32H117.3A45.1,45.1,0,0,1,96,482.68V488H70.96a46.957,46.957,0,0,1-43.6-64.4l31.97-79.94L88,272V73.44a49.446,49.446,0,0,1,93.67-22.11L192,72h7.5A73.064,73.064,0,0,1,272,136l80,32h28a90.16,90.16,0,0,1,10.84.64A92.007,92.007,0,0,1,472,260V368Z" style="fill:#404f66"/><path d="M488,408v80H376V456l32-16-20.62-41.24A32.066,32.066,0,0,1,384,384.45V344H289.22a80.021,80.021,0,0,1-45.88-14.46l-7.03-4.92L144,440v8h32v8a31.991,31.991,0,0,1-32,32H117.3A45.1,45.1,0,0,1,96,482.68V488H70.96a46.957,46.957,0,0,1-43.6-64.4l31.97-79.94c107.02-18.36,244.78-63.81,331.51-175.02A92.007,92.007,0,0,1,472,260V368Z" style="fill:#3b495e"/><path d="M136,88H88a16,16,0,0,0-16,16h0a16,16,0,0,0,16,16h8L78.627,137.373a22.627,22.627,0,0,0-6.627,16h0A22.628,22.628,0,0,0,94.627,176h34.746A22.628,22.628,0,0,0,152,153.373h0a22.627,22.627,0,0,0-6.627-16L128,120h8a16,16,0,0,0,16-16h0A16,16,0,0,0,136,88Z" style="fill:#4d5e78"/><path d="M480,366.459V260A100.113,100.113,0,0,0,380,160H353.541L279.2,130.265A81.054,81.054,0,0,0,199.5,64h-2.555l-8.121-16.25A57.444,57.444,0,0,0,80,73.44v7.936a24,24,0,0,0-1.4,44.707l-5.633,5.633A30.621,30.621,0,0,0,80,180.275v90.184L19.933,420.628A54.951,54.951,0,0,0,70.96,496H96a7.973,7.973,0,0,0,5.66-2.347A53.112,53.112,0,0,0,117.305,496H144a40.045,40.045,0,0,0,40-40v-8a8,8,0,0,0-8-8H154.245l83.621-104.526.89.623A88.185,88.185,0,0,0,256,345.479V383.5a40.034,40.034,0,0,0,5.273,19.849l24.077,42.136-17.788,11.859A8,8,0,0,0,264,464v24a8,8,0,0,0,8,8H488a8,8,0,0,0,8-8V408a8,8,0,0,0-.572-2.971ZM88,96h48a8,8,0,0,1,0,16h-8a8,8,0,0,0-5.657,13.657L132.686,136H91.314l10.343-10.343A8,8,0,0,0,96,112H88a8,8,0,0,1,0-16Zm56,57.373A14.644,14.644,0,0,1,129.373,168H94.627A14.644,14.644,0,0,1,80,153.373c0-.462.025-.919.067-1.373h63.866C143.975,152.454,144,152.911,144,153.373ZM280,468.281l20.438-13.625a8,8,0,0,0,2.508-10.625l-27.783-48.624A24.017,24.017,0,0,1,272,383.5V350.3a87.83,87.83,0,0,0,17.22,1.7H336v32a8,8,0,0,0,1.054,3.969L368,442.125V480H280Zm100.225-65.944,17.042,34.085L384,443.056V440a8,8,0,0,0-1.054-3.969L352,381.875V352h24v32.45A40.27,40.27,0,0,0,380.225,402.337ZM480,480H384V460.944l27.578-13.789a8,8,0,0,0,3.577-10.733l-20.616-41.234A24.179,24.179,0,0,1,392,384.45V280H376v56H289.22a72.055,72.055,0,0,1-41.293-13.014l-.045-.032L278.247,285A8,8,0,0,0,280,280V184H264v93.194L137.753,435A8,8,0,0,0,136,440v8a8,8,0,0,0,8,8h24a24.027,24.027,0,0,1-24,24H117.305a37.305,37.305,0,0,1-33.367-53.988l75.217-150.434a7.98,7.98,0,0,0,.783-2.586l8-64-15.876-1.984-7.831,62.64-74.6,149.208A53.227,53.227,0,0,0,79.278,480H70.96a38.957,38.957,0,0,1-36.172-53.429l60.64-151.6A8,8,0,0,0,96,272V184h33.373a30.628,30.628,0,0,0,21.657-52.284l-5.633-5.633A24,24,0,0,0,136,80H96V73.44a41.446,41.446,0,0,1,78.514-18.534l10.33,20.67A8,8,0,0,0,192,80h7.5a65.055,65.055,0,0,1,64.562,56.99,8,8,0,0,0,4.967,6.438l80,32A8,8,0,0,0,352,176h28a84.1,84.1,0,0,1,84,84V368a8,8,0,0,0,.572,2.971L480,409.541Z"/></g></svg>
