<?xml version="1.0"?>
<svg xmlns="http://www.w3.org/2000/svg" viewBox="0 0 512 512" width="512" height="512"><g id="Filled_outline" data-name="Filled outline"><path d="M80,208H56a32,32,0,0,0-32,32V432h0a32,32,0,0,0,32-32V240H80Z" style="fill:#7a432a"/><polygon points="280 376 288 358 288 304 256 304 240 376 264 464 264 488 296 488 296 464 280 376" style="fill:#7a432a"/><path d="M187.72,372.28A96.558,96.558,0,0,0,216,304H136v64l32,96v24h32V464l-24-80Z" style="fill:#7a432a"/><path d="M488,148.36v2.92a24.716,24.716,0,0,1-46.83,11.05L432,144H408l-40,88v8a80.016,80.016,0,0,1-32,64v72l32,88v24H336V464l-48-88V304H160a138.8,138.8,0,0,1-51.85,63.9L96,376l32,88v24H96V464L56,368l32-64a53.85,53.85,0,0,1-14.64-14.49,52.322,52.322,0,0,1-2.98-4.92A53.82,53.82,0,0,1,64,259.16V224a64,64,0,0,1,64-64H288L392,56a31.991,31.991,0,0,1,32-32V56h32l30.51,83.91A24.536,24.536,0,0,1,488,148.36Z" style="fill:#92563a"/><path d="M488,148.36v2.92a24.716,24.716,0,0,1-46.83,11.05L432,144H408l-40,88v8a80.016,80.016,0,0,1-32,64v72l32,88v24H336V464l-48-88V304H160a138.8,138.8,0,0,1-51.85,63.9L96,376l32,88v24H96V464L56,368l32-64a53.85,53.85,0,0,1-14.64-14.49C221.4,253.8,375.09,185.64,449.88,56H456l30.51,83.91A24.536,24.536,0,0,1,488,148.36Z" style="fill:#8c5338"/><path d="M456,24h0a0,0,0,0,1,0,0V56a0,0,0,0,1,0,0H424a0,0,0,0,1,0,0v0a32,32,0,0,1,32-32Z" style="fill:#7a432a"/><path d="M24,440a40.058,40.058,0,0,0,39.437-33.351L88,465.6V488a8,8,0,0,0,8,8h32a8,8,0,0,0,8-8V464a8.012,8.012,0,0,0-.481-2.734l-29.853-82.1,6.926-4.618A147.735,147.735,0,0,0,128,362.731V368a8.027,8.027,0,0,0,.41,2.53L160,465.3V488a8,8,0,0,0,8,8h32a8,8,0,0,0,8-8V464a7.991,7.991,0,0,0-.337-2.3l-22.628-75.423,8.342-8.341A103.776,103.776,0,0,0,223.7,312h22.329L232.19,374.265a8,8,0,0,0,.092,3.84L256,465.071V488a8,8,0,0,0,8,8h32a8,8,0,0,0,8-8V464a7.983,7.983,0,0,0-.129-1.431l-11.117-61.147L328,466.04V488a8,8,0,0,0,8,8h32a8,8,0,0,0,8-8V464a8.012,8.012,0,0,0-.481-2.734L344,374.59V307.88A88.458,88.458,0,0,0,376,240v-6.267L413.151,152h13.9l6.956,13.912A32.721,32.721,0,0,0,496,151.279v-2.924a32.639,32.639,0,0,0-1.97-11.182L464,54.59V24a8,8,0,0,0-8-8,39.788,39.788,0,0,0-24,8.022V24a8,8,0,0,0-8-8,40.054,40.054,0,0,0-39.852,36.538L284.687,152H128a72.114,72.114,0,0,0-67.872,48H56a40.045,40.045,0,0,0-40,40V432A8,8,0,0,0,24,440ZM64,289.58a61.737,61.737,0,0,0,13.869,16.793L64,334.111Zm118.062,77.043-11.719,11.72a8,8,0,0,0-2.006,7.956L192,465.174V480H176V464a8.027,8.027,0,0,0-.41-2.53L144,366.7V346.331A146.262,146.262,0,0,0,165.309,312h42.337A87.888,87.888,0,0,1,182.062,366.623ZM288,480H272V464a8,8,0,0,0-.282-2.105L248.238,375.8,262.417,312H280v44.3l-7.311,16.449a8.007,8.007,0,0,0-.56,4.68L288,464.721ZM448,33.371V48H433.371A24.115,24.115,0,0,1,448,33.371ZM128,168H288a8,8,0,0,0,5.657-2.343l104-104A8,8,0,0,0,400,56a24.042,24.042,0,0,1,16-22.629V56a8,8,0,0,0,8,8h26.4l28.6,78.64A16.683,16.683,0,0,1,480,148.355v2.924a16.722,16.722,0,0,1-31.678,7.478l-9.167-18.335A8,8,0,0,0,432,136H416V120H400v22.266l-39.283,86.423A8,8,0,0,0,360,232v8a72.346,72.346,0,0,1-28.8,57.6A8,8,0,0,0,328,304v72a8.012,8.012,0,0,0,.481,2.734L360,465.41V480H344V464a8,8,0,0,0-.977-3.831L296,373.96V256H280v40H168V256H152v46.385a130.137,130.137,0,0,1-48.283,58.856l-12.155,8.1a8,8,0,0,0-3.081,9.39L120,465.41V480H104V464a8.005,8.005,0,0,0-.615-3.077L64.793,368.3l30.362-60.725a8,8,0,0,0-2.717-10.235A45.8,45.8,0,0,1,72,259.156V224A56.063,56.063,0,0,1,128,168ZM32,240a24.027,24.027,0,0,1,24-24v16a8,8,0,0,0-8,8V400a24.042,24.042,0,0,1-16,22.629Z"/></g></svg>
