<?xml version="1.0"?>
<svg xmlns="http://www.w3.org/2000/svg" viewBox="0 0 512 512" width="512" height="512"><g id="Filled_outline" data-name="Filled outline"><path d="M64,216a40,40,0,0,0-40,40v40a40.015,40.015,0,0,0,40-40H88l-2.34-40Z" style="fill:#5c2e1a"/><path d="M392,160v40l55.75-.25A28,28,0,0,0,472,172V160Z" style="fill:#5c2e1a"/><polygon points="328 288 288 328 344 400 336 488 360 488 384 400 328 288" style="fill:#5c2e1a"/><path d="M184,320H88l-4.14,74.04L120,488h32l-24-80,14.32-8.19a82.666,82.666,0,0,0,40.48-57.77Z" style="fill:#5c2e1a"/><path d="M448,232H368l.92,27.23,9.41,32.91a27.388,27.388,0,0,0,45.69,11.84L448,280Z" style="fill:#61311b"/><path d="M488,259.88A20.123,20.123,0,0,1,467.88,280H448l-31.17-25.98a33.506,33.506,0,0,0-53.22,15.14l-12.02,36.07A33.279,33.279,0,0,1,320,328l-24,96v64H264V328l-6.31,3.16A120.526,120.526,0,0,1,144,328a64.506,64.506,0,0,1-45.98,61.79L64,400l-8,88H24V384l40-32V264a64,64,0,0,1,64-64h92.41a31.962,31.962,0,0,0,20.49-7.42l21.3-17.75A64.018,64.018,0,0,1,303.17,160H400a38.814,38.814,0,0,1,34.73,21.47L440,192l33.94,33.94A48.054,48.054,0,0,1,488,259.88Z" style="fill:#7a432a"/><path d="M488,259.88A20.123,20.123,0,0,1,467.88,280H448l-31.17-25.98a33.506,33.506,0,0,0-53.22,15.14l-12.02,36.07A33.279,33.279,0,0,1,320,328l-24,96v64H264V328l-6.31,3.16A120.526,120.526,0,0,1,144,328a64.506,64.506,0,0,1-45.98,61.79L64,400l-8,88H24V384l40-32V319.84C175.84,293.39,294.62,245.7,375.72,160H400a38.814,38.814,0,0,1,34.73,21.47L440,192l33.94,33.94A48.054,48.054,0,0,1,488,259.88Z" style="fill:#6e3c26"/><path d="M400,48a15.979,15.979,0,0,0-16,16V80a16,16,0,1,1-32,0v48h16a16,16,0,0,1,16,16v16h32V64A16,16,0,0,0,400,48Z" style="fill:#f7a116"/><path d="M240,128h64a16,16,0,0,1,16,16v16h32V64a16,16,0,0,0-16-16h0a16,16,0,0,0-16,16V80a16,16,0,0,1-16,16h0a16,16,0,0,1-16-16V40a16,16,0,0,0-16-16h0a16,16,0,0,0-16,16V72a16,16,0,0,1-16,16h0a16,16,0,0,1-16-16V40a16,16,0,0,0-16-16h0a16,16,0,0,0-16,16V80A48,48,0,0,0,240,128Z" style="fill:#ffb531"/><path d="M479.6,220.284l-17.3-17.3a36.16,36.16,0,0,0,7.162-5.534A35.8,35.8,0,0,0,480,172V160a8,8,0,0,0-8-8H424V64a24,24,0,0,0-48,0V80a8,8,0,0,1-16,0V64a24,24,0,0,0-48,0V80a8,8,0,0,1-16,0V40a24,24,0,0,0-48,0V72a8,8,0,0,1-16,0V40a24,24,0,0,0-48,0V80a56.063,56.063,0,0,0,56,56h64a8.009,8.009,0,0,1,8,8v8h-8.829a72.135,72.135,0,0,0-46.093,16.688l-21.3,17.749A24.047,24.047,0,0,1,220.414,192H128a71.643,71.643,0,0,0-45.185,16H64a48.053,48.053,0,0,0-48,48v40a8,8,0,0,0,8,8,47.645,47.645,0,0,0,32-12.236v56.391l-37,29.6A8,8,0,0,0,16,384V488a8,8,0,0,0,8,8H56a8,8,0,0,0,7.967-7.275l7.511-82.616,7.579-2.274,33.476,87.037A8,8,0,0,0,120,496h32a8,8,0,0,0,7.663-10.3l-22.174-73.912,8.8-5.032a90.3,90.3,0,0,0,42.74-55.7A128.242,128.242,0,0,0,256,340.8V488a8,8,0,0,0,8,8h32a8,8,0,0,0,8-8V424.985l12.185-48.738,19.569,26.092-7.721,84.936A8,8,0,0,0,336,496h24a8,8,0,0,0,7.718-5.9l24-88a8,8,0,0,0-.563-5.682l-38.333-76.668a41.321,41.321,0,0,0,6.358-11.992l8.233-24.7,3.224,11.273A35.518,35.518,0,0,0,404.66,320a35.439,35.439,0,0,0,25.017-10.362L451.314,288h16.569A28.149,28.149,0,0,0,496,259.882,55.637,55.637,0,0,0,479.6,220.284ZM464,172a19.991,19.991,0,0,1-13.7,18.982l-3.721-3.72-4.686-9.374A47.324,47.324,0,0,0,435.276,168H464Zm-96-68a24.028,24.028,0,0,0,24-24V64a8,8,0,0,1,16,0v88H392v-8a24.028,24.028,0,0,0-24-24h-8V102.624A23.889,23.889,0,0,0,368,104Zm-8,48V136h8a8.009,8.009,0,0,1,8,8v8Zm-56-32H240a40.045,40.045,0,0,1-40-40V40a8,8,0,0,1,16,0V72a24,24,0,0,0,48,0V40a8,8,0,0,1,16,0V80a24,24,0,0,0,48,0V64a8,8,0,0,1,16,0v88H328v-8A24.028,24.028,0,0,0,304,120ZM32,287V256a32.036,32.036,0,0,1,32-32h4.167a71.567,71.567,0,0,0-11.173,28.14A7.963,7.963,0,0,0,56,256a32.055,32.055,0,0,1-24,31ZM138.349,392.865l-14.321,8.191a8,8,0,0,0-3.691,9.243L141.248,480H125.494L94.426,399.224l5.9-1.769a72.583,72.583,0,0,0,50.608-56.945,128.491,128.491,0,0,0,22.277,7.7A74.355,74.355,0,0,1,138.349,392.865ZM353.89,480h-9.13l7.207-79.275A8,8,0,0,0,350.4,395.2l-29.215-38.954,5.184-20.736a41.172,41.172,0,0,0,14-4.89l35.112,70.224Zm64.472-181.677A19.424,19.424,0,0,1,404.66,304a19.457,19.457,0,0,1-18.639-14.06l-8.2-28.678a25.54,25.54,0,0,1,33.885-1.094l24.443,20.369ZM467.883,272H450.9l-28.947-24.123a41.493,41.493,0,0,0-65.926,18.754L344,302.7A25.267,25.267,0,0,1,320,320a8,8,0,0,0-7.761,6.06l-24,96A7.977,7.977,0,0,0,288,424v56H272V288H256v35.055l-1.89.945A112.264,112.264,0,0,1,152,323.238V288H136v40a56.166,56.166,0,0,1-40.274,54.13L61.7,392.337a8,8,0,0,0-5.668,6.938L48.694,480H32V387.845l37-29.6A8,8,0,0,0,72,352V264a56.063,56.063,0,0,1,56-56h92.414a40.073,40.073,0,0,0,25.607-9.271l21.3-17.75A56.109,56.109,0,0,1,303.171,168H336v4a36,36,0,0,0,61.714,25.194L386.286,186A20,20,0,0,1,352,172v-4h48a30.667,30.667,0,0,1,27.578,17.043l5.267,10.534a7.974,7.974,0,0,0,1.5,2.08L468.284,231.6A39.731,39.731,0,0,1,480,259.883,12.131,12.131,0,0,1,467.883,272Z"/></g></svg>
