<?xml version="1.0"?>
<svg xmlns="http://www.w3.org/2000/svg" viewBox="0 0 512 512" width="512" height="512"><g id="Filled_outline" data-name="Filled outline"><path d="M449.13,108.37c-15.66-6.63-32.74-5.68-46.43,2.58l-5.84,3.52L432.2,144.1a47.959,47.959,0,0,0,24.71-19.06l6.95-10.44Z" style="fill:#e07f7f"/><polygon points="328 304 256 296 256 360 272 408 312 408 304 360 328 304" style="fill:#e07f7f"/><path d="M104,360l24,48h32l-8-48a96.558,96.558,0,0,0,68.28-28.28L224,328V296H104l-1.14,54.89Z" style="fill:#e07f7f"/><path d="M488,216v40l-32,8-11.16,11.16A76.223,76.223,0,0,1,376,296v48l24,64H360l-32-48-16-48a186.693,186.693,0,0,1-145.16,2.74L160,312a82.384,82.384,0,0,1-70.65,40H72l8,56H48L24,336l19.55-16.29a36.508,36.508,0,0,0,4.35-51.83,97.065,97.065,0,0,1-7.16-9.46A99.257,99.257,0,0,1,123.28,104h229.2a99.289,99.289,0,0,1,90.14,57.67l10.78,23.36A58.419,58.419,0,0,0,488,216Z" style="fill:#f59898"/><path d="M488,216v40l-32,8-11.16,11.16A76.223,76.223,0,0,1,376,296v48l24,64H360l-32-48-16-48a186.693,186.693,0,0,1-145.16,2.74L160,312a82.384,82.384,0,0,1-70.65,40H72l8,56H48L24,336l19.55-16.29a36.508,36.508,0,0,0,4.35-51.83,97.065,97.065,0,0,1-7.16-9.46C160,264,360,184,405.54,119.37a99.17,99.17,0,0,1,37.08,42.3l10.78,23.36A58.419,58.419,0,0,0,488,216Z" style="fill:#ed9191"/><path d="M387.154,147.345c-13.3-17.017-30.207-25.044-52.821-19.678-12.306,2.92-19.333,8-26,19.333,17.334,26,53.734,29.988,76.572,19.969l13.1-5.745Z" style="fill:#f59898"/><path d="M490.53,208.41a50.662,50.662,0,0,1-29.868-26.732l-10.78-23.358a106.414,106.414,0,0,0-5.763-10.789,55.982,55.982,0,0,0,19.451-18.058l6.95-10.441a8,8,0,0,0-3.544-11.8L452.249,101c-18.131-7.676-37.7-6.546-53.678,3.1l-2.229,1.343A106.9,106.9,0,0,0,352.48,96h-229.2A107.4,107.4,0,0,0,16.055,200H16c0,.366.011.729.028,1.092-.015.726-.028,1.453-.028,2.183a107.342,107.342,0,0,0,25.826,69.814,28.523,28.523,0,0,1-3.4,40.473L18.878,329.854a8,8,0,0,0-2.467,8.676l24,72A8,8,0,0,0,48,416H80a8,8,0,0,0,7.919-9.132L81.224,360h8.129c2.2,0,4.38-.091,6.553-.252l.156,1.245a7.974,7.974,0,0,0,.783,2.585l24,48A8,8,0,0,0,128,416h32a8,8,0,0,0,7.891-9.315l-6.516-39.1a103.763,103.763,0,0,0,64.561-30.211l1.577-1.576a196.913,196.913,0,0,0,20.487-.17V360a8,8,0,0,0,.411,2.53l16,48A8,8,0,0,0,272,416h40a8,8,0,0,0,7.891-9.315l-7.605-45.631,4.361-9.816,3.764,11.292a7.965,7.965,0,0,0,.933,1.908l32,48A8,8,0,0,0,360,416h40a8,8,0,0,0,7.491-10.809L384,342.55V305.2a84.047,84.047,0,0,0,66.5-24.386l9.589-9.588,29.85-7.463A8,8,0,0,0,496,256V216A8,8,0,0,0,490.53,208.41Zm-44.516-92.672,5.835,2.468-1.6,2.406a40.038,40.038,0,0,1-15.559,13.807A107.785,107.785,0,0,0,413,114.78C423.252,110.779,434.947,111.053,446.014,115.738ZM152,352a8,8,0,0,0-7.891,9.315L150.556,400H132.944l-21.176-42.353-.062-.5a91.036,91.036,0,0,0,51.4-35.29l.769.308a193.228,193.228,0,0,0,42.079,11.491A87.874,87.874,0,0,1,152,352Zm144.109,9.315L302.556,400h-24.79L264,358.7V334.007A194.239,194.239,0,0,0,307.133,322.7l2.008,6.026-12.452,28.03A8,8,0,0,0,296.109,361.315ZM480,249.754l-25.94,6.485a8,8,0,0,0-3.717,2.1L439.187,269.5a68.08,68.08,0,0,1-61.618,18.657A8,8,0,0,0,368,296v48a8,8,0,0,0,.509,2.809L388.456,400H364.281L335.25,356.454l-15.563-46.691-7.926-31.7-15.522,3.88,6.335,25.34a179.78,179.78,0,0,1-130.877.755,102.885,102.885,0,0,0,9.8-26.284l-15.612-3.5a86.953,86.953,0,0,1-12.542,29.313l.006,0c-.07.105-.144.207-.21.317A74.764,74.764,0,0,1,89.353,344H72a8,8,0,0,0-7.919,9.132L70.776,400H53.766l-20.45-61.35,15.357-12.8a44.522,44.522,0,0,0,5.3-63.176,91.318,91.318,0,0,1-19.747-39.384A23.992,23.992,0,0,0,64,200v-8a8,8,0,0,1,16,0v16H96V192a24,24,0,0,0-48,0v8a8,8,0,0,1-15.963.733A91.384,91.384,0,0,1,123.275,112H352.48a91.545,91.545,0,0,1,82.875,53.025l10.78,23.358A66.759,66.759,0,0,0,480,221.491Z"/><path d="M403.214,172.55A8,8,0,0,0,406.3,160.3L395.457,146.42A67.905,67.905,0,0,0,341.7,120h-14.43v16H341.7a52.008,52.008,0,0,1,41.148,20.272l4.5,5.763-3.664,1.608a51.522,51.522,0,0,1-57.968-11.455L314.277,163.37A67.362,67.362,0,0,0,390.12,178.3Z"/><circle cx="400" cy="208" r="16"/></g></svg>
