<svg height="512" viewBox="0 0 512 512" width="512" xmlns="http://www.w3.org/2000/svg"><g id="Filled_outline" data-name="Filled outline"><g fill="#4d5e78"><path d="m408 352v32l-32 72h-32l24-72-8-32"/><path d="m288 352v40l-21.05 64h-32l13.05-64v-40"/><path d="m216 351.33v.67 40l-16 64h-32l8-64-4.02-40.17"/><path d="m458.6 348.27 13.4 35.73-24 72h-32l16-72-24-32"/></g><path d="m488 200v104a48 48 0 0 1 -48 48h-264a48 48 0 0 1 -48-48 47.231 47.231 0 0 1 -44.32-30.93 46.324 46.324 0 0 1 -2.26-8.53l-17.42-104.54h-21.21a18.8 18.8 0 0 1 -18.64-21.19 19.443 19.443 0 0 1 2.69-7.55l21.16-35.26a40 40 0 0 1 40-40h36a40 40 0 0 1 32 16l36 48h216q4.05 0 8 .39a80.027 80.027 0 0 1 72 79.61z" fill="#dbdbd9"/><path d="m488 200v104a48 48 0 0 1 -48 48h-264a48 48 0 0 1 -48-48 47.231 47.231 0 0 1 -44.32-30.93c122.16-8.91 247.31-50.61 332.32-152.68a80.027 80.027 0 0 1 72 79.61z" fill="#cfcfcd"/><path d="m104 96h-56l-21.322 35.536a18.8 18.8 0 0 0 -2.678 9.67 18.794 18.794 0 0 0 18.794 18.794h29.206a32 32 0 0 0 32-32h8a16 16 0 0 0 16-16 16 16 0 0 0 -16-16z" fill="#4d5e78"/><path d="m496 304v-104a88.1 88.1 0 0 0 -88-88h-212l-33.6-44.8a48.23 48.23 0 0 0 -38.4-19.2h-36a48.061 48.061 0 0 0 -47.945 45.692l-20.071 33.452a27.208 27.208 0 0 0 -3.775 10.68 26.8 26.8 0 0 0 26.585 30.176h14.429l16.309 97.859a55.026 55.026 0 0 0 46.968 45.641 56.137 56.137 0 0 0 44.141 47.33l3.309 33.07-7.888 63.108a8 8 0 0 0 7.938 8.992h32a8 8 0 0 0 7.761-6.06l16-64a7.977 7.977 0 0 0 .239-1.94v-32h16v31.192l-12.889 63.208a8 8 0 0 0 7.839 9.6h32a8 8 0 0 0 7.6-5.5l21.05-64a8 8 0 0 0 .4-2.5v-32h57.754l5.92 23.681-23.264 69.789a8 8 0 0 0 7.59 10.53h32a8 8 0 0 0 7.311-4.751l32-72a8.007 8.007 0 0 0 .689-3.249v-8l7.393 9.856-15.2 68.409a8 8 0 0 0 7.807 9.735h32a8 8 0 0 0 7.59-5.47l24-72a8 8 0 0 0 -.1-5.34l-10.9-29.064a56.016 56.016 0 0 0 27.41-48.126zm-453.206-152a10.8 10.8 0 0 1 -10.706-12.209 11.355 11.355 0 0 1 1.616-4.415l18.826-31.376h59.47a8 8 0 0 1 0 16h-8a8 8 0 0 0 -8 8 24.028 24.028 0 0 1 -24 24zm93.206 152a8 8 0 0 0 -8-8 39.1 39.1 0 0 1 -38.685-32.771l-15.876-95.261a40.073 40.073 0 0 0 37.761-31.968h.8a24 24 0 0 0 0-48h-54.987a32.057 32.057 0 0 1 30.987-24h36a32.151 32.151 0 0 1 25.6 12.8l36 48a8 8 0 0 0 6.4 3.2h216a72.081 72.081 0 0 1 72 72v104a40.045 40.045 0 0 1 -40 40h-32a40.045 40.045 0 0 1 -40-40h-16a55.823 55.823 0 0 0 16.861 40h-121.722a55.823 55.823 0 0 0 16.861-40h-16a40.045 40.045 0 0 1 -40 40h-32a40.045 40.045 0 0 1 -40-40zm72 87.016-14.246 56.984h-16.692l6.876-55.008a7.928 7.928 0 0 0 .022-1.789l-3.122-31.203h27.162zm72-.3-18.84 57.284h-16.414l11.093-54.4a8.031 8.031 0 0 0 .161-1.6v-32h24zm90.8 57.284h-15.7l20.49-61.47a8.01 8.01 0 0 0 .171-4.47l-5.515-22.06h29.754v22.3zm92.714-63.843-21.28 63.843h-16.261l13.837-62.265a8 8 0 0 0 -1.41-6.535l-14.4-19.2h16a55.945 55.945 0 0 0 13.808-1.726z"/></g></svg>