<?xml version="1.0"?>
<svg xmlns="http://www.w3.org/2000/svg" viewBox="0 0 512 512" width="512" height="512"><g id="Filled_outline" data-name="Filled outline"><polygon points="472 248 400.7 219.48 384 266 432 272 456 328 480 328 488 304 472 248" style="fill:#f98500"/><path d="M285.06,316.35,272,312l-16-32V248H216l-14.47,34.03L248,344h48V331.53A16.014,16.014,0,0,0,285.06,316.35Z" style="fill:#f98500"/><path d="M200,136v32H136a15.915,15.915,0,0,0-8,2.14,12.013,12.013,0,0,0-1.13.72A15.975,15.975,0,0,0,120,184V296a47.969,47.969,0,0,1-14.06,33.94A47.9,47.9,0,0,1,72,344a47.775,47.775,0,0,1-14.03-2.09h-.01A48,48,0,0,1,24,296V272a16,16,0,0,1,32,0v24a15.915,15.915,0,0,0,2.14,8,7.919,7.919,0,0,0,.42.69,15.983,15.983,0,0,0,12.32,7.27h.01c.37.03.73.04,1.11.04.27,0,.54-.01.8-.02a15.99,15.99,0,0,0,12.47-7.03c.21-.31.41-.62.59-.95A15.915,15.915,0,0,0,88,296V184a47.826,47.826,0,0,1,3.33-17.6v-.01A48.015,48.015,0,0,1,136,136Z" style="fill:#ffa912"/><path d="M488,176l-16,32-32-8H408l-3.5,9.33-3.8,10.15L399,224l-15,40v16l12,16,4,5.33,2,2.67,6,8,13.06,4.35A16.014,16.014,0,0,1,432,331.53V344H384l-56-48V248H216a46.118,46.118,0,0,1-.69,8,47.254,47.254,0,0,1-29.02,35.88L176,296l16,16,13.06,4.35A16.014,16.014,0,0,1,216,331.53V344H168l-48-56,32-40V184a47.946,47.946,0,0,1,24-41.57,47.5,47.5,0,0,1,16-5.77,49.071,49.071,0,0,1,8-.66h88l16-5.33,8-2.67,8-2.67L336,120l16-5.33,8-2.67h48a16,16,0,1,1,32,0l14.9,11.18L472,136v16Z" style="fill:#ffb531"/><path d="M488,176l-16,32-32-8H408l-3.5,9.33-3.8,10.15L399,224l-15,40v16l12,16,4,5.33,2,2.67,6,8,13.06,4.35A16.014,16.014,0,0,1,432,331.53V344H384l-56-48V248H216a46.118,46.118,0,0,1-.69,8,47.254,47.254,0,0,1-29.02,35.88L176,296l16,16,13.06,4.35A16.014,16.014,0,0,1,216,331.53V344H168l-48-56,32-40v-5.73c110.92-14.97,219.22-50.8,302.9-119.09L472,136v16Z" style="fill:#ffa912"/><path d="M479.692,245.8a8,8,0,0,0-4.721-5.23l-64.035-25.613,2.61-6.959h25.47l31.044,7.761a8,8,0,0,0,9.095-4.183l16-32a8,8,0,0,0-.5-8.016L480,149.578V136a8,8,0,0,0-3.2-6.4l-29.193-21.895a23.994,23.994,0,0,0-46.231-3.7H360a8.027,8.027,0,0,0-2.53.41L286.7,128H136a56.063,56.063,0,0,0-56,56V296a8,8,0,0,1-16,0V272a24,24,0,0,0-48,0v24a56,56,0,0,0,110.674,12.079l35.252,41.127A8,8,0,0,0,168,352h48a8,8,0,0,0,8-8V331.53a23.967,23.967,0,0,0-1.417-8.09L241.6,348.8A8,8,0,0,0,248,352h48a8,8,0,0,0,8-8V331.53a23.98,23.98,0,0,0-16.412-22.77l-9.915-3.3L264,278.111V256h56v40a8,8,0,0,0,2.794,6.074l56,48A8,8,0,0,0,384,352h48a8,8,0,0,0,8-8V331.53a23.98,23.98,0,0,0-16.412-22.77L412.9,305.2,392,277.333v-2.271l34.454,4.307,22.192,51.782A8,8,0,0,0,456,336h24a8,8,0,0,0,7.59-5.47l8-24a8,8,0,0,0,.1-4.728ZM96.67,327.451l-7.4-14.807A24.016,24.016,0,0,0,94.624,304H111.2A40.048,40.048,0,0,1,96.67,327.451Zm1.492-156.4,14.1,9.4A24.21,24.21,0,0,0,112,184v8H96v-8A39.805,39.805,0,0,1,98.162,171.056ZM112,208v16H96V208Zm0,32v16H96V240Zm0,32v16H96V272Zm24-96h8.585a55.8,55.8,0,0,0-.585,8v61.193l-16,20V184A8.009,8.009,0,0,1,136,176Zm13.428-16H144V144h16.827A56.323,56.323,0,0,0,149.428,160ZM128,144.805v16.571a24.024,24.024,0,0,0-8.164,4.9l-13.543-9.029A40.007,40.007,0,0,1,128,144.805ZM32.805,304H49.376a24.016,24.016,0,0,0,5.358,8.644l-7.4,14.807A40.048,40.048,0,0,1,32.805,304ZM40,264a8.009,8.009,0,0,1,8,8v16H32V272A8.009,8.009,0,0,1,40,264Zm21.63,70.629,7.409-14.818a23.289,23.289,0,0,0,5.922,0l7.409,14.818a39.9,39.9,0,0,1-20.74,0Zm138.488-41.147L214.079,312.1a24.04,24.04,0,0,0-6.491-3.339l-11.268-3.753-6.094-6.1A54.841,54.841,0,0,0,200.118,293.482Zm48.727-9.9,16,32a8,8,0,0,0,4.627,4.012l13.053,4.348A8,8,0,0,1,288,331.53V336H252l-40.113-53.494A55.684,55.684,0,0,0,223.41,256H248v24A7.994,7.994,0,0,0,248.845,283.578ZM405.472,319.59l13.053,4.348A8,8,0,0,1,424,331.53V336H386.959L336,292.32V216H320v24H224V208H208v16H176v16h32s-.287,13.382-.836,16H176v16H199.8a39.048,39.048,0,0,1-16.479,12.453l-10.29,4.12a8,8,0,0,0-2.683,13.084l16,16a8.014,8.014,0,0,0,3.129,1.933l13.053,4.348A8,8,0,0,1,208,331.53V336H171.68l-41.294-48.176L158.247,253A8,8,0,0,0,160,248V184a40.092,40.092,0,0,1,16-32v32h16V144.8a40.217,40.217,0,0,1,8-.8h8v48h16V144h16v32h16V144h16v56h16V144a8.027,8.027,0,0,0,2.53-.41L304,139.1V176h16V133.766l16-5.333V192h16V123.1l9.3-3.1H368v32h16V120h16v16h16V112a8,8,0,0,1,16,0v16h16l16,12v12a8.005,8.005,0,0,0,1.344,4.438l13.425,20.137-11.054,22.108-25.775-6.444A7.977,7.977,0,0,0,440,192V168H424v24H412.944L408,182.111V160H392v24a7.994,7.994,0,0,0,.845,3.578l6.439,12.88L390.456,224H360v16h24.456l-6,16H352v16h24v8a8.006,8.006,0,0,0,1.6,4.8L380,288H360v16h32l9.6,12.8A8,8,0,0,0,405.472,319.59Zm68.762.41H461.275l-21.921-51.151a8,8,0,0,0-6.362-4.787l-38.659-4.833,10.984-29.286,60.069,24.028,14.242,49.847Z"/></g></svg>
