<svg height="512" viewBox="0 0 512 512" width="512" xmlns="http://www.w3.org/2000/svg"><g id="Filled_outline" data-name="Filled outline"><path d="m160 248h-136v22.111a41.887 41.887 0 0 0 41.888 41.889h94.112z" fill="#f98500"/><path d="m28.422 264.845a41.878 41.878 0 0 1 -4.367-16.845h-.055v22.111a41.887 41.887 0 0 0 41.888 41.889h94.112v-24h-94.112a41.889 41.889 0 0 1 -37.466-23.155z" fill="#f77c00"/><path d="m421.585 275.773-69.585 4.227v32h56 80z" fill="#f98500"/><path d="m400 312a31.983 31.983 0 0 1 -32 32h-224a31.983 31.983 0 0 1 -32-32z" fill="#ffb531"/><path d="m400 312a31.885 31.885 0 0 1 -4.28 16h-279.44a31.885 31.885 0 0 1 -4.28-16z" fill="#ffa912"/><path d="m432 248-8.43 22.47a63.985 63.985 0 0 1 -59.92 41.53h-212.1a63.983 63.983 0 0 1 -53.84-29.41 62.241 62.241 0 0 1 -3.4-5.97l-14.31-28.62 53.12-65.38 5.48-6.74q2.6-3.195 5.34-6.22a151.251 151.251 0 0 1 64.06-41.84 147.662 147.662 0 0 1 16-4.39 150.986 150.986 0 0 1 64 0 147.662 147.662 0 0 1 16 4.39 151 151 0 0 1 55.82 33.44q4.98 4.695 9.56 9.88 2.055 2.325 4.02 4.74l6.63 8.16z" fill="#7a432a"/><path d="m432 248-8.43 22.47a63.985 63.985 0 0 1 -59.92 41.53h-212.1a63.983 63.983 0 0 1 -53.84-29.41c95.77-13.76 190.06-49.78 262.11-121.33q4.98 4.695 9.56 9.88 2.055 2.325 4.02 4.74l6.63 8.16z" fill="#6e3c26"/><path d="m409.714 220.571-16.869 33.74a32 32 0 0 1 -28.622 17.689h-210.487a32 32 0 0 1 -27.136-15.04l-23.426-37.481-23.174 28.521 14.311 28.622a64 64 0 0 0 57.243 35.378h212.094a64 64 0 0 0 59.925-41.528l8.427-22.472z" fill="#92563a"/><path d="m112 312a40 40 0 0 0 -40 40v16l-8 24h64v-40.31a16 16 0 0 1 6-12.494l34-27.196z" fill="#f77c00"/><path d="m400 312a40 40 0 0 1 40 40v40h-64l8-24v-16.31a16 16 0 0 0 -6-12.494l-34-27.196z" fill="#f77c00"/><path d="m48 272h16v16h-16z"/><path d="m491.831 304.977-60.316-32.9 7.975-21.268a8 8 0 0 0 -1.281-7.854l-22.285-27.429-.006-.006-36.307-44.685a159.269 159.269 0 0 0 -247.222 0l-56.197 69.165h-52.192a8 8 0 0 0 -8 8v22.111a50.141 50.141 0 0 0 5.267 22.312 49.615 49.615 0 0 0 44.622 27.577h10.372a47.8 47.8 0 0 0 -12.261 32v14.7l-7.59 22.77a8 8 0 0 0 7.59 10.53h64a8 8 0 0 0 8-8v-40h240v14.7l-7.59 22.768a8 8 0 0 0 7.59 10.532h64a8 8 0 0 0 8-8v-40a47.8 47.8 0 0 0 -12.262-32h52.262a8 8 0 0 0 3.831-15.023zm-389.508-71.765 17.492 27.988a39.775 39.775 0 0 0 33.921 18.8h6.264v24h-8.446a55.7 55.7 0 0 1 -50.088-30.955l-12-24.006zm57.677-6.962v37.75h-6.264a23.862 23.862 0 0 1 -20.352-11.28l-20.4-32.634 24.683-30.379zm55.57-24.35 32.43 25.945v36.155h-72v-35.719zm80.86 0 39.57 26.381v35.719h-72v-36.155zm79.079-10.742 24.742 30.451-14.562 29.122a23.868 23.868 0 0 1 -21.466 13.269h-12.223v-37.578zm-39.509 112.842h-72v-24h72zm-160 0v-24h72v24zm-5.193 16h13.193v16h-33.193zm29.193 0h48v16h-48zm64 0h40v16h-40zm56 0h21.193l20 16h-41.193zm43.648-16h-11.648v-24h12.223a39.782 39.782 0 0 0 35.777-22.111l11.325-22.649 11.575 14.245-6.816 18.178a56.261 56.261 0 0 1 -52.436 36.337zm1.269-125.8-23.136 34.7-37.781-25.181v-51.488a142.719 142.719 0 0 1 60.917 41.969zm-76.917-46.616v56.571l-32 25.6-32-25.6v-56.571a144.649 144.649 0 0 1 64 0zm-80 4.647v51.488l-37.513 25.009-22.047-36.082a142.67 142.67 0 0 1 59.56-40.415zm-172.423 149.036a34.063 34.063 0 0 1 -3.577-15.156v-14.111h43.056l12.1 24.2a72.154 72.154 0 0 0 19.057 23.8h-40.324a33.7 33.7 0 0 1 -30.312-18.733zm84.423 66.423v32.31h-44.9l4.49-13.47a8.027 8.027 0 0 0 .41-2.53v-16a32.036 32.036 0 0 1 32-32h33.194l-16.186 12.949a23.877 23.877 0 0 0 -9.008 18.741zm312 32.31h-44.9l4.49-13.47a8.032 8.032 0 0 0 .41-2.53v-16.31a23.879 23.879 0 0 0 -9.007-18.741l-16.187-12.949h33.194a32.036 32.036 0 0 1 32 32zm-16-80h-7.213a72.264 72.264 0 0 0 15.69-17.536l32.15 17.536z"/><path d="m240 144h16v16h-16z"/><path d="m168 168h16v16h-16z"/><path d="m312 160h16v16h-16z"/><path d="m192 232h16v16h-16z"/><path d="m280 232h16v16h-16z"/></g></svg>