<svg id="flat" height="512" viewBox="0 0 512 512" width="512" xmlns="http://www.w3.org/2000/svg"><path d="m352 56h72v200h-72z" fill="#b1712c"/><path d="m440 256v168h-368v-168l184-144 61.33 48 20.45 16 20.44 16 20.45 16 20.44 16 20.45 16z" fill="#b1712c"/><path d="m304 296h-264l139.765-108.706z" fill="#c78640"/><path d="m128 256h152v16h-152z" fill="#b1712c"/><path d="m160 224h88v16h-88z" fill="#b1712c"/><path d="m272 296h16v96h-16z" fill="#a36522"/><path d="m24 392h96v32h-96z" fill="#c78640"/><path d="m232 392h256v32h-256z" fill="#c78640"/><path d="m24 424h96v64h-96z" fill="#b1712c"/><path d="m232 424h256v64h-256z" fill="#b1712c"/><path d="m48 424h16v64h-16z" fill="#a36522"/><path d="m80 424h16v64h-16z" fill="#a36522"/><path d="m256 424h16v64h-16z" fill="#a36522"/><path d="m288 424h16v64h-16z" fill="#a36522"/><path d="m320 424h16v64h-16z" fill="#a36522"/><path d="m352 424h16v64h-16z" fill="#a36522"/><path d="m384 424h16v64h-16z" fill="#a36522"/><path d="m416 424h16v64h-16z" fill="#a36522"/><path d="m448 424h16v64h-16z" fill="#a36522"/><path d="m120 424h112v64h-112z" fill="#d69651"/><path d="m120 456h112v32h-112z" fill="#c78640"/><g fill="#a36522"><path d="m152 328h48v96h-48z"/><path d="m96 352h56v16h-56z"/><path d="m96 320h184v16h-184z"/><path d="m200 352h80v16h-80z"/><path d="m304 352h136v16h-136z"/><path d="m304 320h136v16h-136z"/><path d="m336 288h104v16h-104z"/><path d="m344 256h96v16h-96z"/><path d="m419.56 240h-107.56v-16h87.11z"/><path d="m378.67 208h-98.67v-16h78.22z"/><path d="m337.78 176h-89.78v-16h69.33z"/></g><path d="m336 24h104v32h-104z" fill="#c78640"/><path d="m320 272-16 24-107.03-93.65-20.97-18.35 21.73-17.967 21.73 18.827z" fill="#ffc431"/><path d="m219.46 184.86-22.49 17.49-20.97-18.35 21.73-17.967z" fill="#ffb401"/><path d="m40 296 216-168 216 168 16-24-232-184-232 184z" fill="#ffc431"/></svg>