<?xml version="1.0" encoding="UTF-8" standalone="no"?>
<svg
   xmlns:dc="http://purl.org/dc/elements/1.1/"
   xmlns:cc="http://creativecommons.org/ns#"
   xmlns:rdf="http://www.w3.org/1999/02/22-rdf-syntax-ns#"
   xmlns:svg="http://www.w3.org/2000/svg"
   xmlns="http://www.w3.org/2000/svg"
   xmlns:sodipodi="http://sodipodi.sourceforge.net/DTD/sodipodi-0.dtd"
   xmlns:inkscape="http://www.inkscape.org/namespaces/inkscape"
   sodipodi:docname="smiley.svg"
   inkscape:version="1.0 (4035a4fb49, 2020-05-01)"
   id="svg28"
   version="1.1"
   viewBox="0 0 86.312309 74.390427"
   height="74.390427mm"
   width="86.312309mm">
  <defs
     id="defs22" />
  <sodipodi:namedview
     inkscape:window-maximized="0"
     inkscape:window-y="0"
     inkscape:window-x="75"
     inkscape:window-height="728"
     inkscape:window-width="1274"
     showgrid="false"
     inkscape:document-rotation="0"
     inkscape:current-layer="layer1"
     inkscape:document-units="mm"
     inkscape:cy="88.619757"
     inkscape:cx="216.0785"
     inkscape:zoom="0.35"
     inkscape:pageshadow="2"
     inkscape:pageopacity="0.0"
     borderopacity="1.0"
     bordercolor="#666666"
     pagecolor="#ffffff"
     id="base" />
  <metadata
     id="metadata25">
    <rdf:RDF>
      <cc:Work
         rdf:about="">
        <dc:format>image/svg+xml</dc:format>
        <dc:type
           rdf:resource="http://purl.org/dc/dcmitype/StillImage" />
        <dc:title></dc:title>
      </cc:Work>
    </rdf:RDF>
  </metadata>
  <g
     transform="translate(-48.662562,-124.71936)"
     id="layer1"
     inkscape:groupmode="layer"
     inkscape:label="Layer 1">
    <path
       d="m 75.319034,181.48672 c -2.506588,-1.22137 -4.862089,-2.69893 -7.207339,-4.18939 -2.490788,-1.49725 -4.592498,-3.42097 -6.407801,-5.64803 -1.80893,-2.48661 -2.479247,-5.36303 -2.861104,-8.33554 -0.287554,-2.66882 -0.263821,-5.35343 -0.260696,-8.03276 0.07209,-1.90654 -0.213942,-3.87031 0.442465,-5.71189 0.158226,-0.44392 0.394306,-0.8573 0.591457,-1.28595 1.310265,-2.87365 3.118962,-5.47916 5.296763,-7.77948 1.715929,-2.07359 3.744288,-3.92036 5.955496,-5.48112 2.312408,-1.6322 9.350237,-5.55396 -5.013196,2.76674 4.689441,-2.67574 9.868562,-3.73941 15.182736,-4.37338 6.322751,-0.52029 12.717145,-0.64308 19.026295,0.0865 4.79146,0.70322 8.78486,3.40906 12.42557,6.38268 3.56344,3.07375 6.1766,6.96327 8.57693,10.93225 1.82346,3.10441 2.80737,6.51494 3.44753,10.01487 0.51261,3.27852 0.60162,6.59883 0.61497,9.9095 -0.0435,2.62063 0.13979,5.26104 -0.14036,7.87112 -0.42734,2.73939 -1.72267,4.65104 -3.29394,6.86337 -2.04781,2.55957 -4.57082,4.63217 -7.18337,6.60379 -5.27086,3.06284 4.23783,-2.39629 6.3172,-3.65862 0.47476,-0.28822 -1.00321,0.48139 -1.51189,0.70714 -1.94958,0.86523 -3.93264,1.61228 -5.94652,2.31793 -3.26785,1.13631 -6.67713,1.647 -10.1178,1.89886 -2.96789,0.16815 -5.941248,0.10596 -8.91205,0.11463 -3.237624,0.25407 -5.523982,-0.4132 -8.445868,-1.68575 -2.527379,-1.10044 -4.671113,-2.79094 -6.821712,-4.45571 -2.0739,-1.35873 -3.883996,-3.04985 -5.756563,-4.65387 -1.328928,-1.11669 -2.46887,-2.38754 -3.570047,-3.71145 -0.129776,-0.17253 -0.259551,-0.34505 -0.389327,-0.51759 0,0 -9.624332,5.59727 -9.624332,5.59727 v 0 c 0.144111,0.18947 0.288221,0.37894 0.432332,0.56841 1.180605,1.34078 2.326359,2.69034 3.743015,3.81117 1.900375,1.60163 3.739409,3.29656 5.787493,4.71253 2.269935,1.65224 4.447527,3.44786 7.052805,4.59658 3.057858,1.42077 5.202237,2.38892 8.675391,2.0898 2.990839,0.0292 5.983314,0.0148 8.973082,-0.0706 3.533044,-0.17348 7.038301,-0.63857 10.406221,-1.75274 7.10332,-2.28911 13.78821,-5.62251 19.90294,-9.91011 2.61172,-2.04643 5.116,-4.25232 7.0859,-6.92357 1.54,-2.26479 2.83923,-4.6352 3.10952,-7.39906 0.15181,-2.64308 0.0181,-5.29314 0.0409,-7.93918 -0.10038,-3.34702 -0.20866,-6.70659 -0.79872,-10.01264 -0.67633,-3.6302 -1.66484,-7.17762 -3.66168,-10.34986 -2.56542,-4.00161 -5.23443,-7.99432 -8.82369,-11.20127 -3.78695,-3.0219 -7.85522,-6.0686 -12.78905,-6.87355 -6.38183,-0.72763 -12.865217,-0.53115 -19.269004,-0.20066 -5.349076,0.45801 -10.586241,1.38446 -15.347672,3.96793 -7.360788,4.15175 -14.126149,7.09669 -19.405706,13.51832 -2.128337,2.46524 -4.001616,5.13074 -5.224036,8.15132 -0.923549,2.52927 -1.040149,4.75048 -0.921732,7.40866 0.0199,2.70229 0.124444,5.40874 0.445479,8.09427 0.455277,3.27015 1.126588,6.11619 3.088624,8.87711 1.871999,2.33944 4.037013,4.36192 6.639386,5.91903 2.3193,1.48548 4.629311,2.98255 7.021433,4.35379 0,0 9.423272,-5.98178 9.423272,-5.98178 z"
       id="path30"
       style="fill:#000000;fill-opacity:1;fill-rule:nonzero;stroke:none;stroke-width:0.26207" />
    <path
       d="m 73.690707,154.89894 c 1.596109,-1.57681 3.545504,-2.64871 5.484595,-3.75043 -15.690215,9.54403 -10.267315,5.22929 -6.716895,4.09994 0.893503,-0.28422 1.809112,-0.41448 2.736107,-0.53421 1.297924,-0.11968 2.605193,-0.18285 3.907602,-0.11387 0,0 9.135713,-6.33457 9.135713,-6.33457 v 0 c -1.350272,-0.26215 -2.731831,-0.1151 -4.101158,-0.0691 -5.99707,0.4867 -9.809046,3.27324 -15.306585,6.85501 -1.976681,1.14807 -3.807865,2.46831 -5.545116,3.94419 0,0 10.405737,-4.09696 10.405737,-4.09696 z"
       id="path32"
       style="fill:#000000;fill-opacity:1;fill-rule:nonzero;stroke:none;stroke-width:0.26207" />
    <path
       d="m 95.230459,155.33447 c 2.888975,-0.20359 5.744601,-0.0647 8.533071,0.71347 1.39441,0.37354 2.2766,1.35773 3.23062,2.34047 0,0 9.54135,-5.70176 9.54135,-5.70176 v 0 c -1.06567,-1.10905 -2.08941,-2.25803 -3.60858,-2.77064 -2.80856,-0.89992 -5.71053,-1.05412 -8.65106,-1.02917 0,0 -9.045401,6.44763 -9.045401,6.44763 z"
       id="path34"
       style="fill:#000000;fill-opacity:1;fill-rule:nonzero;stroke:none;stroke-width:0.26207" />
    <path
       d="m 70.701002,175.42325 c 2.005539,0.80574 3.920403,1.81821 5.770124,2.92225 1.994987,1.09602 3.978359,2.22408 6.015873,3.2462 1.915795,0.78746 3.456988,2.27945 5.338731,3.11749 0.481597,0.21447 0.993179,0.35713 1.489768,0.53569 3.873132,0.87859 7.885078,1.10657 11.849912,0.98303 6.17453,-0.74795 11.89265,-3.85801 16.59975,-7.83792 1.18767,-1.53354 2.53971,-2.97834 3.48982,-4.67477 0,0 -10.19284,4.42906 -10.19284,4.42906 v 0 c -1.04236,1.53747 -2.21394,3.05411 -3.61601,4.28678 -3.42728,2.29615 -2.60008,1.70787 7.78549,-4.22705 0.32325,-0.18473 -0.68192,0.3021 -1.02544,0.4474 -1.35353,0.57253 -2.74372,0.9659 -4.20025,1.21147 -3.87049,0.24195 -7.76939,0.14431 -11.573372,-0.67809 -0.444341,-0.13607 -0.902171,-0.23537 -1.333021,-0.40824 -1.92673,-0.77302 -3.452194,-2.32521 -5.352831,-3.152 -2.015032,-1.00507 -3.96119,-2.12666 -5.948163,-3.1815 -1.841405,-1.13879 -3.776811,-2.13477 -5.735876,-3.06299 0,0 -9.361665,6.04319 -9.361665,6.04319 z"
       id="path36"
       style="fill:#000000;fill-opacity:1;fill-rule:nonzero;stroke:none;stroke-width:0.26207" />
  </g>
</svg>
