<svg id="Layer_1" enable-background="new 0 0 510.711 510.711" height="512" viewBox="0 0 510.711 510.711" width="512" xmlns="http://www.w3.org/2000/svg"><g><path d="m203.439 97.468-.84 8.183c-1.349 13.137 8.959 24.559 22.166 24.559 13.003 0 23.244-11.088 22.212-24.05l-.692-8.691h-42.846z" fill="#ffb69e"/><g id="XMLID_113_"><path d="m252.958 510.711c-13.441 0-24.338-10.896-24.338-24.338v-194.538c0-13.442 10.896-24.338 24.338-24.338 13.441 0 24.338 10.896 24.338 24.338v194.538c0 13.442-10.897 24.338-24.338 24.338z" fill="#3c5a73"/></g><g id="XMLID_111_"><path d="m193.765 510.711c-13.441 0-24.338-10.896-24.338-24.338v-194.538c0-13.442 10.896-24.338 24.338-24.338 13.441 0 24.338 10.896 24.338 24.338v194.538c-.001 13.442-10.897 24.338-24.338 24.338z" fill="#46738c"/></g><g><circle cx="223.366" cy="42.035" fill="#ffb69e" r="42.035"/></g><path d="m378.24 142.12c-7.357-8.448-20.168-9.332-28.615-1.976l-23.072 20.092v-15.012c-.131-26.333-21.999-47.757-48.745-47.757h-31.523c.077 11.282-10.457 20.76-21.451 20.76-11.784 0-20.564-9.443-21.395-20.76h-34.514c-26.79 0-48.693 21.424-48.824 47.757v113.258h40.563v-113.091c.044-3.856 3.97-7.359 8.261-7.359h.503v153.803h107.869l-.189-153.803h.7c4.25 0 8.139 3.503 8.182 7.36v59.4c0 7.949 4.644 15.166 11.879 18.459 7.293 3.32 15.778 2.013 21.722-3.164l56.673-49.352c8.447-7.356 9.331-20.167 1.976-28.615z" fill="#55879b"/><path d="m165.758 252.798h-50.753l5.095 19.148v22.384c0 11.201 9.08 20.282 20.282 20.282s20.282-9.081 20.282-20.282v-22.384z" fill="#a5c8cd"/><path d="m315.705 163.93 37.521 37.521 10.389-17.922 16.548-16.548c8.281-8.281 8.281-21.707 0-29.988s-21.707-8.281-29.988 0l-16.548 16.548z" fill="#a5c8cd"/><g><g><path d="m342.802 481.306v-222.633c-.024-7.88 6.011-14.68 13.882-15.074 8.403-.422 15.362 6.254 15.387 14.572l-7.317 154.497c.014 4.751 4.059 84.242 4.059 84.242l-4.637 9.971c-2.368 5.092-9.6 5.114-11.999.037l-5.611-11.875c-2.028-4.297-3.75-8.986-3.764-13.737z" fill="#a5c8cd"/></g></g><path d="m357.663 243.6c-.144.85-.228 1.718-.226 2.602v222.634c.015 4.75 1.736 9.44 3.765 13.735l5.611 11.875c.49 1.038 1.189 1.851 2.001 2.463l.901-1.938c2.003-4.308 2.371-9.003 2.357-13.754v-223.047c-.025-7.991-6.454-14.447-14.409-14.57z" fill="#cfe6e8"/><g><path d="m357.409 262.433c-5.375 0-9.74-4.349-9.756-9.727v-68.297c-.016-5.388 4.131-9.77 9.52-9.786h.03c5.375 0 9.947 4.349 9.964 9.727v68.297c.016 5.388-4.339 9.77-9.727 9.786-.01 0-.02 0-.031 0z" fill="#823214"/></g><g><path d="m328.871 262.52c-5.375 0-9.74-4.348-9.756-9.727-.016-5.389 4.338-9.945 9.727-9.961h57.077.03c5.375 0 9.74 4.348 9.756 9.727.016 5.389-4.338 9.945-9.727 9.961h-57.077c-.009 0-.02 0-.03 0z" fill="#965028"/></g></g></svg>